<svg id="Layer_1" data-name="Layer 1" xmlns="http://www.w3.org/2000/svg" viewBox="0 0 207.29 69.43"><defs><style>.cls-2{fill:#231f20}</style></defs><g id="LOGO"><path d="M206 56.77zm-1.09-8c.29.19.57.4.85.62a.44.44 0 0 1 .2 0 1.37 1.37 0 0 1 .32.05l.24-.26h-.27a6.3 6.3 0 0 1-1.25-.38zm4.09 9.09a7.55 7.55 0 0 1 .53 4l-.88-.08-.9-.08a.3.3 0 0 0 0-.21.36.36 0 0 0-.47-.11.46.46 0 0 0 0 .31 5.17 5.17 0 0 0 2.19.66v.4a13.4 13.4 0 0 1-.83 2.75.22.22 0 0 0-.17-.07v.1c0 .15-.13.15-.15.29a.17.17 0 0 0 .12.05v.1c-1.82 3.86-5.44 6.49-10.12 7.58l-.37-.1-.67-.18-.19-.05.07.18a.75.75 0 0 0 .36.32 22.94 22.94 0 0 1-4.27.39 25.59 25.59 0 0 1-7.12-1h.19a1.2 1.2 0 0 1 .63.13 1.69 1.69 0 0 0 .59.15h.39l-.15-.12a2.27 2.27 0 0 0-1.14-.38.52.52 0 0 0-.41.14l-.16.18a17.62 17.62 0 0 1-8.1-4.81l.72-.7.26.05c-.26 0-.49.1-.53.26s0 .18.13.27l.13.1v-.21h.1l.16.07v-.27a.25.25 0 0 0 .17-.11v-.06c.7.15 1.41.28 2.17.41l.82.13-.75-.32a.22.22 0 0 1 .06-.07l.15-.11-.18-.06a12.39 12.39 0 0 0-2-.38l-.44-.06 5.51-5.37c.26.25.53.47.8.69h-.11l.3.12a14.93 14.93 0 0 0 9.56 3.48c2.59 0 4.16-.9 4.44-2.39v-.1c.27-1.44-.73-2.24-5.26-3.34-7.11-1.69-12.45-3.79-11.1-11v-.1a12.59 12.59 0 0 1 2.91-6h.35l-.26-.08a13.66 13.66 0 0 1 2.68-2.25h1l-.76-.2a15 15 0 0 1 1.38-.79h.11a1.25 1.25 0 0 0 .36.08.28.28 0 0 0 .21-.08l.1-.1-.19-.09-.13-.05q.65-.3 1.34-.55a2.83 2.83 0 0 1 .42.06 2.32 2.32 0 0 0 .48.07 1.15 1.15 0 0 0 .5-.11l.28-.13-.31-.05-.42-.09h-.11a19.75 19.75 0 0 1 5.7-.81c5.93 0 10.27 1.6 13.49 4.64l-5.61 6.26-.24-.11c.06 0 .22 0 .25-.27v-.08h-.08a.39.39 0 0 0-.23 0 .21.21 0 0 0 0-.13.22.22 0 0 0-.17-.07H206v.06a.34.34 0 0 0 0 .32.42.42 0 0 0 .08.07c-.58-.26-1.16-.5-1.72-.73.16-.06.39 0 .61.15a1.28 1.28 0 0 0 .52.18.38.38 0 0 0 .34-.2l.08-.14h-.16a2.51 2.51 0 0 1-.62-.16 1.65 1.65 0 0 0-.52-.12.53.53 0 0 0-.36.14l-.12.1c-.48-.19-.94-.38-1.39-.58h-.09v.09a14 14 0 0 0-4.77-1.27v-.08h-.17a.21.21 0 0 0-.1 0h-.45V46c-.09 0-.26 0-.26.13v.05a4.37 4.37 0 0 0-3.38 1.2l-.26-.14a3.3 3.3 0 0 0-1-.44h-.07v.08h-.09a2.72 2.72 0 0 1-.4-.05 3.46 3.46 0 0 0-.56-.07.51.51 0 0 0-.42.15l-.1.12h.15-.32a1.16 1.16 0 0 0-.61 0l-.21.09.21.09a1.74 1.74 0 0 0 .71.22.71.71 0 0 0 .43-.15l.12-.09c.3.09.63.22 1 .34a10.7 10.7 0 0 0 1.17.39 2.18 2.18 0 0 0-.2.55v.1c-.3 1.6.76 2.29 5.4 3.39a26.59 26.59 0 0 1 7.21 2.5.79.79 0 0 0-.4.2.56.56 0 0 1-.34.16h-.12l-.32-.08.22.24a1.54 1.54 0 0 0 .81.35 2 2 0 0 1 .34.1l.12.05v-.12a.31.31 0 0 0 0-.27.19.19 0 0 0-.11-.06.38.38 0 0 0 .12-.25v-.06h-.1a9 9 0 0 1 2.09 1.66c-.82-.19-1.62-.38-2.44-.66a.29.29 0 0 0 0-.08v-.07h-.06a.71.71 0 0 0-.56-.05h-.22a2 2 0 0 1-.57-.17 3.08 3.08 0 0 0-.56-.18 7 7 0 0 0-.74-.09c-.78-.07-1.59-.14-1.91-.82l-.1-.2-.06.16h-.06a.14.14 0 0 0-.13.09v.07h.05v.05s-.06.07-.09.09a.35.35 0 0 0-.17.22v.12h.14c.17 0 .18.06.19.22a.66.66 0 0 0 0 .22 1.51 1.51 0 0 1-.44-.26l-.13-.13v.18a.26.26 0 0 1-.11.16.51.51 0 0 0-.13.16l-.06.12h.13a22.7 22.7 0 0 1 3.51 1h.1v-.1l.06-.12c.07-.12.1-.17.06-.24v-.05h-.06a.15.15 0 0 0-.09 0 11.05 11.05 0 0 0-1.43-.41c-.36-.09-.73-.17-1-.28a.23.23 0 0 0 0-.3v-.11c1 .25 2.12.55 3.17.84 1.37.38 2.77.76 4.05 1q.15.21.29.42a6.1 6.1 0 0 1-1.15-.3 5 5 0 0 0-1.41-.32h-.07l-.45-.13a3.93 3.93 0 0 0-1.08-.22 1.15 1.15 0 0 0-.43.07l.06.19a.61.61 0 0 1 .55.12.22.22 0 0 1 .05.18v.22l.18-.12.13-.1a.3.3 0 0 1 .32-.08c0 .08 0 .21.1.26a.37.37 0 0 1 .18 0 .48.48 0 0 0 .31-.09c-.06.06-.12.13-.1.22s.06.1.15.12l.52.06a7.44 7.44 0 0 1 1.21.18 6.94 6.94 0 0 1 .67.24zM201.47 54v.12l.11-.06c.1-.05.28 0 .44.07a1.15 1.15 0 0 0 .4.1.37.37 0 0 0 .36-.29l.05-.14h-.15a2.31 2.31 0 0 1-.45-.06 2.89 2.89 0 0 0-.5-.07.31.31 0 0 0-.27.1.24.24 0 0 0 .01.23zm-1.56-.81h.23a.89.89 0 0 0 .32.08.6.6 0 0 0 .26-.06l.43-.22h-.5a.61.61 0 0 1-.28-.09.47.47 0 0 0-.21-.08.23.23 0 0 0-.21.16zm4.35-13h.06a.52.52 0 0 0 .23.06.46.46 0 0 0 .29-.12l.09-.06-.09-.18h-.31a.24.24 0 0 0-.26.22zm-1.41 1.91l.1.08a1.87 1.87 0 0 0 1 .25 3.52 3.52 0 0 0 .54 0l.54-.08-.28-.06h.13l.2-.09-.2-.09-.21-.1a1.83 1.83 0 0 0-.7-.24.38.38 0 0 0-.28.11l-.1.11a1.2 1.2 0 0 0-.26 0 .66.66 0 0 0-.42.14zm-.77-2.41a.41.41 0 0 0 .33.16h.08v-.07a.31.31 0 0 0 0-.27.41.41 0 0 0-.33-.16h-.08v.08a.31.31 0 0 0 0 .31zm-9.19 11.81l.08.14a.46.46 0 0 0 .42.17l-.12.12h.2a2.31 2.31 0 0 1 .56.17 1.12 1.12 0 0 0-.27 0l-.37.1.38.09.39.12a2.38 2.38 0 0 0 .76.18.81.81 0 0 0 .41-.1.21.21 0 0 0 .24.22h.08v-.06s0-.06.1-.06a1.18 1.18 0 0 1 .25 0 1.31 1.31 0 0 0 .3.05.28.28 0 0 0 .27-.14h.12v-.12c0-.23-.24-.35-.62-.35h-.31l-.22-.07a2.69 2.69 0 0 0-1.17-.13 2.42 2.42 0 0 0-1.28-.43zm1.89 2.28a1.83 1.83 0 0 0-.77-.17.6.6 0 0 0-.39.1l-.26.22h.42a.22.22 0 0 0 .24.2h.09V54h.23a1 1 0 0 0 .22 0 .23.23 0 0 0 .24-.17v-.07zm-2.83.72h.6a2.31 2.31 0 0 1 .43.12 2.7 2.7 0 0 0 .73.18h.31l-.17-.13a2.43 2.43 0 0 0-1.13-.33h-.2zm-2.33-2.55v-.07a.14.14 0 0 0-.11 0c0 .2.8.28.92.28v-.1h.14-.14v-.05a2.19 2.19 0 0 1-.76-.15zm1-.22a.54.54 0 0 0 .26.1.28.28 0 0 0 .24-.17l.07-.11h-.13a1.45 1.45 0 0 1-.25-.08.53.53 0 0 0-.55 0l-.24.18h.31a.61.61 0 0 1 .27.07zm1.18-.68l.18-.09-.18-.08a3.54 3.54 0 0 0-1.34-.37h-.07a1 1 0 0 0-.31.06l-.45.19h.51c.17 0 .19.06.24.17a.81.81 0 0 0 .07.13l.1.15.07-.17s.06 0 .15-.06.13 0 .17-.07c.24.09.62.25.84.09zm-.85-1.39h.13a.61.61 0 0 1 .19.08.51.51 0 0 0 .24.09.26.26 0 0 0 .23-.17l.06-.14h-.16a.74.74 0 0 1-.19 0 .84.84 0 0 0-.25-.06.2.2 0 0 0-.2.12zm-2.09-8.48l.06.19c.12.4.89.48 1.08.48h.08l.23-.05-.2-.13a3.47 3.47 0 0 0-.78-.32l-.29-.1zm-.69 6l.27.09.29.11a2.63 2.63 0 0 0 .76.21.3.3 0 0 0 .21-.07l.08-.08-.09-.07a2.17 2.17 0 0 0-1.06-.32.6.6 0 0 0-.2 0zM187 43.59c.07.14.3.18.41.18s.23-.08.24-.13v-.1h-.1a.32.32 0 0 1-.13-.07.49.49 0 0 0-.34-.12.2.2 0 0 0-.08.24zm-.68 4.07v.12c0 .43.55.54 1 .64l.26.06a4.3 4.3 0 0 0 2.22.69 1.45 1.45 0 0 0 .78-.18l.24-.16h-.29a7.44 7.44 0 0 1-2.07-.56 7.35 7.35 0 0 0-2.08-.56zm-2.1.88h.32a3.61 3.61 0 0 1 .45.11 2.85 2.85 0 0 0 .58.12.19.19 0 0 0 .15-.06.13.13 0 0 0 0-.12v-.07h-.07a2 2 0 0 1-.44-.13.85.85 0 0 0-.72 0zm-.27.86l.44.21a4.46 4.46 0 0 0 1.62.51.74.74 0 0 0 .49-.15l.15-.12h-.19l-.41-.11a6.32 6.32 0 0 0-1.64-.29zm1.3 1.19a.47.47 0 0 0-.37-.12.4.4 0 0 1-.14 0 3.6 3.6 0 0 0-.59-.11.13.13 0 0 0-.12.06v.05a2.07 2.07 0 0 0 1 .25h.38zm1.67 2.56l-.48-.33a3.76 3.76 0 0 0-1.88-.63 1.5 1.5 0 0 0-.35 0l-.54.13.55.06a7.56 7.56 0 0 1 1.36.34l.78.23zm.16-2.84h.42a1.22 1.22 0 0 1 .29.07 1.29 1.29 0 0 0 .36.08.28.28 0 0 0 .21-.08l.08-.08-.09-.07a.94.94 0 0 0-.89-.12zm1.09.58a5.44 5.44 0 0 1 1 .32l.62.23.2.07-.07-.19c-.18-.47-1.3-.62-1.69-.62h-1.07zm.34 4.73l.1.05a.61.61 0 0 0 .28.1.25.25 0 0 0 .24-.18v-.09h-.08a.7.7 0 0 0-.33-.12.34.34 0 0 0-.25.12l-.09.1zm1 1l-.21-.15a.87.87 0 0 0-.69-.16h-.06v.06a.24.24 0 0 0 0 .22.34.34 0 0 0 .29.1 2 2 0 0 0 .33 0h.08zm.93.73a.93.93 0 0 1 .37.07h.08v.1h.11a3.24 3.24 0 0 1 .53.11 2.15 2.15 0 0 0 .51.1.36.36 0 0 0 .36-.2.57.57 0 0 0-.59-.33h-.14a1.41 1.41 0 0 1-.47-.07h-.12v.12a.15.15 0 0 1-.05.1c0-.2-.47-.28-.64-.28a.28.28 0 0 0-.23.08v.12c.03.11.17.12.31.12zm.12.65a.62.62 0 0 0 .43.2h.08l.12-.51H191a.48.48 0 0 0-.43.19v.06zm1 1.22c0-.1-.07-.14-.36-.21a.57.57 0 0 0-.34-.17.19.19 0 0 0-.19.13v.05a1.23 1.23 0 0 0 .73.25c.11.09.14.04.15-.01zm1.4-.21l-.8-.19v.1a.28.28 0 0 1-.1.16l-.12.11.16.05.11.08a.49.49 0 0 0 .29.15.19.19 0 0 0 .16-.09v-.07c.11 0 .29-.06.29-.22zm3.55.61l-.19-.15a1.63 1.63 0 0 0-.9-.26 2.52 2.52 0 0 1-.6-.1 1.93 1.93 0 0 1-.46-.27 1.46 1.46 0 0 0-.78-.36.68.68 0 0 0-.46.2l-.14.13h.2a5.86 5.86 0 0 1 1.24.41 4 4 0 0 0 1.57.41h.3zm1.3-5.16h-.22a1.21 1.21 0 0 1-.29-.07c-.22-.07-.46-.12-.57 0l-.16.16h.23a1.19 1.19 0 0 1 .3.07 1.27 1.27 0 0 0 .36.08.28.28 0 0 0 .21-.08zm1.68-.53l-.19-.06-.17-.07a1.41 1.41 0 0 0-.56-.18.41.41 0 0 0-.32.14l-.13.15h.2a1.78 1.78 0 0 1 .36.09 1.62 1.62 0 0 0 .44.1.36.36 0 0 0 .21-.06zM181.87 67.1h-.18a1.83 1.83 0 0 1-.57-.28 1.23 1.23 0 0 0-.89-.29h-.16l.09.13a1.87 1.87 0 0 0 1.17.74.56.56 0 0 0 .39-.15zm-1.62 1.77v-.11c0-.23-.21-.38-.51-.38a.77.77 0 0 0-.3.06l-.34.15h.37a.57.57 0 0 1 .28.1.77.77 0 0 0 .41.14zm21-12.65l.37.07h.2a1.72 1.72 0 0 0 .41.07.36.36 0 0 0 .3-.13l.09-.12h-.15a1.69 1.69 0 0 0-.86 0zm1.37.6a.31.31 0 0 1-.22-.08.5.5 0 0 0-.29-.12H202a.2.2 0 0 0 0 .22c.08.15.34.19.46.19s.22 0 .25-.11l.06-.14zm-1.65 4.7h.29a1 1 0 0 1 .36.14 1.26 1.26 0 0 0 .56.2.5.5 0 0 0 .28-.08l.18-.12-.21-.06a2.57 2.57 0 0 1-.42-.17 1.43 1.43 0 0 0-.56-.18.44.44 0 0 0-.27.09zm-13.29 4.08l.09.25c.18.5.57.53.92.56a.9.9 0 0 1 .71.26l.09.11.07-.13c0-.06.06-.06.08-.06a.51.51 0 0 1 .18.06.61.61 0 0 0 .26.08.27.27 0 0 0 .24-.14v-.08l-.07-.05a2.66 2.66 0 0 0-1.12-.35 3.61 3.61 0 0 1-1.26-.37zm-.09 1.32v.16l.14-.07a.82.82 0 0 1 .28-.06.79.79 0 0 0 .42-.12l.17-.13h-.37c-.21-.06-.44-.09-.55 0a.38.38 0 0 0-.09.22zm-.59-1.15c-.53-.45-.93-.05 0 0zm-1.79.31a.15.15 0 0 0 0 .11v.09h.09a.71.71 0 0 1 .26.1.62.62 0 0 0 .29.1.29.29 0 0 0 .25-.17l.1-.17h-.2a1.07 1.07 0 0 1-.39-.08c-.22-.06-.36-.06-.42.02zm-.54-1.79a.18.18 0 0 0 .11.09h.1v-.1s0-.06.1-.09a.31.31 0 0 0 .22-.25v-.04h-.13a.38.38 0 0 0-.27-.11h-.11v.11a.57.57 0 0 1 0 .16.41.41 0 0 0-.04.23zm-1.43-.74h.19s.06 0 .08.08a.3.3 0 0 0 .3.19h.11a.3.3 0 0 0 .06-.17l.28.07v-.08a.24.24 0 0 0 0-.22c-.07-.12-.23-.13-.39-.15a.72.72 0 0 1-.23 0l-.14-.08v.16l-.06.06a.34.34 0 0 0-.12.07zm.5 6.85a.36.36 0 0 0-.17-.24.11.11 0 0 0 0-.08s0-.14-.38-.14c-.2 0-.29 0-.31.12s0 .1.09.16c.11 0 .12 0 .14.14a.31.31 0 0 0 .33.3h.07v-.08a.2.2 0 0 0 .16-.11zm1.55-1.3h-.05a.31.31 0 0 0-.2-.35h-.1v.1a.8.8 0 0 0 0 .23l-.85-.2v.09a.23.23 0 0 0 0 .2.89.89 0 0 0 .63.22h.18a.15.15 0 0 0 .09.08l.09.05v-.1h.1a.18.18 0 0 0 .12-.09zm1.56-.48h.55l-.51-.2c-1-.41-2.74-1-3.87-1.31l-.07.18.46.23a8.14 8.14 0 0 0 3.41 1.09zm1.64 3.3v-.12c-.06-.43-.92-.57-1.31-.57h-.45l.23.14a4 4 0 0 0 1.41.49zm.55-1.69a.3.3 0 0 0 .23-.11l.14-.16h-.21a1 1 0 0 1-.4-.12.52.52 0 0 0-.44 0 .5.5 0 0 0-.4-.14c-.13 0-.21 0-.27-.09l-.1-.13-.07.15a.21.21 0 0 0 0 .21c.1.16.41.21.58.21h.08l-.06.06h.22a1.07 1.07 0 0 1 .41.11.78.78 0 0 0 .25 0zm1.06 3.21l-.05-.08a.46.46 0 0 0-.4-.17 1 1 0 0 0-.36.07l-.14.06.12.1a.64.64 0 0 0 .41.21.62.62 0 0 0 .35-.13zm3.41-2.34l-.5-.18a8.86 8.86 0 0 0-3.16-.65l-.79.06.78.13a13.33 13.33 0 0 1 1.32.32 6.92 6.92 0 0 0 1.78.33zm.87-3.32l.91-.06-.53-.16a5.85 5.85 0 0 0-1.71-.25 10.3 10.3 0 0 0-1.54.14h-.06a1.85 1.85 0 0 0-.69-.23h-.28a7.47 7.47 0 0 1-.87-.17 2.84 2.84 0 0 0-.89-.14l-.2.05.17.12a2.37 2.37 0 0 0 1.29.52.79.79 0 0 0 .44-.13v.09h.1a7.87 7.87 0 0 0 2.37.33c.45-.05.94-.08 1.46-.12zm2.45 5.32h-.18a5 5 0 0 1-.59-.14 2.57 2.57 0 0 0-1-.14h-.09v.09c0 .19 1 .45 1.38.45a.46.46 0 0 0 .35-.11zm.5-3.52c.16 0 .44-.1.42-.34v-.06h-.11a2.66 2.66 0 0 0-.9-.24.73.73 0 0 0-.2 0l.1-.07h-.29c-.22 0-.3-.14-.41-.32a1 1 0 0 0-.51-.47h-.11v.12a.51.51 0 0 0 .23.49l.1.1a.13.13 0 0 1-.11 0 .74.74 0 0 1-.22-.05.49.49 0 0 0-.55 0l-.09.1.12.06a2.45 2.45 0 0 0 1 .28 1.09 1.09 0 0 0 .49-.12v.07c.11.21.36.22.57.22a.29.29 0 0 0-.22.2v.13h.3a.69.69 0 0 0 .22.05.18.18 0 0 0 .19-.13zm1.76 2.23l-.13-.08a1.5 1.5 0 0 0-1.29-.12l-.28.15h.32a3.36 3.36 0 0 1 .51.1 2.16 2.16 0 0 0 .47.08.47.47 0 0 0 .28-.08zm1-6.26c.2-.14.5-.07.83 0a2.09 2.09 0 0 0 .61.13h.36l-.19-.14a3.78 3.78 0 0 0-1.15-.54 5.92 5.92 0 0 1-.86-.34h-.08v.08a.26.26 0 0 0 0 .37l-.27.16h.31c.26 0 .35.09.37.13zm2.36 2a.16.16 0 0 0 .09-.1v-.1h-.1a.78.78 0 0 0-.66 0l-.2.14h.23c.14 0 .22.07.25.12a.27.27 0 0 1 0 .22v.11h.24a.23.23 0 0 0 .23-.15.46.46 0 0 0-.08-.25zm.07 1.92l.13-.12h-.18l-.23-.06h-.06a2.32 2.32 0 0 1-.94.11h-.21a2.64 2.64 0 0 0-.59.05l-.32.07.3.11a3.67 3.67 0 0 0 1.19.2 1.9 1.9 0 0 0 .84-.16l.18-.1zm.51-6.82h-.53a.6.6 0 0 1-.28-.09.47.47 0 0 0-.21-.07.22.22 0 0 0-.21.16v.07h.07a.76.76 0 0 0 .44.14.71.71 0 0 0 .3-.07zm.53-1.78l.19.08.11.06.12-.5h-.27a.57.57 0 0 1-.2 0 .17.17 0 0 0 .08-.09v-.1h-.11a.55.55 0 0 0-.39 0h-.06v.06c.05.29.31.4.53.49zm.72 2.55a.29.29 0 0 0-.08-.23.64.64 0 0 0-.45-.21.27.27 0 0 0-.27.17v.11h.12a.54.54 0 0 1 .22.09.71.71 0 0 0 .4.13h.09zm2.72 3.24a.2.2 0 0 0 0 .22c.07.14.3.18.41.18s.23-.08.24-.13a.74.74 0 0 0-.65-.27zm2.13-5.38a2.22 2.22 0 0 1-.71-.18c-.35-.13-.68-.22-.85-.06l-.13.12h.17a.24.24 0 0 0 .18.1h.15a2.28 2.28 0 0 0 .82.11l.29.07h.36a.11.11 0 0 0 .07-.1c0-.13-.25-.21-.39-.21zm-4.71-19.08h-.09a1.5 1.5 0 0 0-.49-.14l.17.05zm-57.98 23.74v-.27l.74.18h-.27a1.52 1.52 0 0 0-.47.09zm21.94-19.31l-.56-.14a1.64 1.64 0 0 0 .49.13zM153 38.79h.82a2.9 2.9 0 0 1 .46.13 1.57 1.57 0 0 0 .48.12h.26l-.1-.11-.12-.08h24.09l.71.12-.48 2.56-.15-.05c-.14 0-.29-.09-.32-.18v-.09h-.09a1.26 1.26 0 0 1-.72-.18 3.34 3.34 0 0 0-.92-.29h-.21l.12.18a7.14 7.14 0 0 0 2.21 1h.05l-.48 2.54a4 4 0 0 0-.71-.08h-.4a.26.26 0 0 0 0-.06v-.08l-.53-.12v.06a.28.28 0 0 0 0 .3.28.28 0 0 0 .25.12.39.39 0 0 0 .26-.1l.39.1.73.17-.43 2.3h-6.55c-4.42-1.12-8.87-2.15-12.85-2.8v.19l1 .24-.16.13c-.16.12-.37.27-.26.54v.06h.06A.56.56 0 0 0 160 45a.78.78 0 0 1 .17-.25c2 .4 3.92.83 5.82 1.28v.11a7.45 7.45 0 0 0-.76-.07h-.31l-.61-.05.56.24a2.78 2.78 0 0 0 .93.28.44.44 0 0 0 .17 0 .29.29 0 0 0 .22.07 1.5 1.5 0 0 0 .32-.05h.12l.05-.19a4.61 4.61 0 0 0-.56-.14v-.11l1.32.32h-.21v.1c.07.25.52.38.81.38a.57.57 0 0 0 .36-.1l.17-.13 1.4.35h-10.4l-.31 1.66-3.36-.93h-.06a.21.21 0 0 0-.15.12.18.18 0 0 0 0 .14 24.14 24.14 0 0 0-2.46-.7c-.76-.19-1.54-.38-2.23-.62a.26.26 0 0 0-.09.1h-.11l-.65-.12.35-1.88a7.9 7.9 0 0 0 .89.21 1.11 1.11 0 0 1 .31 0 10.64 10.64 0 0 1 2.47.57 11.84 11.84 0 0 0 2.91.65h.32l.44-.07-.43-.12-2.43-.68-.27-.08c.83.2 1.63.4 2.41.6 1.58.41 3.08.79 4.51 1v-.19a42.42 42.42 0 0 0-4.71-1.2c-.81-.18-1.65-.36-2.49-.56l-.59-.14v.13a.22.22 0 0 0 .06.14c-.94-.26-1.88-.53-2.9-.84h.46L151 44l.1-.09-.12-.07a1.63 1.63 0 0 0-.33-.13l.07-.36a5.37 5.37 0 0 1 1.43.47l.16.08v-.18h.13a3.44 3.44 0 0 1 .62.1 2.89 2.89 0 0 0 .52.09.21.21 0 0 0 .19-.09l.06-.11h-.12a10.72 10.72 0 0 1-1.23-.43 6.18 6.18 0 0 0-1.63-.48l.08-.44h.07l-.13-.06.64-3.43h1l-.07.29.57.13v-.09a.28.28 0 0 0-.01-.41zm9.46 4.32l-.21-.57v.57a.46.46 0 0 0-.16 0 .15.15 0 0 0-.11 0 .17.17 0 0 0 0 .09h-.13c-.09 0-.12.05-.13.08s.06.14.12.17h.42a.24.24 0 0 0 .26-.35zm12.42-3.72v.06a.61.61 0 0 0 .44.2h.07v-.07a.29.29 0 0 0 0-.28.36.36 0 0 0-.53 0zm-1.71 3.88a1.5 1.5 0 0 0-1-.33.84.84 0 0 0-.31 0l-.26.1.27.08a9.14 9.14 0 0 1 1.27.46l.18.09v-.16a.39.39 0 0 0 .23.18h.29a4.77 4.77 0 0 1 .64.15 2.55 2.55 0 0 0 1 .15h.19l.22.07a2 2 0 0 0 .57.13.47.47 0 0 0 .25-.06l.14-.08-.13-.08a2.8 2.8 0 0 0-1-.27 1.56 1.56 0 0 1-.57-.14l.15-.41-.31.31a.38.38 0 0 1-.28.08h-.63a.77.77 0 0 0-.23 0 .32.32 0 0 0 0-.18.47.47 0 0 0-.64-.15zm-2-2.83h.34a1.93 1.93 0 0 1 .46.15 1.46 1.46 0 0 0 .46.14.17.17 0 0 0 .19-.15v-.08h-.11a1 1 0 0 1-.43-.14.89.89 0 0 0-.4-.13.42.42 0 0 0-.2.05zM168.66 42a.35.35 0 0 0 .28.14.26.26 0 0 0 .27-.28v-.08l-.55-.13v.08a.28.28 0 0 0 0 .27zm-.56 2.27l.23.27a3.2 3.2 0 0 0 2 .6l.83.07-.6-.24a7.46 7.46 0 0 0-1.14-.32 10 10 0 0 1-1-.27zm-1-3.32h.13a.76.76 0 0 1 .19.05.81.81 0 0 0 .26.06.21.21 0 0 0 .22-.24v-.08h-.24a1.11 1.11 0 0 0-.27-.05.25.25 0 0 0-.26.19zm-.24 3.16l.17-.17h-.41a.73.73 0 0 0-.22-.05.18.18 0 0 0-.19.14v.11h.12a.25.25 0 0 1 0 .06.22.22 0 0 0 .14.23h.1v-.1h.09a.17.17 0 0 0 .18-.11v-.09zm-.1-1.73a1.6 1.6 0 0 0-.72-.26.15.15 0 0 0-.15.07.14.14 0 0 0 0 .15h.11a.5.5 0 0 1 .32.11.52.52 0 0 0 .26.1.25.25 0 0 0 .17-.07l.07-.07zm-2.28-1l.31.11a8.56 8.56 0 0 0 1.48.42h.33v-.09c0-.09 0-.11-.28-.18l-.31-.1-.25-.1a1.82 1.82 0 0 0-.73-.2h-.24zm-1.76-.71l-.26.16h.31a2 2 0 0 1 .39.09 1.81 1.81 0 0 0 .48.1.4.4 0 0 0 .21-.05l.27-.16h-.31a1.93 1.93 0 0 1-.39-.09 1 1 0 0 0-.71-.11zm-1.72-.42l.37.06a2 2 0 0 1 .3.1 2.14 2.14 0 0 0 .73.19h.37l-.15-.12a2.16 2.16 0 0 0-1.05-.31.63.63 0 0 0-.2 0zm-2 1.69l-.39-.09a.16.16 0 0 0 0-.07.16.16 0 0 0-.12-.05h-.11v.11c0 .31.39.36.72.4a1.61 1.61 0 0 1 .46.1h.07l.05-.06a.13.13 0 0 0 0-.13c0-.08-.18-.15-.68-.21zm-1.68-2.59h.25a1.48 1.48 0 0 1 .33.08 1.45 1.45 0 0 0 .4.09.32.32 0 0 0 .21-.07l.19-.16h-.25a1.39 1.39 0 0 1-.33-.08c-.24-.07-.48-.13-.61 0zm-.28 4.5h.22a1.27 1.27 0 0 1 .29.07 1.27 1.27 0 0 0 .45.08.28.28 0 0 0 .21-.08l.16-.16h-.22a1.21 1.21 0 0 1-.29-.07c-.22-.07-.46-.12-.57 0zm-.35-.33a.77.77 0 0 0-.58-.21c-.2 0-.33.07-.35.19v.09l1 .22v-.09a.23.23 0 0 0-.03-.21zm-1-3.8c1 .39.4-.25 0 0zm-1 4.74l-.1-.06v.11a.21.21 0 0 0 0 .21c.12.17.47.22.64.22s.23 0 .24-.05l.12-.09-.13-.07a1.23 1.23 0 0 0-.34-.11 1.28 1.28 0 0 1-.39-.17zm-.54-.31a5.75 5.75 0 0 0-1.35-.36.3.3 0 0 0-.21.06l-.16.14h.21a3.09 3.09 0 0 1 .78.21 2 2 0 0 0 .76.17h.6zm-.67-3.19c0 .2.91.31 1.08.31v-.1h.12-.12v-.07a2.82 2.82 0 0 1-.92-.19v-.07a.14.14 0 0 0-.1 0zm-.09 6.84l.35.12a1.12 1.12 0 0 0-.56-.2zm-2.66-3.64h-.17v.24h.26a.24.24 0 0 1 0-.21zM169.38 56c.29.05.59.12.85.18a1.68 1.68 0 0 0-.73-.19zm-1.25 12.5c2.1.39 4 .89 5.88 1.41l-.2 1.06h-.11a.63.63 0 0 0-.18 0 .34.34 0 0 0-.3.2l-.12.2h.22a.73.73 0 0 1 .24 0h.19l-.45 2.38h-5.76a.72.72 0 0 0 0-.14v-.06h-.06a4.24 4.24 0 0 1-.48-.18 2.86 2.86 0 0 0-1-.28.62.62 0 0 0-.43.15l-.08.07.07.07a1.58 1.58 0 0 0 .72.37h.11-10.13a.21.21 0 0 0 .08-.08l.05-.12h-.13a.61.61 0 0 1-.19-.08.5.5 0 0 0-.24-.09.26.26 0 0 0-.23.17l-.06.14h.16a.74.74 0 0 1 .19 0h.08-.73a1.13 1.13 0 0 0-.43-.12.47.47 0 0 0-.3.12h-6.93c-.32-.14-.63-.25-.93-.35a9.24 9.24 0 0 1-1.17-.46l-.28-.14.15.28a2.22 2.22 0 0 0 1.2.71H145l1.39-7.37 1.14.35a15.94 15.94 0 0 0 3.15.79h.29l-.22-.19a1.61 1.61 0 0 0-.83-.33h-.18a.57.57 0 0 1 .41-.06v-.18c.44.15.86.3 1.25.47h.09c.14 0 .16-.16.16-.24.06 0 .11.06.17.15s.1.15.19.15a.16.16 0 0 0 .13-.07v-.07a9.15 9.15 0 0 1 2.11.6 9.27 9.27 0 0 0 1.78.52h.74l-.29.15h.33a4.09 4.09 0 0 1 .81.17 2.07 2.07 0 0 0 .65.11.24.24 0 0 0 0 .2.22.22 0 0 0 .18.07h.08v-.07a.16.16 0 0 0 .1.12h.08v-.08h.12a2.31 2.31 0 0 1 .64.18 3 3 0 0 0 .94.24.69.69 0 0 0 .29-.06c.07.24.38.31.65.37a1.1 1.1 0 0 1 .45.17l.09.09.06-.12a.3.3 0 0 0 0-.15c.26.07.53.12.81.18a10.29 10.29 0 0 1 1.25.29h.12V70a.33.33 0 0 0-.12-.29l.58.18c.34.12.7.24 1.1.34h.19l-.08-.18c-.19-.46-1.07-.64-1.72-.77l-.44-.1h-.08v.08a.18.18 0 0 0 0 .11c-.08 0-.14-.08-.15-.15v-.08h-.08a10 10 0 0 1-2.32-.41v-.09l-.07.07c-.58-.16-1.19-.34-1.79-.52-.85-.25-1.65-.49-2.32-.64a9.17 9.17 0 0 0-1.3-.21l-.61-.07a16.72 16.72 0 0 1-2.44-.64 19.16 19.16 0 0 0-1.93-.54c-.74-.15-1.56-.36-2.42-.57l-1.7-.42.31-1.65a3.35 3.35 0 0 0 .92.19.78.78 0 0 0 .36-.07l.23-.12-.25-.07-.63-.19-.55-.16.88-4.71 2 .53a.15.15 0 0 0-.06.15c0 .08.12.1.21.12.74.13 1.34.28 1.93.44l.65.16a.5.5 0 0 0 .19 0l.3.07.39.09-.18-.12.48.08a5.55 5.55 0 0 1 2.32.73 4.78 4.78 0 0 1 .82 0l-.57 4.43H156l-.58-.11.52.29.25.11v.1c-.6-.16-1.21-.35-1.85-.56-1-.32-2.06-.65-3.13-.88a.21.21 0 0 0-.15.12.19.19 0 0 0 0 .16h-.18a3 3 0 0 1-.49-.13l-.1-.14a1.29 1.29 0 0 1-.83-.07 2.83 2.83 0 0 0-.72-.14.78.78 0 0 0-.42.11L148 64l.22.06a3.24 3.24 0 0 1 .94.43 4.27 4.27 0 0 0 .66.35.28.28 0 0 0 .15-.3l.79.13a9.32 9.32 0 0 1 2.71.7l-.32-.09a10.49 10.49 0 0 0-2.61-.53 2.35 2.35 0 0 0-.61.07h-.08v.08c0 .37.22.42.34.42a1.28 1.28 0 0 0 .54-.2l1 .33a13.83 13.83 0 0 0 4.43 1.05h.78l-.23-.15a1.76 1.76 0 0 0-.28-.15c.21.07.43.14.64.18a.25.25 0 0 0-.05.15v.14h.13c.2-.06.34.06.51.21a1.3 1.3 0 0 0 .38.26 3.3 3.3 0 0 0 .95.17 3.4 3.4 0 0 1 1.08.22 10.11 10.11 0 0 0 1.66.53l.71.19a2.2 2.2 0 0 1 .36.17 1.37 1.37 0 0 0 .59.21.52.52 0 0 0 .4-.19l.09-.1-.12-.05a10.49 10.49 0 0 0-1.24-.4l-.79-.23c.6.14 1.1.28 1.69.45l1 .29h.09v-.09a.29.29 0 0 0 0-.25V68a22.79 22.79 0 0 1 2.36.4zm-15.08-7.45l.11.18c.24.39 1.12.55 1.43.55h.12l.44-.1-.44-.1a2.88 2.88 0 0 1-.71-.26 2.34 2.34 0 0 0-.73-.24zm-3.05-.56a.85.85 0 0 0 .47.16.25.25 0 0 0 .15 0l.39.14a5.88 5.88 0 0 0 1.88.43V61a3.44 3.44 0 0 1-.73-.22 3.18 3.18 0 0 0-1.07-.28 1.05 1.05 0 0 0-.26 0l-.24.06c0-.11-.05-.2-.12-.27l-.15-.13v.17h-.08a.52.52 0 0 0-.18 0 .16.16 0 0 0-.16.16zm-.5 1.23h.14a.53.53 0 0 1 .22.09.72.72 0 0 0 .4.13h.06v-.05a.21.21 0 0 0 0-.21c-.09-.16-.38-.2-.52-.2s-.22 0-.26.09zm-.62 1.28a.28.28 0 0 0 .22-.08l.05-.06v-.06a1 1 0 0 0-.63-.25.28.28 0 0 0-.22.08l-.05.06v.06a1 1 0 0 0 .63.25zm.11 8.57h.5a2 2 0 0 1 .8.21l.19.08-.07-.2a1 1 0 0 0-.86-.49.52.52 0 0 0-.51.28zm-2-2.76v-.11l-.62-.15-.06.25v.12h.28a.72.72 0 0 0 .22.05.19.19 0 0 0 .15-.06.25.25 0 0 0 .04-.14zm.95 4.41a.33.33 0 0 0-.29-.12.55.55 0 0 0-.42.17l-.08.12.77.18v-.08a.27.27 0 0 0 .08-.31zm2.65-.61h-.15l-.28-.1a2.44 2.44 0 0 0-.79-.2.76.76 0 0 0-.45.14l-.23.16h.28a2.53 2.53 0 0 1 .54.13 2.37 2.37 0 0 0 .63.14.45.45 0 0 0 .34-.12zm1.82-4.9v-.05c-.08-.15-.29-.19-.49-.23h-.28v.12a.6.6 0 0 0 .42.67l.18.06V68a.36.36 0 0 0 .22-.15zm6.59 1.65h-.49a2.1 2.1 0 0 1-.72-.17 1.72 1.72 0 0 0-.95-.13h-.19l.14.14a1.78 1.78 0 0 0 1.19.42 1.62 1.62 0 0 0 .56-.09zm1 .48c-.06-.13-.24-.15-.37-.17h-.08v.07a.31.31 0 0 0 0 .27.41.41 0 0 0 .33.16h.07v-.06a.29.29 0 0 0 .05-.27zm3.06 1a1.5 1.5 0 0 1 .48.17l.27.17-.12-.29a.81.81 0 0 0-.71-.47 1.18 1.18 0 0 1-.49-.17l-.28-.21.13.32c.1.35.39.42.66.49zm.76 2.19h-.26a.52.52 0 0 1-.31-.15.47.47 0 0 0-.29-.14.31.31 0 0 0-.25.15v.12a1.15 1.15 0 0 0 .7.26.33.33 0 0 0 .22-.07zm.84.07a.39.39 0 0 0-.33-.18.27.27 0 0 0-.28.29v.08h.07a1.09 1.09 0 0 0 .28.05.26.26 0 0 0 .27-.18zm2.62-4.1l-.07-.1a.75.75 0 0 0-.53-.23.27.27 0 0 0-.29.19v.07h.06a.92.92 0 0 0 .46.12.72.72 0 0 0 .27-.05zm1 3.58l.09.1a1.08 1.08 0 0 0 .65.25.29.29 0 0 0 .31-.18v-.05a.68.68 0 0 0-.53-.2 1 1 0 0 0-.38.07zm-11.9-7.08l.69.16-.34-.11h-.14zm3.24.39h.19l-.11.15a.45.45 0 0 1-.39.17 1.57 1.57 0 0 1-.31 0 2.68 2.68 0 0 0 1 .22 1.77 1.77 0 0 1 1.31.48c0-.06 0-.19.17-.19h.07c.79.16 1.7.38 2.66.62 1.13.28 2.29.56 3.36.77a4.62 4.62 0 0 1-1-.42l-.11-.07.11-.11a1.11 1.11 0 0 1 .56-.33 16.09 16.09 0 0 1-2.78-1.16l-.22-.12.25-.06a1.33 1.33 0 0 1 .31 0 3.88 3.88 0 0 1 1.43.41l.55.22.31.09c.4.1.89.22.88.76v.14h-.13l-.29-.1a3.51 3.51 0 0 0 1.62.85 7 7 0 0 1 1.38.56.31.31 0 0 1 0-.06v-.17h.09a33.19 33.19 0 0 0 3.42 1l.52-2.78h-.15v-.08a.26.26 0 0 1 .23-.17l.15-.8h-17a8.66 8.66 0 0 0 1.96.14zm14.63-13.49l.43.16.25.06.3.06.07-.35h-1.21zm0 .39c.29 0 .58.1.88.17l-1.32 7h-16.67l-.05.27c-3.26-.76-6.21-1.49-9.13-2.36l.3-1.59.91.27a20.47 20.47 0 0 0 3 .77h.11a1.73 1.73 0 0 0 .38.06c.32 0 .38-.2.39-.32-.13-.3-1-.43-2-.55l-.39-.05v-.08h-.08c-.8-.15-1.55-.31-2.29-.47L150 47a14 14 0 0 1 1.43.33c.31.08.63.17.94.24h-.11l-.24.11.25.07a20.76 20.76 0 0 0 2.89.55 20.81 20.81 0 0 1 2.43.44l-.1.08-.12.13h.17c.55.12 1.06.25 1.57.39l-.54 2.85h14.51a.41.41 0 0 0 .12.1l.1.07v.09h.12c.33.21.58.26.91.3zM153 56.55l-.13-.12a2.37 2.37 0 0 0-1.25-.3c-.23 0-.27 0-.29.05l-.17.15h.23a3.54 3.54 0 0 1 .54.13 2.79 2.79 0 0 0 .71.14.67.67 0 0 0 .2 0zm-3 .64a.37.37 0 0 0-.47-.11.31.31 0 0 0 0 .27.54.54 0 0 0 .41.19h.06v-.07a.34.34 0 0 0 0-.29zm18.76-2.42h.07a.38.38 0 0 0 .23 0h.09a.4.4 0 0 0-.32.31v.08h.08a.52.52 0 0 0 .19 0 .47.47 0 0 0 .36-.21v-.11a.3.3 0 0 0-.19-.13v-.07a.29.29 0 0 0-.26-.41H169v.12a.38.38 0 0 0-.11.27zm-12.18-2.63h.23a1.74 1.74 0 0 1 .54.17 1.55 1.55 0 0 0 .6.17.67.67 0 0 0 .18 0l.07.08c.66.72 3.13 1.21 4.48 1.39v-.19c-1.34-.36-3.2-.89-4.41-1.35l-.19-.07a1 1 0 0 1-.37-.16 1.39 1.39 0 0 0-.65-.25.49.49 0 0 0-.34.13zm1 6.54c.54.31 1-.06 0 0zm-.22.12a.27.27 0 0 0 .25-.17l.06-.12h-.13l-.26-.06a2.66 2.66 0 0 0-.55-.11.22.22 0 0 0-.19.08.18.18 0 0 0 0 .18l.06.11.09-.08c.08-.07.21 0 .34.07a.72.72 0 0 0 .34.11zm1.29.83c0-.21-.84-.23-.85-.23a1 1 0 0 0-.37.06l-.28.11.29.07.26.06h.11a1.13 1.13 0 0 1 .28 0h.38s.18.05.18-.06zm2-1.76l-.54-.1a2.44 2.44 0 0 1-.39-.12 1.5 1.5 0 0 0-.51-.12.66.66 0 0 0-.48.21l-.21.21h.29a2.47 2.47 0 0 1 .6 0 3.82 3.82 0 0 0 .48 0h.21zm1-.24c-.05-.08-.15-.1-.26-.12a1.16 1.16 0 0 1-.27-.08h-.09v.09a.23.23 0 0 0 0 .22c.06.11.21.13.35.15a.66.66 0 0 1 .2 0l.12.07v-.13a.25.25 0 0 0-.08-.19zm2.59-1.14l-.1-.06a3 3 0 0 0-1.29-.46.61.61 0 0 0-.37.1l-.15.11.17.06a1 1 0 0 1 .35.25 1.56 1.56 0 0 0 .26.22l.14.08v-.16c0-.1 0-.1.09-.1a1.1 1.1 0 0 1 .27.06c.21.06.43.1.54 0zm1.38.39c0-.11-.09-.14-.37-.2a1.41 1.41 0 0 1-.33-.08c-.24-.07-.48-.13-.61 0l-.07.06.05.07c.14.2 1 .27 1.13.27s.16 0 .17-.11zm1.76 1h-.28a1.74 1.74 0 0 1-.36-.09c-.25-.07-.51-.14-.65 0l-.23.16h.28a1.75 1.75 0 0 1 .36.09 1.61 1.61 0 0 0 .44.09.36.36 0 0 0 .21-.06zm.34-2l-.17-.24a1.55 1.55 0 0 0-1.44-.52h-.36l.32.17a4 4 0 0 0 .9.34l.47.14zm3.9 2.78a1.7 1.7 0 0 0 .35 0l.62-.13-.63-.07a11.94 11.94 0 0 1-1.46-.31 8.53 8.53 0 0 0-1.59-.31h-1l.94.21c.33.07.68.18 1 .29a6.17 6.17 0 0 0 1.74.3zm-.22-.49a.83.83 0 0 1 .34.12.78.78 0 0 0 .34.12.32.32 0 0 0 .27-.16l.08-.12h-.14A1.5 1.5 0 0 1 172 58a1 1 0 0 0-.4-.11.53.53 0 0 0-.3.1l-.26.18zm2.38 1l-.12-.08a3.13 3.13 0 0 0-1.32-.41.38.38 0 0 0-.28.08l-.15.15h.22a2.13 2.13 0 0 1 .69.22 1.61 1.61 0 0 0 .6.18.44.44 0 0 0 .25-.07zm.37-1.93h-.08a.64.64 0 0 0 0-.49.14.14 0 0 0-.12-.07.24.24 0 0 0-.17.11l-.06.07a3.8 3.8 0 0 1-1-.23 3.79 3.79 0 0 0-1.12-.24h-.36l.06-.05.1-.13h-.17a7 7 0 0 1-.7-.16 4.47 4.47 0 0 0-.91-.19.27.27 0 0 0-.2.06l-.17.16a5.37 5.37 0 0 0-.68-.07v.2a4.1 4.1 0 0 1 .66.19 3.4 3.4 0 0 0 1.12.26 1.56 1.56 0 0 0 .37 0l.29-.07.33.06a8.79 8.79 0 0 1 1.24.34 6.31 6.31 0 0 0 1.38.35h.04l-.07.06a.32.32 0 0 0-.14.13v.09h.15a.39.39 0 0 0 .27.11h.07v-.07c.1-.3-.06-.41-.16-.45zM99.37 63.5a.66.66 0 0 1-.4.13 2 2 0 0 1-.72-.2 3.57 3.57 0 0 0-.68-.23l-.27-.05.24-.13a.66.66 0 0 1 .14 0l-.3-.07h-.08V63a.23.23 0 0 1-.2.16H97a.18.18 0 0 1-.16-.07h-.08c-.06 0-.06 0 0 .1v.14h-.14a.18.18 0 0 0-.12 0h-.1a.23.23 0 0 1-.18-.12l-.06-.21.08-.06.1-.09a.64.64 0 0 1 .36-.2c-.85-.16-1.69-.36-2.51-.58l-1.31 7 1 .23c1.66.39 3.54.83 5.41 1.44h.06v.07a.24.24 0 0 1-.18.27.66.66 0 0 0 .25.06c.16 0 .35 0 .4.29a.3.3 0 0 1 .22-.15.13.13 0 0 1 .1 0l.26.06c.37.07.52.11.54.22a.14.14 0 0 1-.08.14l-1-.24v.09h-.13c-2.47-.81-4.74-1.42-6.91-2L92 73.69h4.15v-.17h.11l.14.05c.06-.09.17-.14.5-.07h.1v.05a.35.35 0 0 1 0 .08h.71-.25v-.09a.23.23 0 0 1 .25-.22 1 1 0 0 1 .32.08.93.93 0 0 0 .25.07h.31l-.23.18h-.1 3.44l.42-2.26a4.77 4.77 0 0 1-1-.48l-.41-.27a.24.24 0 0 1 0 .17v.08l-.74-.17v-.11c0-.13.26-.16.38-.16a.38.38 0 0 1 .32.13l.51.15 1 .29 1.26-6.71-4-1zm1.89 1a.19.19 0 0 1 .15-.06.73.73 0 0 1 .23.05h.36l-.13.16a.39.39 0 0 1-.31.13 1 1 0 0 1-.29-.05h-.07v-.03a.25.25 0 0 1 .07-.19zm.08-25.22l.5.17h-.79a9.37 9.37 0 0 1-2.54-.38l-1.92 10.31h.17l.25.06c1.45.39 2.92.69 4.35 1s2.83.57 4.27 1l.28.09 1-5.4-.37-.07h-.27l.23-.14a.65.65 0 0 1 .45 0l.69-3.68h-.08a2.26 2.26 0 0 1-.71-.17 1.93 1.93 0 0 0-.78-.16h-.31l.24-.2c.22-.19.65-.09 1.11.05a5.71 5.71 0 0 0 .59.15l.57-3.05h-8.79a14.74 14.74 0 0 1 1.87.43zm-1 5.39l1.13.26v.1c0 .08-.11.17-.37.17a1 1 0 0 1-.69-.24.23.23 0 0 1-.05-.2zm-2.53.73v.11l-.13-.13c-.09-.08-.08-.15-.07-.19s.19-.1.24-.1a1.27 1.27 0 0 1 .44.09h.07v.08a.22.22 0 0 1-.23.2.66.66 0 0 1-.35-.05zm1.1.33a1.42 1.42 0 0 0-.52-.17h-.26l.2-.17c.12-.11.37 0 .69.06a2.45 2.45 0 0 0 .66.15h.28l-.16.18a.43.43 0 0 1-.33.14 1.43 1.43 0 0 1-.6-.19zm1.86 3.53a.8.8 0 0 1-.42.1.74.74 0 0 1-.52-.16.28.28 0 0 1-.07-.22v-.11l1.15.27zm2.94 1.36a.34.34 0 0 1-.29.19h-.18v-.1a.84.84 0 0 0 .06-.24l-.19.06-.33.12.22-.27a.65.65 0 0 1 .62-.24h.05a.51.51 0 0 1 0 .49zm1.78.5c-.91 0-1-.34 0 0zm.82-9.83l-.21.15a.53.53 0 0 1-.31.09.89.89 0 0 1-.52-.18.13.13 0 0 1 0-.12c.06-.08.18-.06.4 0a2.85 2.85 0 0 0 .4.08zm-.53-1.95c-.79.06-1-.33 0 0zm-3.22 6.34a5 5 0 0 1 2 .38c.33.11.66.22 1 .31l.5.12-.51.07h-.18a4.84 4.84 0 0 1-1.37-.33 7.38 7.38 0 0 0-1.42-.37zm1.74 1.14l.37.15h.11a7.05 7.05 0 0 1 1.24.19 1 1 0 0 1 .23.1 1 1 0 0 0 .36.12v.19a7.5 7.5 0 0 1-1.83-.34c-.06 0-.14-.06-.15-.14l-.39-.07a17.66 17.66 0 0 1-4.24-1.16l.08-.18a15 15 0 0 0 2 .52 14.43 14.43 0 0 1 2.18.63zm-7.4 15.9zM98.18 50l-1.64-.38-1.07 5.69 2.73.62.3.07v.19a5.08 5.08 0 0 0-1 0h-.61a2.89 2.89 0 0 1-.65-.06 1.73 1.73 0 0 1-.3-.1.19.19 0 0 1-.16.06 1.79 1.79 0 0 1-.4-.07L95 57.63a3.71 3.71 0 0 1 .7.13 5 5 0 0 0 .84.17L97 58l-.22.08a46.1 46.1 0 0 1 4.5 1l1.55.4.42.1-.42.09a2.52 2.52 0 0 1-1-.15l-.52-.13.13.07h.07l.27.13-.3.05h-.31a5.31 5.31 0 0 1-1.5-.32l-.5-.15-.27-.07.26-.11a1 1 0 0 1 .51-.05c-.34-.09-.7-.16-1.05-.22a8.63 8.63 0 0 1-2-.55l-.12-.06a1.6 1.6 0 0 1-.33 0A4 4 0 0 1 95 58l-.68 3.6 9 2.2.26.06.7-3.71-.33-.1a5.4 5.4 0 0 0-.62-.18h-.21l.17-.13a.31.31 0 0 1 .19 0 4.23 4.23 0 0 1 .87.17l.25-1.34a.53.53 0 0 0-.39-.06.13.13 0 0 1-.06-.15.1.1 0 0 1 0-.06 9.24 9.24 0 0 0-1.09-.29.24.24 0 0 1-.06.13c-.11.12-.33.07-.67 0l-.3-.09.11-.12a.31.31 0 0 1 .26-.08l-.55-.16h-.08l-.07.05c-.13.1-.23.17-.31.17a.12.12 0 0 1-.1-.05.15.15 0 0 1 0-.1l-.3-.07v-.09a.16.16 0 0 1 .09-.13c-.28-.05-.56-.09-.82-.12v.23h-.08l-1.63-.38h-.08V57a.36.36 0 0 1 0-.07h-.16a.15.15 0 0 1-.14-.08.12.12 0 0 1 0-.05 1.09 1.09 0 0 1-.34 0h-.46v-.13a.54.54 0 0 1-.5 0l-.12-.07.1-.09a1.26 1.26 0 0 1 .87-.27 8.22 8.22 0 0 1 1.94.38c.39.11.8.22 1.18.29a22.77 22.77 0 0 1 3.38.87 1.52 1.52 0 0 1 .59 0v-.05h-.06a2 2 0 0 0-.33-.12h-.23l.19-.13a.39.39 0 0 1 .22-.06 1.14 1.14 0 0 1 .26 0l.45-2.38a4.09 4.09 0 0 1-.59-.17l-.38-.12h-.12l.06-.11a.42.42 0 0 1 .41-.23 2.38 2.38 0 0 1 .67.15l.49-2.64a26.14 26.14 0 0 0-3.34-.77A24.43 24.43 0 0 1 98.18 50zm.41 3a1.26 1.26 0 0 1-.27 0 4.55 4.55 0 0 1-1.23-.26 6.19 6.19 0 0 0-.79-.21s-.09-.09-.06-.17a.12.12 0 0 1 .12-.07h.13a1.44 1.44 0 0 0 .23 0v-.2l.16.1a4.13 4.13 0 0 0 1.17.41 5.79 5.79 0 0 1 .63.17l.32.11zm1.91-2a4.91 4.91 0 0 0-.63-.15l-.58-.08.58-.12a2.63 2.63 0 0 1 1 .15 4.9 4.9 0 0 0 .64.15l.58.07-.57.12h-.19a3.47 3.47 0 0 1-.83-.09zm.5 2.32a.23.23 0 0 1-.06-.2v-.1l1.14.26v.1c0 .08-.11.17-.37.17a1 1 0 0 1-.71-.17zm2.86 3.72a.48.48 0 0 0-.17.22v.1l-.66-.15.12-.13a3.35 3.35 0 0 1 .34-.3 2.75 2.75 0 0 0 .38-.34l.09-.1.07.11c.16.35-.03.55-.17.65zm-.24-3l.44.07h.17l-.11.14a.46.46 0 0 1-.38.19 1.49 1.49 0 0 1-.49-.13 1.23 1.23 0 0 0-.63-.12l-.72.14.66-.33a1.93 1.93 0 0 1 1.06.14zM90.58 62a.14.14 0 0 0 0-.08zM64.94 72.33h-.25l1.36.39-.13-.11a1.38 1.38 0 0 0-.98-.28zm24.34-32.18a19.77 19.77 0 0 1 2.18 1.23c-.23.57-.48 1.12-.75 1.67l-.34-.11-.81-.32.71.49.31.19-.12.24a1 1 0 0 0-.61-.35.52.52 0 0 0-.3.1l-.1.07.1.08a3 3 0 0 0 .76.42 26.21 26.21 0 0 1-3.75 5.36 14.89 14.89 0 0 0-7.49-2.94l.28-.12-.35-.07a2 2 0 0 1-.39-.12 1.74 1.74 0 0 0-.61-.15.7.7 0 0 0-.32.07h-.08a2.88 2.88 0 0 0-1.6-.49h-.2l.12.16a1.23 1.23 0 0 0 .9.38 1.86 1.86 0 0 1 .64.16l.23.13c-2.16.08-3.4 1-3.62 2.23v.1a2.4 2.4 0 0 0 0 .47c-.34 0-.71-.08-1.11-.11v-.08h-.08a.38.38 0 0 0-.23 0 .16.16 0 0 1-.1 0h-.07v.06a.24.24 0 0 0 0 .22c0 .1.16.12.26.13h.21v-.19a4.55 4.55 0 0 0 1.33.59 1.58 1.58 0 0 0 .35.45c-.51-.1-1-.24-1.57-.38l-.2-.05c-.62-.16-1.25-.35-1.86-.52a20.77 20.77 0 0 0-4.81-1l-.19-.08a2.14 2.14 0 0 0-1.33-.59 12.5 12.5 0 0 1 1.38-2.79 3.87 3.87 0 0 0 2 .64l-.12.06.1.09A2.07 2.07 0 0 0 69 46a.28.28 0 0 0 0 .16.64.64 0 0 0 .5.23.34.34 0 0 0 .22-.07c0-.24-.26-.31-.5-.35a.28.28 0 0 0 0-.15v-.08h-.08l-.21-.1a2.43 2.43 0 0 0-.45-.19 1.15 1.15 0 0 0 .32-.1l.19-.1-.09-.25a9.38 9.38 0 0 0-2.47-.71c.36 0 .73.06 1.09.06A12.79 12.79 0 0 0 73.4 43h.06a6.36 6.36 0 0 1 1.43.32 6.7 6.7 0 0 0 1.14.28.77.77 0 0 0-.28.09l-.23.14h.27a5.28 5.28 0 0 1 .69.18 3.38 3.38 0 0 0 1 .2 1.22 1.22 0 0 0 .44-.07l.4-.15h-.42a3.91 3.91 0 0 1-.87-.22 4.25 4.25 0 0 0-.54-.15h.32l.71-.08-.71-.12A13.69 13.69 0 0 1 75.1 43a10 10 0 0 0-1.17-.3l.3-.17a13 13 0 0 0 1.21-.85c0 .08.15.14.34.15a11.13 11.13 0 0 1 2.39.58 9.28 9.28 0 0 0 2.68.58h.57l-.28.13.3.05.26.06a1.93 1.93 0 0 0 .46.08.36.36 0 0 0 .37-.22l.05-.12h-.28a4 4 0 0 0-.47 0 1 1 0 0 0-.37.06l-.34-.15a18.86 18.86 0 0 0-2.3-.78 13 13 0 0 1-2.63-1l.09-.08a.59.59 0 0 0 .24-.11l.16-.14h-.16a12.86 12.86 0 0 0 1.87-2.39h1.35A21.26 21.26 0 0 1 88.88 40H89a.67.67 0 0 0 .28.15zm-22.44 6.53a.94.94 0 0 0 .34-.06l.34-.13-.37-.05a4.71 4.71 0 0 1-.54-.13 1.68 1.68 0 0 0-1.11-.07l-.21.12.24.06.25.06a4.62 4.62 0 0 0 1.06.2zm1.06 1l-.22-.15a1.58 1.58 0 0 0-.85-.32.92.92 0 0 0-.33.06l-.34.13.36.06a2.78 2.78 0 0 1 .39.11 2.1 2.1 0 0 0 .63.15h.09zm1.41-.75l-.2-.05-.24-.07a3.75 3.75 0 0 0-.93-.21.43.43 0 0 0-.25.06l-.26.17h.32a1.59 1.59 0 0 1 .43.13 2 2 0 0 0 .66.17.52.52 0 0 0 .3-.08zm1.58 1.28l-.09-.1-.05.08h-.1a1.09 1.09 0 0 0-.23 0 .35.35 0 0 0-.25.09l-.12.11.15.05a2 2 0 0 0 .53.1s.17 0 .21-.1a.17.17 0 0 0-.04-.22zm1.19-.57h-.13a.8.8 0 0 1-.2-.09.67.67 0 0 0-.29-.1.27.27 0 0 0-.25.17l-.07.14h.15a.55.55 0 0 1 .25.1.5.5 0 0 0 .24.09.27.27 0 0 0 .24-.17zm6.64-3.72l.52.12h.22a3.14 3.14 0 0 0 1.24.24h.3v-.08a.29.29 0 0 0 0-.22.13.13 0 0 0-.1 0 3.38 3.38 0 0 1-.82-.14 2.07 2.07 0 0 0-1-.11zm3.35 2.68l-.44-.16a8.37 8.37 0 0 1-1-.45 4 4 0 0 0-1.79-.61 1.6 1.6 0 0 0-.92-.44l-.36-.1c-.36-.11-.73-.27-1.1-.42a5.3 5.3 0 0 0-1.76-.53 1 1 0 0 0-.35.06l-.21.08.2.1a6.73 6.73 0 0 0 2.57.85 1.9 1.9 0 0 0 1 .5 1.42 1.42 0 0 1 .83.39 5.18 5.18 0 0 1 1.5.4 3.69 3.69 0 0 0 1.14.31h.06zM82 40.73h.32a1.83 1.83 0 0 1 .45.12 1.06 1.06 0 0 0 .37.09.55.55 0 0 0 .26-.07l.17-.09-.17-.09a2 2 0 0 0-.8-.22.66.66 0 0 0-.31.07zm.83 1.27l.16-.15h-.21a3.8 3.8 0 0 1-.45-.11 2.78 2.78 0 0 0-.58-.12.19.19 0 0 0-.15.06.14.14 0 0 0 0 .12v.06h.07A1.74 1.74 0 0 1 82 42a1.36 1.36 0 0 0 .5.14.44.44 0 0 0 .33-.14zm.76 3.12a.3.3 0 0 0-.09-.21 1 1 0 0 0-.61-.23.27.27 0 0 0-.25.1.2.2 0 0 0 0 .2v.07h.08a1.39 1.39 0 0 1 .71.18l.13.05zm1.91 1.27h-.09a.4.4 0 0 0-.45.17.3.3 0 0 0 0 .31h.14c.24 0 .29-.28.32-.44zm.91-3.79l-.41-.11a6.18 6.18 0 0 0-1.4-.25 1.18 1.18 0 0 0-.47.08l-.19.08.18.1a2.18 2.18 0 0 0 1.27.23l-.15.14h.36a1 1 0 0 0 .61-.19zm2.84-1.87a.15.15 0 0 0 0-.07.15.15 0 0 0-.11 0h-.3l.26.21v.05h.08l.09.09a1.43 1.43 0 0 0 .7.21c.15 0 .23 0 .24-.13s-.07-.19-.53-.31h-.1a.88.88 0 0 1-.33-.06zm-11.09 5.5a2.64 2.64 0 0 0-.42-.14l.12.15h.3zM90 60.58l-.05.19.69.23v.32a.64.64 0 0 0-.28 0 .25.25 0 0 0-.11.24.5.5 0 0 0 .23.33h-.09v.05c0 .07-.08.08-.11.08a.88.88 0 0 1-.32-.12 1 1 0 0 0-.44-.16.34.34 0 0 0-.22.08l-.11.09.12.07a4.61 4.61 0 0 0 1.27.46c0 .13 0 .24-.05.37v.1a13.15 13.15 0 0 1-1.3 3.74 5.89 5.89 0 0 0-2.46-.56v.2a4.4 4.4 0 0 1 1.53.43 6.13 6.13 0 0 0 .7.28c-.16.28-.32.56-.51.83h-.11a.68.68 0 0 1-.19.07.48.48 0 0 0-.42.35v.09h.09l.23.06a13 13 0 0 1-2.53 2.5l-.56-.18a8.29 8.29 0 0 0-3.19-.88h-.41l-.56.06.55.14a15.81 15.81 0 0 1 1.81.62l.45.17h-.14a2 2 0 0 1-.62-.14 2.31 2.31 0 0 0-.72-.16h-.45l.27.16a2.5 2.5 0 0 0 1.14.47.6.6 0 0 0 .5-.24l.1-.13a11.88 11.88 0 0 0 1.24.39 17.52 17.52 0 0 1-7.59 2.8h.12l.17-.07-.15-.1a2.13 2.13 0 0 0-.79-.23 2.51 2.51 0 0 1-1.32-.5h-.11a.72.72 0 0 1-.5 0 1.17 1.17 0 0 0-.32-.07.31.31 0 0 0-.31.23v.12h.13a4.78 4.78 0 0 1 1.54.42 3.7 3.7 0 0 0 1.16.33 23.53 23.53 0 0 1-2.82.17c-.89 0-1.76 0-2.62-.13l-.7-.15-1.19-.24-.57-.11a.44.44 0 0 0 .34-.17l.13-.17h-.21A2.71 2.71 0 0 1 68 73a2.72 2.72 0 0 0-1.13-.34 1.39 1.39 0 0 0-.35 0h-.09v.09a.36.36 0 0 0 0 .08l-.42-.12v-.21a.22.22 0 0 1 0-.16h.58a.53.53 0 0 0 .41-.04l.11-.08-.11-.08a8.68 8.68 0 0 0-3-.87h-.18a.32.32 0 0 0 0-.09.37.37 0 0 0-.37-.3h-.14a.48.48 0 0 0 0 .38.44.44 0 0 0 .28.21h.06a.34.34 0 0 0 .22-.24l.08.14a1.61 1.61 0 0 0 .66.45 1.72 1.72 0 0 1 .4.23l-.08.05-.36.18-.41-.11a17.79 17.79 0 0 1-2.7-1.56h.12c.21.06.4.08.51-.06l.09-.12h-.15a3.41 3.41 0 0 1-.42-.14 2.77 2.77 0 0 0-.88-.23 15.39 15.39 0 0 1-1.74-1.6 19.22 19.22 0 0 0 4.14-6.36.33.33 0 0 0 .07-.1v-.1a11.69 11.69 0 0 0 .5-1.63l1.87 1.77a15 15 0 0 0 10.53 4.19h.66l.22.05a3.79 3.79 0 0 1 .67.18l.15.07v-.22h.5a3.45 3.45 0 0 0 .38 0 .61.61 0 0 0 .32-.07l.21-.13-.81-.19.45-.17a2.79 2.79 0 0 0 1.15.36.9.9 0 0 0 .4-.11l.19-.11-.21-.07a5.91 5.91 0 0 0-1.18-.27 2.49 2.49 0 0 0 1.3-1.72v-.1c.27-1.44-.72-2.24-5.26-3.34S66.73 58 65 55.29a2 2 0 0 1 .39.09 1.79 1.79 0 0 0 .48.1.41.41 0 0 0 .21-.05l.15-.09-.15-.08a2.16 2.16 0 0 0-.83-.27.35.35 0 0 0-.32.15v.07a7.71 7.71 0 0 1-.79-5.59h.18l.66.06-.8-.33c.07-.36.16-.71.25-1.06h.24l.47-.14h.23l.69.19-.11.06-.1.05-.24.18H66a1.37 1.37 0 0 1 .53.15.79.79 0 0 0 .58.09h.09v-.09a2.89 2.89 0 0 1 .8.22l.4.16a29.44 29.44 0 0 0 3.92.91 29.42 29.42 0 0 1 3.26.73 23.55 23.55 0 0 0 3.9 1.17c4.2 1 7.44 2.16 9.32 4.12-1.1-.25-2.25-.49-3.46-.74h-.17l.06.17a.39.39 0 0 1 0 .14h-.12a.62.62 0 0 0-.27 0l-.2.09.2.08a27.75 27.75 0 0 0 4.8 1.37 6.67 6.67 0 0 1 1 3.54zm-12.75 9.17l-.13.15h.2a1.42 1.42 0 0 1 .32.08 1.45 1.45 0 0 0 .4.09.32.32 0 0 0 .21-.07l.1-.09-.12-.07a1.43 1.43 0 0 0-.68-.23.4.4 0 0 0-.3.14zm-11 .13a.3.3 0 0 0 .1.21.91.91 0 0 0 .6.23.55.55 0 0 0 .4-.15l.15-.15h-.21a1.08 1.08 0 0 1-.36-.13.71.71 0 0 0-.62-.08h-.06zm-1.54-3.58a1.24 1.24 0 0 0-.33-.07.26.26 0 0 0-.27.18v.09l-.21.19h.74a.39.39 0 0 0 .4-.24v-.12H65zm-.45-.52a2.18 2.18 0 0 0-.82-.1h-.08v.08c0 .22.22.35.58.35a.83.83 0 0 0 .54-.15l.11-.12zm-1.08-3.15h.28a1.1 1.1 0 0 0 .27.05.25.25 0 0 0 .26-.19v-.09h-.1a.2.2 0 0 0-.1-.16h-.08v.07h-.15a.32.32 0 0 0-.32.19zM64.74 70l-.51-.06a3.29 3.29 0 0 1-.51-.12 1.66 1.66 0 0 0-.86-.1l-.22.08.21.1a2.59 2.59 0 0 0 1.1.27 1.21 1.21 0 0 0 .31 0zm0-.55a.25.25 0 0 0 0-.27.39.39 0 0 0-.33-.19.23.23 0 0 0-.21.1l-.06.09h.1l.06.05h-.05a.21.21 0 0 0-.2.12.64.64 0 0 0 .44.22.21.21 0 0 0 .2-.12zm5 2.63h-.26a9.1 9.1 0 0 1-2.48-.65 17.47 17.47 0 0 0-1.91-.57l-.27-.06.18.2a2.25 2.25 0 0 0 1.25.65 1.64 1.64 0 0 1 1 .53l.06.1.09-.07c.19-.16.51-.07.86.06a2.4 2.4 0 0 0 .76.18.84.84 0 0 0 .58-.21zm-.61-1.19h.16a1.1 1.1 0 0 0 .27.05.25.25 0 0 0 .26-.19.52.52 0 0 0-.41-.16.33.33 0 0 0-.35.22v.11zm1.25 2v-.08h-.17a1.09 1.09 0 0 0-.26 0 .25.25 0 0 0-.26.19v.08h.08l.06.07a.33.33 0 0 0 .13.14l.13.06v-.14h.06a.22.22 0 0 0 .27-.3zm.73-2h-.23a1.25 1.25 0 0 1-.29-.07c-.22-.07-.46-.12-.57 0l-.12.18h.23a1.21 1.21 0 0 1 .29.07 1.3 1.3 0 0 0 .36.08.28.28 0 0 0 .21-.08zm-.82-2.64l.31.07h.12v-.19c0-.07 0-.36-.25-.39h-.1v.1a.16.16 0 0 1-.05.1.35.35 0 0 0-.1.19v.09zm2.73 5.09l.21-.14h-.26a3.51 3.51 0 0 1-.54-.13 1.87 1.87 0 0 0-.91-.12l-.22.05.2.08-.09.08.1.07a1.76 1.76 0 0 0 1 .22 2.22 2.22 0 0 1 .45 0h.08l.06-.19zm.28-2.18l-.15-.09a1.3 1.3 0 0 0-.55-.2.28.28 0 0 0-.22.11.41.41 0 0 0-.33-.16H72v.07a.31.31 0 0 0 0 .28.41.41 0 0 0 .33.16h.08v-.07a.35.35 0 0 0 0-.06.64.64 0 0 0 .43.15.6.6 0 0 0 .36-.1zm.21-3.05L73 68a.2.2 0 0 0-.22-.19h-.1v.1c0 .07 0 .07-.08.08a.25.25 0 0 0-.22.13l-.06.14h.21a1.24 1.24 0 0 0 .28 0h.16zm1.07.23l-.05-.08-.08.05c-.08.05-.19 0-.3 0a.69.69 0 0 0-.28-.08.33.33 0 0 0-.25.12v.11c.1.17.47.25.68.25s.27 0 .32-.12a.19.19 0 0 0 .01-.22zm.37-.51l.23-.15h-.27a16.45 16.45 0 0 1-2.7-.6A19.47 19.47 0 0 0 69 66.4h-.09a.16.16 0 0 0-.17.12v.09h.09c.51.13 1.05.26 1.63.4.84.2 1.72.41 2.53.65l.4.13a3.05 3.05 0 0 0 1 .24 1.06 1.06 0 0 0 .61-.16zm0 1.26l.22-.05a2 2 0 0 1 .91.07h.08v.06a.38.38 0 0 0-.11.27v.22l.17-.14h.08c.01 0 0 0 .08.05a.38.38 0 0 0 .26.12.42.42 0 0 0 .2-.06l.24-.12-.26-.06a.27.27 0 0 1-.17-.14.64.64 0 0 0-.13-.14h.23a1.08 1.08 0 0 0 .37-.06l.14-.05-.18-.06a2.26 2.26 0 0 0-1.29-.41.76.76 0 0 0-.72.33zm3.46 3.71h-.52v-.06a.8.8 0 0 0 .11-.14v-.1h-.1l-1.23-.5a.29.29 0 0 0 0-.11.5.5 0 0 0-.47-.11h-.16v-.11a.66.66 0 0 1-.07-.24v-.08h-.38a.45.45 0 0 0-.39.17l-.06.1h.1a.29.29 0 0 1 .12.23.3.3 0 0 1 0 .2l-.18.15h.23a2.49 2.49 0 0 0 .43 0h.21a.61.61 0 0 1 .65.43v.08h.08c.1 0 .22 0 .36.13a1.16 1.16 0 0 0 .63.24A.89.89 0 0 0 78 73zM87.86 59v.16a.52.52 0 0 0 .5.45.46.46 0 0 0 .3-.13.34.34 0 0 0 .26.13.3.3 0 0 0 .31-.26v-.09h-.08a1 1 0 0 0-.28-.05.26.26 0 0 0-.21.09.91.91 0 0 0-.46-.18L88 59zm-2.49-1.66v.07h.19a.47.47 0 0 0 .39-.28.48.48 0 0 1 .16-.18l.18-.09-.18-.09a.41.41 0 0 0-.31 0h-.17l-.11-.05v.12a.81.81 0 0 1-.07.19.43.43 0 0 0-.09.31zM85 58.71h.23a.72.72 0 0 1 .45.1.54.54 0 0 0 .26.08.47.47 0 0 0 .32-.15l.15-.14h-.2l-.3-.07a1.87 1.87 0 0 0-.45-.08.38.38 0 0 0-.31.13zm-2.07-5h.59a1.47 1.47 0 0 1 .31.07 1.44 1.44 0 0 0 .39.08.29.29 0 0 0 .29-.17v-.1h-.1a1.56 1.56 0 0 0-.52-.13 1.59 1.59 0 0 0-.42.08zm-2 5.21c.69.31.9-.06 0 0zm-3.66-6.1H77l.17.18a2.35 2.35 0 0 0 1.47.54.8.8 0 0 0 .48-.12 1.69 1.69 0 0 0 1 .31 1.65 1.65 0 0 1 1 .27l.15.12v-.22a.12.12 0 0 1 .05-.09.32.32 0 0 0 .12-.29v-.07h-.07a21.16 21.16 0 0 0-4.1-.66zm1.43 4.85a.3.3 0 0 0-.07.15.62.62 0 0 0 .5.28.61.61 0 0 0 .47-.25l.12-.15h-.19a.67.67 0 0 1-.3-.14.65.65 0 0 0-.34-.15.3.3 0 0 0-.17.06l-.12.1zm-1.57-4.93a.57.57 0 0 0 .25 0l.1-.06-.07-.09a.84.84 0 0 0-.43-.21.83.83 0 0 1-.32-.13l-.09-.09-.06.11a.26.26 0 0 0 0 .28c.11.15.49.16.62.16zm-1-1.11l.18.1a1.4 1.4 0 0 0 .42.16.43.43 0 0 1 .27.11l.19.23v-.28h.23a.53.53 0 0 0 .46-.2l.06-.08-.08-.06a1.64 1.64 0 0 0-.86-.21 2 2 0 0 0-.68.11zM75 53.8h.46a3 3 0 0 1 .85.18 3.11 3.11 0 0 0 .9.19 1.16 1.16 0 0 0 .49-.1l.33-.15h-.35a7.1 7.1 0 0 1-.92-.19 2.27 2.27 0 0 0-1.36-.08zm-1.73 2.63l.09.06a1.65 1.65 0 0 0 .8.21 1.19 1.19 0 0 1 .45.09l.5.26-.39-.41a1.86 1.86 0 0 0-1-.43.43.43 0 0 0-.35.14zM68 49.92l-.25.09.29.11a6.42 6.42 0 0 0 1.83.5h.21l-.08-.16a1.81 1.81 0 0 0-1.43-.63 1.56 1.56 0 0 0-.57.09zm.18.52a.52.52 0 0 0-.4 0 .24.24 0 0 0 0 .22c0 .1.15.11.25.13h.21l.1-.44zm-.85-.44h.13a.34.34 0 0 0 .27-.17.28.28 0 0 1 .08-.09l.21-.1-.22-.08a.42.42 0 0 0-.51.13.25.25 0 0 0 .04.31zm-.88 1.62a8.2 8.2 0 0 0 1.82.31h.59l-.38-.16a3.13 3.13 0 0 0-2-.3l-.35.1zm.2 4.45l-.23-.22v.28c-.06 0-.13 0-.19.06a.23.23 0 0 0 0 .19v.07h.07l.39.09h.09v-.09a.39.39 0 0 0-.13-.38zM68 56a1.61 1.61 0 0 0 .59.16.62.62 0 0 0 .35-.1l.41-.26-.48.09a1.28 1.28 0 0 1-.56-.14c-.31-.12-.64-.21-.82-.07l-.18.14h.22A2 2 0 0 1 68 56zm1.71.71h-.11a1.82 1.82 0 0 1-.41-.1 1.8 1.8 0 0 0-.49-.11.34.34 0 0 0-.31.15l-.09.13h.16a3.17 3.17 0 0 1 .45.1 2.13 2.13 0 0 0 .5.1c.2 0 .26-.12.27-.19zm4.53.79l.26.09a1.39 1.39 0 0 0 .51.12 1 1 0 0 0 .31-.06l.19-.08h-.08l.15-.15h-.54a3 3 0 0 0-.46-.05.66.66 0 0 0-.38.1l-.09.06a.18.18 0 0 0 0-.07.89.89 0 0 0-.68-.27.53.53 0 0 0-.19 0h-.11l-.36-.12a3 3 0 0 0-1-.23 1.31 1.31 0 0 0-.35 0 .22.22 0 0 0 0-.11v-.08h-.12l-.42-.1h-.1v.15a.26.26 0 0 0-.05-.09 1.33 1.33 0 0 0-.85-.24.69.69 0 0 0-.21 0l-.22.08.21.1a2 2 0 0 0 .5.17 3.92 3.92 0 0 1 .5.14h.36a.71.71 0 0 0 .23.05h.07l.1.05a4.19 4.19 0 0 0 1.63.31v.06h.14l.85.2h.06v-.05zm6.66 15.15h.23a.35.35 0 0 1 .17.09.43.43 0 0 0 .24.11.25.25 0 0 0 .19-.1l.09-.11h-.14a.63.63 0 0 1-.18-.11.38.38 0 0 0-.24-.11.32.32 0 0 0-.23.12zm.1-5.91l-.13-.15v.2c0 .13-.09.16-.16.16a1.48 1.48 0 0 1-.46-.14 1.23 1.23 0 0 0-.58-.15h-.09v.09c0 .37.58.53 1 .53.17 0 .47 0 .56-.21a.3.3 0 0 0-.14-.33zm2-.59c.34.48.8.19 0 0zm1.26-.9c0-.1-.07-.18-.51-.25a.24.24 0 0 0-.21-.11h-.14v.13a.66.66 0 0 0 .62.38c.2-.02.24-.1.24-.15zM84.8 63a.25.25 0 0 0 0-.11v-.09h-.08l-.33-.08-.22-.05-.06.25v.12h.12a.63.63 0 0 1 .16 0 .82.82 0 0 0 .21.05l-.31.22.59-.17a.9.9 0 0 1 .28.1 1.52 1.52 0 0 0 .65.19h.2l.54-.13-.55-.06a1.4 1.4 0 0 1-.42-.16 1.33 1.33 0 0 0-.54-.18.46.46 0 0 0-.26.08zm.29 2.29h-.6l.06.14c.11.26.33.26.54.27a1.18 1.18 0 0 1 .43.07l.14.06v-.15c0-.4-.42-.4-.56-.4zm.4 1.89a5.71 5.71 0 0 0 .83-.07v-.2a2.19 2.19 0 0 1-.7-.15 3 3 0 0 0-.87-.19.81.81 0 0 0-.36.08h-.1l.06.09c.15.26.54.43 1.15.43zm.38.31c.66.37.9-.1 0 0zm1.23.69l-.19-.07a5.27 5.27 0 0 0-.71-.22h-.09v-.1a.16.16 0 0 0-.11 0c0 .19.7.43 1 .43v-.1a.56.56 0 0 0 .1.05zm-.58-1.28a.47.47 0 0 0 0 .31v.06h.2a.31.31 0 0 0 .35-.34v-.07H87a.62.62 0 0 0-.48.03zm2-4.92a2.11 2.11 0 0 0 .49 0v-.19a2.94 2.94 0 0 1-.82-.14 1.44 1.44 0 0 0-.88-.07l-.15.08.14.09a2.58 2.58 0 0 0 1.22.25zm.37 2.29a.34.34 0 0 0-.26.13l-.07.08.09.06a.73.73 0 0 0 .43.14.73.73 0 0 0 .3-.07l.23-.11-.25-.08-.18-.07a.72.72 0 0 0-.29-.09zm.5-2.57v-.12c0-.22-.23-.3-.4-.36l-.17-.07.18-.25h-.27a1.14 1.14 0 0 1-.58-.07 2.94 2.94 0 0 0-.39-.1.18.18 0 0 0 0-.16c0-.07-.11-.11-.23-.12a.27.27 0 0 0-.22.18 32.08 32.08 0 0 1-3.7-1l-.92-.29h-.19a12.21 12.21 0 0 1-2.41-.52 18.26 18.26 0 0 0-3.14-.68.21.21 0 0 0-.13.1.19.19 0 0 0 0 .14 3.06 3.06 0 0 0-1.82-.46 1.72 1.72 0 0 0-.44 0h-.14l.09.12a1.83 1.83 0 0 0 1.47.45 1 1 0 0 0 .31.31 1.16 1.16 0 0 1 .21.18v.06h.07a2.69 2.69 0 0 1 1-.16 12.28 12.28 0 0 1 2.73.46c1.06.26 2.13.59 3.17.91 1.33.41 2.59.8 3.78 1h.1l.54.11-.28-.15h.25l.48.13c.24.07.51.15.9.23zm.09-1.57l-.17.06a.53.53 0 0 1-.21 0 .48.48 0 0 0-.4.06l-.06.06.05.07a.7.7 0 0 0 .44.15c.24 0 .3-.15.32-.21zm-13.3-18.6l-.49-.12-.06.05a.66.66 0 0 1 .19 0zm-11.45 6.52h-.22.23zM39.16 14.78l-.19-.12a.57.57 0 0 0-.27-.13.17.17 0 0 0-.12.07v.05h-.07c-.23-.11-.22-.37-.22-.58v-.13a.14.14 0 0 1 0-.08v-.24l.11.13h.08v.15a.51.51 0 0 0 .25.1v-.13a.15.15 0 0 1 .14-.11.22.22 0 0 1 .18.12.47.47 0 0 1 .07.19 4.47 4.47 0 0 1 .91 0 6 6 0 0 0-1.34-3.52 8 8 0 0 0-4.18-2.57h-.33a2 2 0 0 1-.33 0l-.1.42h-.19a.3.3 0 0 1-.23-.11.35.35 0 0 1 0 .29.25.25 0 0 1-.21.09.89.89 0 0 1-.27-.06h-.09v-.19h-.1a1.08 1.08 0 0 1-.26 0h-.1l.33.28a3.93 3.93 0 0 1 .48.44 1.1 1.1 0 0 0 .53-.07h.13v.06a.32.32 0 0 1 .06.29.33.33 0 0 1-.27.15.16.16 0 0 1 0 .15.5.5 0 0 1-.36.15 1.15 1.15 0 0 1-.45-.13.89.89 0 0 0-.41-.11 2.43 2.43 0 0 1-1.81 1.23H30l.34-.23c.86-.57 1.27-1 1.22-1.26a.25.25 0 0 0-.1-.15.31.31 0 0 1-.06.1v.07h-.07a.92.92 0 0 0-.72-.07h-.21l-.13.55-.11-.05a.76.76 0 0 0-.42 0h-.13a.23.23 0 0 1-.17-.07.43.43 0 0 1-.07-.34 1.23 1.23 0 0 1-.71.15h-.28l.1-.16a.79.79 0 0 1 .28-.4.83.83 0 0 0 .2-.13l.04-.08h.07a1 1 0 0 1 .15.13l.12.1.12.07a.54.54 0 0 0 .38 0 1 1 0 0 1 .26 0 .21.21 0 0 0 0-.17.27.27 0 0 1 0-.11l-.53-.13a2.59 2.59 0 0 0-1-.16h-.26l.16-.2-.21-.06a.93.93 0 0 1-.43-.16.28.28 0 0 1 0-.25v-.08h.09a.16.16 0 0 1 .12.15h.2a4.43 4.43 0 0 1 1 .17 3.73 3.73 0 0 0 .83.14.79.79 0 0 0 .61-.24l.07-.07h-.1l.07-.13c.1-.17.05-.21-.07-.29a.61.61 0 0 1-.13-.12h-.09l-.16.09a1.83 1.83 0 0 1-.8.31.47.47 0 0 1-.38-.18L29 7.44l.12-.05a.32.32 0 0 0 .14-.1h-4.79a.52.52 0 0 1-.35.13 1.29 1.29 0 0 1-.41-.09H11.55l-1.13 6a1.07 1.07 0 0 0 .27 0h.13v.12a.25.25 0 0 1-.26.19.88.88 0 0 1-.21 0L8.8 21.91l.45.1v.09c0 .12-.15.19-.36.19h-.16L4.95 42.4h18.1a25.31 25.31 0 0 0 3.52-.25 12.72 12.72 0 0 1 6.9-3.66v-.07h.07a2.15 2.15 0 0 1 .53 0c.37 0 .74-.08 1.12-.09a10.55 10.55 0 0 0 1.51-1.89l-.17.13a.72.72 0 0 1-.37.1.27.27 0 0 1-.25-.11.3.3 0 0 1 0-.3v-.05h.06a.37.37 0 0 1 .29.12.18.18 0 0 0 .16.07h.26a10.49 10.49 0 0 0 1.3-3.19h-.13a11.49 11.49 0 0 1-2.06-.8l-.15-.07v-.09a.28.28 0 0 1 .09-.1l-.79-.18.16-.13a.74.74 0 0 1 .45-.18 1 1 0 0 1 .52.21c.17.11.32.2.47.13a.14.14 0 0 1 .14.15.28.28 0 0 1-.06.14 2.52 2.52 0 0 0 .49 0 5.27 5.27 0 0 0 .65 0h.27l-.17.18a.6.6 0 0 0 .17.07 8.29 8.29 0 0 0-.09-3.67c-.24 0-.48-.09-.7-.14h-.16l.11-.12.14-.14c.06-.05.06-.05 0-.2v-.24h.27c-.85-1.83-2.6-3-5-3.86a11.08 11.08 0 0 0 5.89-4.94L38 19c-.32 0-.62-.06-.85-.06s-.13 0-.13-.14.06-.1.11-.12v-.11h1.46l.31-.13h.1a10.2 10.2 0 0 0 .73-2.32v-.1c0-.22.07-.43.09-.65a1 1 0 0 0-.37-.11h-.25l.2-.15a.67.67 0 0 1 .42-.14v-.79a2.62 2.62 0 0 0-.26.2 2 2 0 0 1-.4.4zM33.66 9v-.06a.24.24 0 0 1 .27-.23h.39v.15a.29.29 0 0 1-.31.25h-.23zM32 12.15a1.75 1.75 0 0 0 .58-.48v-.07h.08a.33.33 0 0 1 .13.14s0 .06.06.07h.08L33 12a.27.27 0 0 1-.28.17h-.19v.29l-.68-.16zm1.06 3.24c.22 0 .32.08.31.19s-.13.1-.2.1-.5 0-.58-.13a.24.24 0 0 1 .06-.18.18.18 0 0 1 .13-.05.47.47 0 0 1 .32.07zm-2.31-.52a3.79 3.79 0 0 1 1.37.43l.19.09.12.05-.08.1a1 1 0 0 1-.78.28h-.06v-.06a.23.23 0 0 1 .07-.32s.06 0 .05-.09a5.36 5.36 0 0 1-1.17-.21l-.28-.07.22-.12a.8.8 0 0 1 .39-.08zm-2.11 13.48a.92.92 0 0 1-.39-.09h-.09v-.09a.23.23 0 0 1 .21-.16.34.34 0 0 1 .12 0h.12l.06-.07a.2.2 0 0 1 .19-.15l-.25-.07a.77.77 0 0 1-.46-.2l-.09-.13h.39a1.19 1.19 0 0 1 .66.22 1.17 1.17 0 0 0 .52.2h.2l-.14.15a1.62 1.62 0 0 1-.81.5l-.52.12.3-.2zm-2-1.63v.2h-.14a1.54 1.54 0 0 1-1-.36h-.05v-.07a.36.36 0 0 1 .37-.22 1.89 1.89 0 0 1 .44.08l.21.05.25.05-.22.13a.1.1 0 0 0-.06.1s.13.04.22.04zm-1.13-1.09v-.05h.06a.22.22 0 0 1 .17.07.19.19 0 0 1 0 .07.85.85 0 0 1 .24 0 .31.31 0 0 1 .26.1.27.27 0 0 1 0 .24v.11h-.11l-.01-.17a.5.5 0 0 0-.18-.08l-.06.06-.08.19-.09-.17-.12.12v-.19a.22.22 0 0 1-.06-.3zm.79-1.83a1.27 1.27 0 0 1-.75-.26l-.11-.11.14-.05a.82.82 0 0 1 .58.05.83.83 0 0 0 .39.08h.23l-.14.18a.4.4 0 0 1-.32.11zm.43.57l.63-.09a3.11 3.11 0 0 1 .45 0 1.76 1.76 0 0 1 1 .28 3.41 3.41 0 0 0 .94.38l.62.15h-.77a3.9 3.9 0 0 1-1.41-.37 4.11 4.11 0 0 0-.78-.26zm2.83 2.45l.23-.09a.45.45 0 0 1 .42 0 .78.78 0 0 0 .32.11h.2l-.15.14a.33.33 0 0 1-.12.07c-.05 0-.06 0-.06.07v.31l-.16-.27a.34.34 0 0 0-.42-.16l-.34.07.26-.23zm-.33-1.2a.15.15 0 0 1-.13.08c-.09 0-.17-.07-.27-.16s-.18-.16-.24-.16 0 0-.06.14v.12l-.11-.05c-.14-.07-.1-.24-.08-.34a.65.65 0 0 0 0-.09v-.1h.1c.3 0 .71.14.8.49zM28 27a.26.26 0 0 1 .27-.19 1.16 1.16 0 0 1 .29.06h.5l-.26.15a.52.52 0 0 1-.26.06h-.57zm2.11 2.45a4.05 4.05 0 0 1 1.23.11l.64.13-.65.07h-.51a1.75 1.75 0 0 1-.74-.16l-.32-.14zm-.27-14.88l.06-.07h.21c.11 0 .21 0 .27.1a.17.17 0 0 1 0 .14.23.23 0 0 1-.23.22.4.4 0 0 1-.34-.21.24.24 0 0 1 0-.14zm-2.43-1.24s.06 0 .07-.23V13l.6.14-.11.46h-.05a1.19 1.19 0 0 1-.39 0h-.36v-.14a.24.24 0 0 1 .21-.1zm-1-.74c0-.11.11-.14.16-.14a.18.18 0 0 1 .11 0v-.25l.17.22a.49.49 0 0 1 .08.19c0 .1 0 .14.11.15h.18l-.14.13a.25.25 0 0 1-.17.07c-.12 0-.19-.1-.26-.19s-.1-.14-.15-.14h-.13zm-1.61-.8a.25.25 0 0 1 .17-.11c.06 0 .06 0 0-.1l.03-.43.24.4c.06.1.12.07.19.06a.71.71 0 0 1 .3 0 .63.63 0 0 1 0 .48.47.47 0 0 1-.19 0h.22l-.14.61-.12-.1c-.26-.22-.25-.19-.53-.12h-.16l.14-.61.12.09a.68.68 0 0 0 .41.13 1.06 1.06 0 0 1-.53-.26l-.1.17h-.07zm1.06 3.29c2.91 0 4.21 1.1 3.85 3v.1c-.39 2.06-2.23 3.06-5.19 3.06h-.69l-.06.08a.33.33 0 0 1-.1.09h.1c.53-.23 1.28 0 2.21.75l.37.29-.46-.12a6.67 6.67 0 0 1-1-.36 5.9 5.9 0 0 0-1.12-.38l-.3-.06h.11-.1a.94.94 0 0 1-.4-.13l-.08-.08h-4.6l1.16-6.17zM23 25.37a6.39 6.39 0 0 0-.69-.2h-.21l.17-.13a.37.37 0 0 1 .38 0h.07a.4.4 0 0 0 0-.09v-.1h.1a3.93 3.93 0 0 1 .46.19 2.5 2.5 0 0 0 .9.29.48.48 0 0 0 .26-.07l.11-.07v.13a.23.23 0 0 1 0 .18h.06l.44.15h-.58a2.35 2.35 0 0 1-.37 0l-.51.19a1.29 1.29 0 0 1-.4.07c-.25 0-.34-.11-.37-.2v-.06c0-.14.12-.21.22-.21a.49.49 0 0 1 .25.11.5.5 0 0 0 .22.1l.35-.05c-.23-.03-.56-.13-.86-.23zm-1-2l-.18-.06h-.13l.06-.12A.3.3 0 0 1 22 23a1.07 1.07 0 0 1 .42.14l.21.09h.16l-.12.12a.33.33 0 0 1-.25.09 1.46 1.46 0 0 1-.42-.04zm1.5.51h.16c.15 0 .88.08.88.45v.19l-.16-.11a.43.43 0 0 0-.27-.07H24a.43.43 0 0 1-.48-.33zm-3.58-1.32l-.06.13a.32.32 0 0 1-.31.24.88.88 0 0 1-.43-.18l-.19-.11-.14-.06.1-.1c.12-.12.35-.07.57 0a1.23 1.23 0 0 0 .3.07zm3.49-10.95v.05l.05-.18.11.15.06-.06.07.06a.18.18 0 0 1 .06.2.34.34 0 0 1-.22.18.14.14 0 0 1 0 .07c0 .09-.11.13-.2.16s-.18.08-.18.14v.13l-.72-.17.07-.11c.06-.1 0-.11 0-.16a.35.35 0 0 1-.17-.17.71.71 0 0 1-.51 0h-.08v-.08s0-.07-.05-.13a.31.31 0 0 1-.09-.32v-.15l.12.11c.14.13.25.07.39 0l.18-.1h.09v.09s.07.18.33.18a1.21 1.21 0 0 0 .32-.05l.2-.06v.06zm-5.15-2.04a12 12 0 0 0 1.67.33 8.47 8.47 0 0 1 2.83.8l.62.3-.68-.12-.7-.11a11.09 11.09 0 0 1-3.81-1l-.68-.4zm3.05 2v.11h-.1l-.21-.07c-.2-.06-.47-.14-.44-.42v-.31l.15.27s.14.06.21.08a.49.49 0 0 1 .34.17.25.25 0 0 1 .05.21zm-4.36 1a.17.17 0 0 1 .06-.08.22.22 0 0 1 .06-.21v-.05h.06c.32.08.63.13.93.18a4.11 4.11 0 0 1 1.6.48.52.52 0 0 1 .4 0h.11s.06 0 .13-.08h-.08a.14.14 0 0 1 0-.15c0-.09.17-.08.38 0a1.81 1.81 0 0 0 .28 0l.17-.14v.22c.09 0 .17 0 .19.11a.15.15 0 0 1-.06.15s-.18 0-.18.07 0 .1.12.12h.15v-.14l.24.2a1.15 1.15 0 0 0 .23.14.94.94 0 0 1 .35.25l-.12.51h-.09a.79.79 0 0 1-.52-.27 1 1 0 0 0-.17-.14l-.17-.1v.1l-.13-.17a.77.77 0 0 1-.13-.28l-.08.11a.43.43 0 0 1-.36.19 1.2 1.2 0 0 1-.55-.21 1 1 0 0 0-.4-.17.15.15 0 0 0-.13.09l-.13.2-.05-.23c0-.13-.16-.17-.33-.22s-.21-.06-.24-.15a.11.11 0 0 1 0 .05.13.13 0 0 1-.13.07.88.88 0 0 1-.24-.05 1.21 1.21 0 0 0-.3-.07.13.13 0 0 0 0 .07v.18l-.17-.07a.16.16 0 0 1-.1-.12.4.4 0 0 1-.15.12c-.31-.05-.29-.25-.29-.34a.32.32 0 0 0 0-.05h-.12zm-2.82 15.14c.15.08.27.13.38.05h.11a.53.53 0 0 1 .19.53v.15l-.13-.07a2.26 2.26 0 0 0-.4-.14 1.2 1.2 0 0 1-.81-.5l-.06-.11h.12a.84.84 0 0 1 .6.09zm-3.47-3h-.14l.06-.12a.31.31 0 0 1 .3-.17 1.64 1.64 0 0 1 .48.11 1.55 1.55 0 0 0 .42.1H12l-.06.14a.39.39 0 0 1-.37.21 1.7 1.7 0 0 1-.6-.17 1.31 1.31 0 0 0-.3-.14zM12 29.6a.3.3 0 0 1-.21.08.74.74 0 0 1-.34-.13.73.73 0 0 0-.22-.09h-.22l.16-.15a.3.3 0 0 1 .21-.08.73.73 0 0 1 .34.13.71.71 0 0 0 .22.09h.22zm.38-16.13l-.1-.05.07-.09a.26.26 0 0 1 .22-.1.46.46 0 0 1 .39.21.25.25 0 0 1 0 .27h-.06a.51.51 0 0 1-.36-.18.4.4 0 0 0-.12-.06zm.65 3.07a.45.45 0 0 0 .16-.13.6.6 0 0 1 .24-.18h.07v.06a.27.27 0 0 1 0 .31 1 1 0 0 0-.07.16v.08l-.72-.17zM13.39 33h-.12v-.22a.14.14 0 0 1 0-.11c.06-.06.16 0 .29 0a.61.61 0 0 0 .38 0l.38-.22-.25.36a.58.58 0 0 1-.52.23zm1.62.12a.25.25 0 0 1-.23 0v.11h-.12a.24.24 0 0 1-.25-.18h-.17l.13-.12a.49.49 0 0 1 .4-.06.54.54 0 0 0 .21 0h.12v.12a.24.24 0 0 1-.1.1zm.71-20.7a.45.45 0 0 1-.24.06 1.34 1.34 0 0 1-.41-.08l-.32-.11.33-.08.15-.06a.67.67 0 0 1 .59 0h.08a.82.82 0 0 1 .26.06.74.74 0 0 0 .19.05h.21l-.12.16a.66.66 0 0 1-.44.2.31.31 0 0 1-.3-.2zm.21 3.25a4.16 4.16 0 0 1 1.34.36 8.24 8.24 0 0 0 1.35.43h.14l-.08.12a1.49 1.49 0 0 1-.14.18.41.41 0 0 0-.1.16v.09h-.09a.72.72 0 0 0-.64 0 1 1 0 0 1-.42.12h-.12v-.37h-.05v-.07a.2.2 0 0 1 .06-.09 1.59 1.59 0 0 1-.94-.26h-.05v-.06a.17.17 0 0 1 .06-.12 1 1 0 0 1-.34-.29l-.1-.16zm0 10.32a.79.79 0 0 1 .4-.1.32.32 0 0 1 .27.1.25.25 0 0 1 0 .23v.09l-.83-.19zm5.62 16.26a.24.24 0 0 1-.2.16.36.36 0 0 1-.18-.07.47.47 0 0 0-.24-.09h-.19l.08-.15a.38.38 0 0 1 .32-.14.49.49 0 0 1 .41.19zM21 34.57a14.36 14.36 0 0 1 1.43.46l.14.06-.11.11a.53.53 0 0 1-.38.16 1.62 1.62 0 0 1-.68-.24 3.12 3.12 0 0 0-.73-.3 2.61 2.61 0 0 0-.55 0h-.78a1 1 0 0 1-.38 0 .44.44 0 0 1-.21-.18H15.9l1.22-6.47h7.42c1.94 0 3.18.45 3.78 1.21h.05a.55.55 0 0 1 .47-.07.42.42 0 0 0 .29 0l.12-.06v.13a.43.43 0 0 1-.13.44l-.07.09H29a.38.38 0 0 1-.27-.23c-.05-.1-.08-.15-.27-.14a2.38 2.38 0 0 1 .29 1.81v.1c-.39 2.06-2.31 3.21-5.27 3.21zm4.87 6.63a.35.35 0 0 1-.25.09.31.31 0 0 1-.28-.12.22.22 0 0 1 0-.23.28.28 0 0 1 .34 0 .4.4 0 0 0 .13.07h.07v.07a.18.18 0 0 1-.05.12zm1.81-3.46v.1a.48.48 0 0 0 0 .13l-.07.17a9.93 9.93 0 0 1-1-.4l-.08-.05.06-.08a.41.41 0 0 1 .36-.19 1.41 1.41 0 0 1 .48.13l.23.08h.08zm.17-2.48v.09h-.25c-.26-.06-.59-.14-.55-.46l.08-.68.12.68s.17.06.25.07.31 0 .38.16a.24.24 0 0 1-.07.14zm5 2.87c0 .3-.18.36-.3.36h-.22l.12-.49.41.1zm2.34-1.82a.25.25 0 0 1 .26-.19 1.11 1.11 0 0 1 .26 0h.17v.08a.25.25 0 0 1-.06.19.19.19 0 0 1-.14.06.75.75 0 0 1-.23-.05.63.63 0 0 0-.16 0h-.13zm1.71-5h-.12l-.78-.16-.41-.1.29-.12a1.44 1.44 0 0 1 .45-.07.62.62 0 0 1 .46.14.29.29 0 0 1 .08.22zm-3.26-3.43a.36.36 0 0 1 .31-.18.82.82 0 0 1 .25.05.75.75 0 0 0 .23.05h.05a.31.31 0 0 0 0-.2.51.51 0 0 1 0-.32.37.37 0 0 1 .2-.06 1 1 0 0 1 .47.17l.14.07-.05.09a.26.26 0 0 1-.21.15.35.35 0 0 1-.14 0 .26.26 0 0 0-.14 0 .82.82 0 0 0 0 .19v.09a.49.49 0 0 1 0-.13h.11V28h.1a2.5 2.5 0 0 1 .49-.08h-.12l.08-.11c.15-.22.33-.25.47-.11a.75.75 0 0 1 .24-.11.68.68 0 0 0 .28-.13l.11-.12.05.15a.54.54 0 0 1-.09.47c-.08.13-.11.18 0 .3l.27.23-.35-.06a3.36 3.36 0 0 0-.51 0c-.32 0-.39.07-.39.07v.07a.15.15 0 0 1-.14.11.48.48 0 0 1-.26-.14l-.1-.07h-.08a.35.35 0 0 1-.24 0h-.05v.08h-.08a2.1 2.1 0 0 1-.58-.12 4 4 0 0 0-.52-.13h-.15zm-.32 7.29a.57.57 0 0 1 0 .18 1.65 1.65 0 0 1 .63.14 3.26 3.26 0 0 0 .52.16h.07v.07a.24.24 0 0 1 0 .19.18.18 0 0 1-.14.06h-.16.21a.65.65 0 0 1 .47.16l.11.11h-.15a3.64 3.64 0 0 1-1.08.16 4 4 0 0 1-1.71-.39l-.09.12.12-.1a.39.39 0 0 1 .23-.09l-.21-.07h-.09v-.09a.26.26 0 0 1 .27-.19 1.15 1.15 0 0 1 .3.06h.07v-.06a1 1 0 0 0-.67-.19 1.28 1.28 0 0 0-.59.12h-.08.15l-.08.16a.51.51 0 0 1-.49.24 2 2 0 0 1-1.27-.55h-.12l.05-.13a.27.27 0 0 1 0-.14 1.09 1.09 0 0 1-.43.09.48.48 0 0 1-.54-.45v-.35l.21.28c.07.09.28.13.46.17l.32.07h.15c.08 0 .16 0 .18.11a2.1 2.1 0 0 1 .63.19 2.21 2.21 0 0 0 .75.2l.05-.24a1.69 1.69 0 0 1-.88-.24 4.22 4.22 0 0 0-.55-.23l-.65-.2h.68a14.16 14.16 0 0 1 3.41.55zm-.27-6.44h.14l-.08.11a.49.49 0 0 1-.42.19 1.33 1.33 0 0 1-1.05-.59l-.12-.31.27.19a2.37 2.37 0 0 0 .82.27zm.29-6.21a.62.62 0 0 1-.34.09.4.4 0 0 1-.36-.17.2.2 0 0 1 .2-.12.83.83 0 0 1 .25.06.77.77 0 0 0 .19 0h.32zm.79-9.94v.1l-.83-.19.32-.16a.93.93 0 0 1 .59-.15h.25l-.21.15a.36.36 0 0 0-.11.3zm.87 2.94a.42.42 0 0 1-.36.19.57.57 0 0 1-.25-.06h-.09v-.09c.08-.19.19-.45.47-.45h.14a.38.38 0 0 1 .09.41zm.61-5v.17l-.13-.12a1.44 1.44 0 0 0-.63-.29 2.12 2.12 0 0 1-.65-.28h-.1v.06h-.25a.51.51 0 0 1-.24-.07l-.2-.08h-.11v-.1a.46.46 0 0 1 .42-.21.33.33 0 0 1 .28.12.28.28 0 0 1 0 .14h.48a1.19 1.19 0 0 1 .94.27.46.46 0 0 1 .19.39zM35.75 9a.59.59 0 0 0-.08.19v.31l-.14-.28h-.06a.31.31 0 0 1-.47-.15V9h.06a.68.68 0 0 1 .23-.12c.13 0 .2-.08.23-.2v-.12l.11.06a.29.29 0 0 1 .16.17.39.39 0 0 1-.04.21zm.35 2.92l-.1-.08a.24.24 0 0 1 0-.26.62.62 0 0 1 .52-.24.33.33 0 0 1 .3.13.31.31 0 0 1-.36.29h-.27zm1.81 2a1.76 1.76 0 0 1-1.43 1h-.12v-.12a.9.9 0 0 1 .71-.83 1 1 0 0 0 .45-.27l.07-.09.08.08a.28.28 0 0 0 .16.1h.13zm1 1.77h-.16a1.6 1.6 0 0 1-.32 0 .31.31 0 0 1-.26-.11v-.12a.6.6 0 0 1 .79 0l.2.14zm-18.53-2.52h.38a.9.9 0 0 0 0 .12h-.14c-.16-.01-.21-.08-.24-.12zm2.79-1.24a.14.14 0 0 0 0-.06zm-1.91 1.7h-.19v-.08a.37.37 0 0 1 .11-.23l.13-.09v.31zm7.67 14.54a.16.16 0 0 0 0-.07H29zM32 8.2a1.56 1.56 0 0 1-.4-.61h.06a.23.23 0 0 0 .23-.14h.36a8.28 8.28 0 0 0 1.4.44h-.12a.77.77 0 0 1-.19 0h-.19a.27.27 0 0 0-.29.2h-.32a1 1 0 0 0-.26 0 .25.25 0 0 0-.26.19zm-1-.06h-.09l.06-.15c.38.07.47.25.49.41h-.06a1 1 0 0 1-.24.16.12.12 0 0 1 0-.05v-.29l-.14.26a.24.24 0 0 0 0 .24h-.1a.85.85 0 0 1-.28-.07.59.59 0 0 1 .15-.12.63.63 0 0 0 .24-.23zm111.77 37.03a.46.46 0 0 1-.42.21 2.42 2.42 0 0 1-.83-.24 3.67 3.67 0 0 0-.42-.16c-.49-.13-1-.25-1.58-.38a27 27 0 0 1-3.43-.95l-.41-.16h.5c-.45-.12-.91-.22-1.34-.3a7.1 7.1 0 0 1-2-.6l-.4-.23.46.05a53.62 53.62 0 0 1 7.26 1.56l2.39.61a12.32 12.32 0 0 0-3.56-3.2 2.48 2.48 0 0 1-.78-.4l-.07.09a.36.36 0 0 1-.3.13 1.71 1.71 0 0 1-.41-.07h-.2l-.36-.07.34-.12a1.54 1.54 0 0 1 .63 0h.3q-.63-.32-1.32-.6A12.41 12.41 0 0 1 133 39.2a26 26 0 0 0-3.47-.38c1.21.31 2.5.64 3.93 1 .62.12 1.26.26 1.73.38a1.27 1.27 0 0 1 .79.26l-.05.08-.05.08a3.32 3.32 0 0 0-.7-.22h-.28a1.54 1.54 0 0 1-.64-.18l-.86-.22h-.4c-.8-.16-1.55-.31-1.94-.42-1-.29-2-.54-3-.76h-7.51l-.08.06a.62.62 0 0 1-.37.1 2.77 2.77 0 0 1-.74-.15h-3.89l.82.22c1 .28 2 .54 2.91.76V40l-1.46-.25c-1.07-.18-2.09-.36-3.07-.56l-1.51 8.05h.1l.54.18h.09a.6.6 0 0 1 .21 0c.17 0 .29.08.31.22 0 .2-.14.23-.21.23a.57.57 0 0 1-.27-.12l-.11-.06h-.13v-.07a3.43 3.43 0 0 1-.61-.07l-.26 1.37c.53.13 1 .26 1.5.34a.23.23 0 0 1 0 .22c0 .09-.15.1-.25.11 1.28.32 2.63.62 4.05.94 1.26.28 2.53.58 3.79.88l.55-2.95h-.39l.22-.17a.49.49 0 0 1 .23-.09l-.85.06h-.27a5.3 5.3 0 0 1-2.64-.77l-.29-.18h.05l-.22-.11a1.35 1.35 0 0 0-.52-.19h-.07v-.17a.21.21 0 0 1 .17-.06 2.53 2.53 0 0 1 1.13.34l.08.08-.1.07h-.09a4.83 4.83 0 0 1 1.66.41 4.85 4.85 0 0 0 1.1.33l.85.11.06-.31a8.58 8.58 0 0 0-1.42-.29v-.2a7.23 7.23 0 0 1 1.47.17v-.16h3.83l-.09-.17.28.14h.11c3.09 0 5.43 1 6.75 2.79a2.7 2.7 0 0 1 1 .38l.26.18h-.31a2.89 2.89 0 0 1-.64-.13 6.14 6.14 0 0 1 .74 1.82 5.42 5.42 0 0 1 .6.15 5.22 5.22 0 0 0 .79.2.7.7 0 0 1 .44-.2.3.3 0 0 1 .23.1.38.38 0 0 1 .08.27l.8.19a9.29 9.29 0 0 1 1.44.41l.76.29-.81-.11a38.27 38.27 0 0 1-4.26-.88 8.39 8.39 0 0 1 .1 1.69l3.93 1a.83.83 0 0 1 1 .07l.08.05v.07l.37.05a11 11 0 0 1 1.65.45 10.91 10.91 0 0 0 2.66.63c.05-.23.1-.46.15-.7v-.1c0-.11 0-.23.06-.34h-.17a1.18 1.18 0 0 1-.78-.23.23.23 0 0 1 0-.09.66.66 0 0 1-.28.06 2 2 0 0 1-.7-.19 2.3 2.3 0 0 0-.74-.21h-.55l.52-.17a1 1 0 0 1 .36 0 10 10 0 0 1-1.42-.54l-.75-.36.81.18c1.41.31 2.64.6 3.84.89a14.24 14.24 0 0 0-1.76-9.74zm-9.41-3.27a7.71 7.71 0 0 1 2.22.53l.44.17h-.57a7.32 7.32 0 0 1-2-.48l-.66-.22zm-3.68-2a.25.25 0 0 1-.25.19.4.4 0 0 1-.33-.18v-.11a.37.37 0 0 1 .28-.13.31.31 0 0 1 .3.28zm-1.13-.74c.12-.12.32-.08.46.09a.46.46 0 0 1 .12.34v.1h-.1a.47.47 0 0 1-.29-.22.31.31 0 0 0-.14-.13l-.14-.06zm-13.11 8.72V48c-.12 0-.92-.09-.92-.28a.15.15 0 0 1 .11 0v.07a2.19 2.19 0 0 0 .76.15V48h.14zm.46-1a.32.32 0 0 1-.21.07 1.43 1.43 0 0 1-.4-.09 1.48 1.48 0 0 0-.33-.08h-.25l.2-.16c.13-.11.38-.05.61 0a1.46 1.46 0 0 0 .33.08h.25zm5.3.46c0 .07-.11.11-.25.11s-.38 0-.46-.19a8.26 8.26 0 0 1-2-.57h-.22a3.65 3.65 0 0 1-.89-.17 5.81 5.81 0 0 0-.62-.14h-.27l.23-.14c.42-.26.61-.18.83 0a1.69 1.69 0 0 0 .66.27h.07a.14.14 0 0 1 .13-.1h.05v.05a.19.19 0 0 1 0 .1h.07l.42.08a6.17 6.17 0 0 1 1.57.45h.05a.51.51 0 0 1 .34.12.31.31 0 0 0 .19.08h.14zm-.38-8.25h-.09V39c0-.09.1-.09.19-.09.27 0 1.11.06 1.31.09 1 .18 2 .48 3.11.8.65.19 1.32.38 2 .55a57 57 0 0 1 5.49 1.65h.09v.09a.17.17 0 0 1-.18.11h-.17c-1.14-.28-2.45-.65-3.84-1-2.47-.74-5.24-1.52-7.91-2.08zm6.47 5.46c0-.06.12-.09.26-.09s.43 0 .52.2a.21.21 0 0 1 0 .21v.08l-.16-.09a1.19 1.19 0 0 0-.49-.17h-.16zm.78 2.37a.24.24 0 0 1-.21.11.67.67 0 0 1-.31-.11l-.12-.06-.07.12-.09-.12a.18.18 0 0 1 0-.19.2.2 0 0 1 .2-.09 1.09 1.09 0 0 1 .63.23v.06zm.7 0h-.09v-.09c-.06-.15-.32-.22-.58-.29a1.24 1.24 0 0 1-.65-.3l-.15-.18h.23a12.48 12.48 0 0 1 2.22.49 21.05 21.05 0 0 0 2.12.52l.5.09-.5.1a1.81 1.81 0 0 1-.36 0 5.81 5.81 0 0 1-1.41-.26 2.9 2.9 0 0 0-1.33-.08zm5.63 1.6a.27.27 0 0 1-.21.09.66.66 0 0 1-.28-.09l.23.19-.65-.27-.43-.2a2.31 2.31 0 0 0-1-.31 1.12 1.12 0 0 0-.39.07h-.09v-.09c-.05-.13-.34-.16-.61-.2a1.52 1.52 0 0 1-.88-.29l-.18-.18h.25a5.66 5.66 0 0 1 3.43 1 .27.27 0 0 1 .21-.09.9.9 0 0 1 .4.15l.12.06h.14zM136 51v.1c-.13 0-.92-.09-.92-.28a.14.14 0 0 1 .11 0v.07a2.17 2.17 0 0 0 .75.15V51h.14zm0-3h.12-.12v.1a1.16 1.16 0 0 1-.66-.13v-.06s0-.12.19-.12v.07a1.4 1.4 0 0 0 .47.14zm0-.73a4.21 4.21 0 0 1-1.22-.33l-.37-.13-.64-.2h.67a4.41 4.41 0 0 1 1.23.25l.57.16.24.06-.21.12a.54.54 0 0 1-.27.03zm.79 1.23c-.1 0-.52-.09-.51-.24s0-.11.14-.11h.12l.31.07.3.07v-.06h.1l.24.07c.28.07.6.16.63.45v.18h.16V49c0 .32-.21.37-.32.37a.79.79 0 0 1-.27-.06l-.15-.06.12-.11h-.07l.09-.1a.42.42 0 0 1 .34-.12l-.09-.09a1.58 1.58 0 0 0-.7-.23 3.76 3.76 0 0 1-.46-.13zm1.66 3.32a4.76 4.76 0 0 0-1.14-.34l-.23-.05.13-.13a.48.48 0 0 1 .35-.12c.38 0 1 .25 1 .52l.07.23zm.27-6.31v-.06a.24.24 0 0 1 .24-.28h.07v-.1l.09.06a.32.32 0 0 1 .14.38.52.52 0 0 1-.21 0 .74.74 0 0 1-.27-.05zm1.28 4.75v.1h-.1l-.27-.06a.21.21 0 0 1 0-.29.23.23 0 0 0 .06-.16v-.11h.11c.34.03.29.33.2.52zm.54-1.81a4.83 4.83 0 0 0-1.11-.33l-.7-.16h.71a3.61 3.61 0 0 1 1.37.26 4.48 4.48 0 0 0 1.36.29h.35l-.3.17a.89.89 0 0 1-.44.09 3.26 3.26 0 0 1-1.19-.32zm1.84 4.5c.41-.11 1.37.59 0 0zm.86-1.45c0 .11-.13.11-.18.11h-.38a.94.94 0 0 1-.73-.21l-.14-.18h.23c1.26.09 1.25.24 1.25.28zm-35.11 22.17h.08-.08zm27.78-33.1zm5.11 16a.45.45 0 0 0-.16 0 .06.06 0 0 0 0-.05.07.07 0 0 0 0-.05l-.05.19-.48-.14c-1.46-.41-3.48-1-5.53-1.48 0 .25-.06.52-.1.78a5.16 5.16 0 0 0 .64.18l.29.06-.26.12a.86.86 0 0 1-.34.06 1.37 1.37 0 0 1-.37-.06v.08a24.52 24.52 0 0 1 3.76 1.07l.59.23h-.63a13 13 0 0 1-2.68-.56l-1.15-.31a10.54 10.54 0 0 1-2.67 5.12.16.16 0 0 1 .09 0h.08a38.75 38.75 0 0 0 4.77 1 34.65 34.65 0 0 1 4.57.95h.13c.32-.49.63-1 .91-1.52a3.79 3.79 0 0 1-.94-.6l-.12-.11a1.24 1.24 0 0 1-.36 0 5.36 5.36 0 0 1-1.33-.26 7.66 7.66 0 0 0-1-.24h-.06v-.05a.24.24 0 0 1 0-.23.15.15 0 0 1 .13-.06 8.33 8.33 0 0 1 2.08.44l.59.17.34.09h-.13a3.61 3.61 0 0 0 1.12.22 20.82 20.82 0 0 0 1.59-4.29l-3.21-.83zm-5 2.55a.51.51 0 0 1-.28.08 1.45 1.45 0 0 1-.5-.13 1.92 1.92 0 0 0-.61-.16h-.37l.33-.17a.73.73 0 0 1 .34-.08 1.71 1.71 0 0 1 .61.16 2.22 2.22 0 0 0 .45.14h.26zm2.85.47l-.21-.09.08-.1c.1-.13.32-.09.53 0a1 1 0 0 0 .26.06h.31l-.25.18a.48.48 0 0 1-.28.09 1.09 1.09 0 0 1-.46-.14zm3.09 1.18h-.41a3 3 0 0 1-1.82-.63l-.32-.38.44.23a4 4 0 0 0 .86.27 3.64 3.64 0 0 1 1 .32zm2.65-5.35h.11v.05zm-12.82 6.5v-.05zm3 1.19h-.06v-.06c-.09-.23-.67-.33-1.14-.42a4.26 4.26 0 0 1-.77-.18.16.16 0 0 1 0 .1.21.21 0 0 1-.15.12h-.05a11.82 11.82 0 0 0-1.31-.27 11.82 11.82 0 0 1-7.9 2.71h-3.94L120 62h-.06v.06l-.19.05a.5.5 0 0 0-.18-.06c-.13 0-.27-.06-.32-.17a.23.23 0 0 1 0-.17 1.56 1.56 0 0 0-.54-.09h-.26a1.74 1.74 0 0 1-.5 0h-.05a1 1 0 0 1-.36.06 7.32 7.32 0 0 1-1.86-.43l-.65-.2a.24.24 0 0 1-.05-.08 7.11 7.11 0 0 1-1.67-.31c-.36-.09-.72-.19-1.06-.25l-.55-.09.55-.1a2 2 0 0 1 .36 0h.2l-1-.27v.08a.19.19 0 0 1-.05.14.29.29 0 0 1-.22.07 1.3 1.3 0 0 1-.66-.22h-.09l-.45 2.37a.5.5 0 0 0 .21-.06.9.9 0 0 1 .07-.35c0-.06 0-.13.08-.25l.05-.19.12.16.08.1a.63.63 0 0 1 .22.53.82.82 0 0 1-.32.15c-.19.06-.3.1-.34.29v.1h-.23l-.45 2.42c2.71.66 5.41 1.31 8.08 1.93 2.32.54 4.42 1.08 6.45 1.59 1.39.35 2.82.72 4.28 1.07l.55.13-.56.06a6.67 6.67 0 0 1-.69 0 6.3 6.3 0 0 1-2.37-.42h-.1v-.09c-5.07-1.13-10.26-2.39-15.74-3.74h-.06l-1.29 6.85 3.85 1h5.74a.44.44 0 0 1 .35 0h3.14a28.83 28.83 0 0 0 5.91-.6l-.2-.18c-.17-.15-.34-.31-.53-.45l-.42-.32.51.14a9.76 9.76 0 0 0 2.26.36h.15a24.6 24.6 0 0 0 2.62-.91.5.5 0 0 1-.32-.36l-.3-.08a1.42 1.42 0 0 0-.36-.08c-.08 0-.11 0-.12.06l-.18.36v-.4c0-.17-.1-.2-.49-.24h-.28l-.25.16a6 6 0 0 0-1.07-.16c-.8-.08-1.62-.16-2-.63a.29.29 0 0 1-.16 0 1.29 1.29 0 0 1-.36-.08 1.19 1.19 0 0 0-.29-.07h-.12v-.12a.26.26 0 0 1 .28-.21 1.06 1.06 0 0 1 .26.14l.32.15a2.37 2.37 0 0 0 .67.17h.22l-.15-.05h.48a16.16 16.16 0 0 1 5.41.87.4.4 0 0 1-.12-.09h-.06a3.65 3.65 0 0 1-1.48-.52l-.21-.17h.5c.29 0 1.13 0 1.27.51a1.81 1.81 0 0 0 .42-.26l.2-.17v.26s.07.07.22.11a21.09 21.09 0 0 0 7.37-6.41h-.09a31.43 31.43 0 0 0-6.2-1.29zm-22 1.82a.31.31 0 0 1-.32.2 1.37 1.37 0 0 1-.93-.52l-.22-.4.37.28a2.05 2.05 0 0 0 .73.24l.3.07h.1zm-1.26-.93l.08-.12a.49.49 0 0 1 .4-.18.4.4 0 0 1 .34.15l.05.08-.08.06a.59.59 0 0 1-.34.09 1.3 1.3 0 0 1-.32 0zm1.59-2.08a6.74 6.74 0 0 0-1.11-.32c-.27-.06-.55-.13-.88-.22h-.16l.12-.12a.31.31 0 0 1 .23-.08h.28a.18.18 0 0 0 0-.12h.19c.05.3.29.35.68.4s.65.09.76.41l.07.21zm2.42 2.31a.35.35 0 0 1-.26.12.73.73 0 0 1-.31-.1 1 1 0 0 0-.37-.12h-.16l.08-.14a.26.26 0 0 1 .24-.15.74.74 0 0 1 .3.1.93.93 0 0 0 .39.12h.28zm3 1.64a.27.27 0 0 1-.27.18 1.06 1.06 0 0 1-.46-.17l-.14-.08.05-.09a.22.22 0 0 1 .2-.1 1 1 0 0 1 .29.07.87.87 0 0 0 .22.06h.15zm6.58 1.86c-.58 0-.92-.16-1-.45v-.14h.14l.43.1a4.43 4.43 0 0 0 1.11.18h.78l-.75.23a2.78 2.78 0 0 1-.72.07zm3 .53a.71.71 0 0 1-.2 0 2.8 2.8 0 0 1-.71-.14 3.51 3.51 0 0 0-.54-.13h-.2l.14-.14s.09-.07.29-.07a2.81 2.81 0 0 1 1.25.31l.17.12zM121 69.61l.15-.09.06.05a.82.82 0 0 0 .36.19.65.65 0 0 1 .38.24l.08.12h-.15c-.2 0-.34.08-.47.11a3.1 3.1 0 0 1-.66.12h-.1v-.1c0-.4.11-.49.35-.64zm-11.12-2.83c-.63.17-.53-.46 0 0zm.71 2.62l.09-.11a.66.66 0 0 1 .55-.2 1.79 1.79 0 0 1 .88.23l.23.15h-.37a4.44 4.44 0 0 1-.52 0 2.33 2.33 0 0 1-.71-.11zm1.33.85v-.09h.09a.33.33 0 0 1 .13.14s0 .06.06.07h.09v.09a.27.27 0 0 1-.27.18.6.6 0 0 1-.2 0h-.07v-.07a.38.38 0 0 1 .11-.27zm.35 2.1a.29.29 0 0 1-.24.12 1.08 1.08 0 0 1-.36-.1l-.2-.07-.27-.05.24-.13a.68.68 0 0 1 .2-.07h.09v-.26h.13a.22.22 0 0 1 .18.07.3.3 0 0 1 0 .27h.35zm.59-2.22a.28.28 0 0 1-.21.1.57.57 0 0 1-.28-.11.75.75 0 0 0-.3-.12h-.16l.09-.13a.32.32 0 0 1 .26-.16.52.52 0 0 1 .3.15.53.53 0 0 0 .23.13h.19zm1.39.42a.31.31 0 0 1-.29.31c-.1 0-.12 0-.13.1v.12l-.13-.08a.18.18 0 0 1-.1-.2.17.17 0 0 1 .12-.13l-.05-.06a.24.24 0 0 1-.11-.34l.08-.17.09.16c0 .07.2.1.34.13h.2zm1.65 3a.36.36 0 0 1-.21.06 1.6 1.6 0 0 1-.44-.1 1.79 1.79 0 0 0-.36-.09h-.28l.23-.16c.14-.1.41 0 .65 0a1.74 1.74 0 0 0 .36.09h.28zm2-3a.68.68 0 0 1-.55-.17l-.05-.06v-.06a.51.51 0 0 1 .4-.12 1.08 1.08 0 0 1 .71.22.28.28 0 0 1 .08.2v.15l-.13-.07a1.08 1.08 0 0 0-.49-.08zm4.15.84a5.37 5.37 0 0 1-1.36-.27 5.73 5.73 0 0 0-1.46-.29h-.26l-.59.09.53-.28a1.43 1.43 0 0 1 .45-.13.68.68 0 0 0-.27 0h-.21a.3.3 0 0 1-.3-.17.19.19 0 0 1 .05-.15.31.31 0 0 1 .23-.08c.16 0 .81.14.81.32v.06h.05a7.52 7.52 0 0 1 2.61.68l.31.14-.34.05zm1.14.18c0 .21-.33.35-.47.39h-.06a.27.27 0 0 1-.08-.2.42.42 0 0 1 .2-.26c.05 0 .12-.09.13-.13v-.14l.12.08a.29.29 0 0 1 .13.27zm8.69-6.92c.1-.13.32-.09.53 0a1 1 0 0 0 .26.06h.41l-.37.18a.57.57 0 0 1-.25.07.79.79 0 0 1-.29-.07l-.24-.08h-.15zm.62 3.07h-.06a1.82 1.82 0 0 1-.68-.18.87.87 0 0 0-.53-.11l-.15.05v-.16c0-.17.28-.17.36-.17h.14l-.08-.06a.61.61 0 0 1-.18-.45v-.16l.14.08.13.07c.23.12.5.26.53.56v.07a.66.66 0 0 1 .37.22.17.17 0 0 1-.02.25zm.07-1.54l.5-.08a3.16 3.16 0 0 1 .47 0c.47 0 .58.19.58.36v.13zm4 2.6c0 .07-.1.08-.18.09a.36.36 0 0 0-.13 0v.19l-.08.05a.26.26 0 0 1-.14 0 .28.28 0 0 1-.17-.07.33.33 0 0 0-.21-.07h-.18l.09-.15a.64.64 0 0 1 .82-.28.13.13 0 0 1 .19.25zm-.2-1.89a.93.93 0 0 1-.32 0 5.13 5.13 0 0 1-1.44-.35l-.37-.13.27-.09a1 1 0 0 1 .35-.06 2.41 2.41 0 0 1 .81.19 3.59 3.59 0 0 0 .69.2l.37.06zm1.54-.53a.71.71 0 0 1-.26-.05h-.22a.74.74 0 0 1-.28-.08 1.47 1.47 0 0 0-.25-.09l-.34-.08.33-.11a.94.94 0 0 1 .8.1.49.49 0 0 1 .54-.05h.12l-.07.1a.45.45 0 0 1-.36.27zm1.27 0a.83.83 0 0 1-.34.06 1.9 1.9 0 0 1-.46-.07h-.08v-.05a.23.23 0 0 1 .25-.22 1 1 0 0 1 .32.08.9.9 0 0 0 .25.07h.46zm-28.34-7.2l.21.06h-.21zm3.5-9.19a9.2 9.2 0 0 1-1.65-.66l-.1.52a1.58 1.58 0 0 0 .55.15h.13v.12c0 .08-.11.18-.32.18a1.48 1.48 0 0 1-.42-.09l-.07.38.57.17.48.12-.51.14h-.62l-.46 2.42h.15a4.41 4.41 0 0 0 .45.09c.49.08 1.08.19 1.33.68a2.12 2.12 0 0 1 1.15-.16h.27l-.23.15a6.29 6.29 0 0 0 1.84.58 5.31 5.31 0 0 1 1.57.48.23.23 0 0 1 .2-.15h.08c.16.27.79.4 1.21.49l.39.09.23.07-.21.11a.92.92 0 0 1-.42.09 4.64 4.64 0 0 1-1.56-.44h-.05a10 10 0 0 0-2.06-.51 8.08 8.08 0 0 1-2.33-.66v.12l-.21-.09a15.06 15.06 0 0 0-1.92-.68l-.16.86a55.36 55.36 0 0 1 8 2l1.16.35v.19l-1-.23c-2.87-.67-5.83-1.36-8.21-2.06l-.52 2.74h.08a1.41 1.41 0 0 1 .38.07h.1v.1a.4.4 0 0 1-.39.23.48.48 0 0 1-.2 0l-.16.86a5.16 5.16 0 0 1 1.38.42 5.16 5.16 0 0 0 1 .34.19.19 0 0 1 0 .19v.06a43.26 43.26 0 0 0 6.7 1.6l.18-.93v-.09a.13.13 0 0 1 0-.11l.42-2.25h-.16a.39.39 0 0 1 .17 0v-.1l.27-1.46-.29-.08.32-.09.21-1.12-.15.13a.33.33 0 0 1-.21.07 1.48 1.48 0 0 1-.4-.09 1.48 1.48 0 0 0-.33-.08h-.25l.19-.16c.13-.11.38-.05.61 0a1.49 1.49 0 0 0 .33.08h.22l.44-2.36h-.15a2.4 2.4 0 0 1-1.44-.75l-.14-.15h.2a3.83 3.83 0 0 1 1.66.31v-.21c-.49-.14-1-.26-1.44-.33a2.48 2.48 0 0 1-.52-.16l-.33-.12c-.82-.24-1.73-.45-2.6-.65s-1.56-.36-2.27-.56l.09.05.11.07-.07.1a.33.33 0 0 1-.23.11.45.45 0 0 1-.15 0 .37.37 0 0 0-.23 0h-.14v-.15c.26-.25.4-.32.48-.32zm4 7.42c0-.07.12-.08.2-.08a1.9 1.9 0 0 1 1.07.31.23.23 0 0 1 .06.18v.14l-.12-.07a1.85 1.85 0 0 0-.55-.18 3.26 3.26 0 0 1-.59-.17zM114 56.35s0-.08.42-.08.9.07.92.38h.11a2.08 2.08 0 0 1 1 .13 4 4 0 0 0 .57.14l.51.06-.5.13h-.19a3 3 0 0 1-.76-.15 4 4 0 0 0-.58-.14l-.51-.06h.11l-1-.24-.05-.08zM112.09 58c.13-.11.38-.06.61 0a1.56 1.56 0 0 0 .33.08h.39l-.35.17a.9.9 0 0 1-.39.11 1 1 0 0 1-.58-.23l-.11-.07zm.92 1a.35.35 0 0 1-.33.16.86.86 0 0 1-.75-.42.26.26 0 0 1 .14-.3l.09-.06v.09a.76.76 0 0 0 .7.38h.19zm2.3-.13l-.51-.13a.42.42 0 0 1-.2.05 3.11 3.11 0 0 1-.77-.17 6.08 6.08 0 0 0-.7-.18l-.31-.05.29-.13a1 1 0 0 1 .44-.1 1.92 1.92 0 0 1 .74.2 3.67 3.67 0 0 0 .53.19l.21.05-.16.12h.47a2.78 2.78 0 0 1 1.36.26 5 5 0 0 0 1.22.34l.54.07-.53.13a1.58 1.58 0 0 1-.37 0 4.25 4.25 0 0 1-1.45-.37 7.35 7.35 0 0 0-.8-.24zm4.14 1.36a1.18 1.18 0 0 1-.3 0 3.19 3.19 0 0 1-.92-.19 3.74 3.74 0 0 0-1.12-.23h-.45l.35-.19a.78.78 0 0 1 .38-.09 3.88 3.88 0 0 1 1 .22 5.54 5.54 0 0 0 1 .24l.55.06zm.15-8.23v-.06h.07a.54.54 0 0 1 .41.19.3.3 0 0 1 0 .26v.08h-.18c-.13 0-.29-.05-.34-.17a.29.29 0 0 1 .04-.3zm-.39 2.54l.1.05-.06.09a.37.37 0 0 1-.32.14.49.49 0 0 1-.41-.19.26.26 0 0 1 .25-.18.82.82 0 0 1 .37.14zM117.83 53c.24-.16.66 0 1 .13l.13.06-.09.1a.34.34 0 0 1-.25.12.85.85 0 0 1-.33-.1 1.06 1.06 0 0 0-.44-.12h-.33zm-1.65.74a4.15 4.15 0 0 1 1.83.66l.33.19H118a4.76 4.76 0 0 1-1.12-.31 4.24 4.24 0 0 0-1-.28l-.06-.19a1 1 0 0 1 .36-.03zm-5.43 6l.86.22c-.07 0-.17 0-.28-.06a.55.55 0 0 0-.49-.05l-.06-.06z" transform="translate(-4.95 -5.31)" fill="#d4542c" id="BSIDES"/><g id="Records"><path class="cls-2" d="M68.24 5.36h-.16a25.07 25.07 0 0 1 10.76 2.18.35.35 0 0 1-.26.08.72.72 0 0 1-.58-.19v-.05h-.06A5.39 5.39 0 0 1 76 7a12 12 0 0 0-1.22-.35c-.28-.06-.65-.16-1.08-.29a10.22 10.22 0 0 0-3-.57.59.59 0 0 0-.24.09.25.25 0 0 1-.18.05 7.31 7.31 0 0 1-1.38-.35zm-4.41 1a7.35 7.35 0 0 1 2.55.77l.44.19a.18.18 0 0 1 0-.12.22.22 0 0 1 .21 0 116 116 0 0 0 11.71 2.74c1.47.3 2.86.59 4.23.89.6.13 1.18.29 1.76.45a24.7 24.7 0 0 0-2.65-2 3.35 3.35 0 0 1-.59-.25 19.18 19.18 0 0 1-3.21-.79 16 16 0 0 0-2.64-.66 12.92 12.92 0 0 0-2.67-.79 18.17 18.17 0 0 1-2-.51v.05a.23.23 0 0 1-.06.18h-.06l-.91-.21a26.48 26.48 0 0 1-3.5-1h-.23a.39.39 0 0 1 0 .13v.09h-.09a3.94 3.94 0 0 1-.7-.11 24.74 24.74 0 0 0-3.5.71A5.89 5.89 0 0 1 63 6.6l.19-.11a1.38 1.38 0 0 1 .65-.14zm9.63 1.37a.47.47 0 0 0 .37.21.25.25 0 0 0 .2-.09l.06-.08L74 7.7v-.08a.47.47 0 0 0-.42-.21h-.06v.05a.25.25 0 0 0-.06.26zM72 7.06l.07.11a.75.75 0 0 0 .52.23.27.27 0 0 0 .29-.19v-.12h-.08a1.4 1.4 0 0 1-.33 0 .59.59 0 0 0-.34 0zm7.57.83l-.21-.1.16.11zM45.91 40.66a3.5 3.5 0 0 1 1 .17l.93.3-1-.11h-.23a2.65 2.65 0 0 1-.5.06h-.06c.23.24.44.5.65.77a.32.32 0 0 1 .23-.08h.35l.08-.11.08.1a.19.19 0 0 1 0 .21c0 .08-.14.12-.31.12a1.45 1.45 0 0 1-.31 0c.25.33.49.68.72 1a28.15 28.15 0 0 0 3.16.62 1.87 1.87 0 0 0 1.06.32 1.78 1.78 0 0 1 1.17.41 1.48 1.48 0 0 1 1.4.11l.14.1h.34A.25.25 0 0 1 55 45a.2.2 0 0 1-.13.11 20 20 0 0 1 4 .86v-.06a18.28 18.28 0 0 0 2.6.8c0-.23-.06-.46-.1-.69l-.53-.22a6 6 0 0 0-1.18-.42h-.24l.21-.13a.87.87 0 0 1 .48-.13 2.81 2.81 0 0 1 .77.15l.37.1q-.17-.92-.4-1.83h-.08a2.74 2.74 0 0 1-1.21-.44l-.25-.13a.13.13 0 0 1 0-.15c0-.07.12-.07.16-.07h.32a.12.12 0 0 0 0-.09l-.09-.45a.83.83 0 0 1-.6.16.38.38 0 0 1 .16.43v.08h-.09a.45.45 0 0 1-.28-.17l-.07-.06h-.07c-.33 0-.92-.31-.92-.48v-.1H58a.38.38 0 0 1-.26-.18.24.24 0 0 1 0-.1h-.1a.53.53 0 0 0-.24.12l-.91-.21c-.17 0-.34-.06-.33-.19s0-.12.19-.12a.79.79 0 0 1 .28.06 1.85 1.85 0 0 1 .67.07.52.52 0 0 1 .56 0 8.08 8.08 0 0 1 1.86.35v-.17l.08.19h.15l-.09.09.2.45a.24.24 0 0 0 .25.16 1.26 1.26 0 0 0 .41-.11l-.07-.23A12.52 12.52 0 0 1 55.91 37h-.14a1.28 1.28 0 0 1-.5-.16 1.28 1.28 0 0 0-.44-.15h-.1v-.1a.3.3 0 0 1 .12-.23.12.12 0 0 0 .05-.13v-.22l.17.14c.16.13.22.14.29.14h.27l-.05-.12h-.13a10.62 10.62 0 0 1-1.79-.53l-.15-.07.13-.1a.63.63 0 0 1 .39-.13 1.59 1.59 0 0 1 .63.19l.13.06v-.06a.64.64 0 0 1 .44-.15 12.34 12.34 0 0 1-.36-1.46l-2.18-.54h-.19l.15-.13a.84.84 0 0 1 .55-.16 4.21 4.21 0 0 1 .91.15h.06a.27.27 0 0 1 .05-.18V33h.07l.41.12a12.7 12.7 0 0 1 2.49-9.26c-.33-.08-.69-.16-1-.27l-.2-.06.18-.11a1 1 0 0 1 .53-.15 2.58 2.58 0 0 1 .77.16h.08a12.79 12.79 0 0 1 .93-1l.1-.14-.9-.31c-.63-.21-1.29-.43-1.87-.68l-.57-.24h.61a21.34 21.34 0 0 1 2.45.36l-.49-.11v-.11c0-.12.25-.16.37-.16a.3.3 0 0 1 .26.11.24.24 0 0 1 0 .23v.07l.66.14a12.64 12.64 0 0 1 1.36-1.29l-.4-.1a1.66 1.66 0 0 1-.44.07 1 1 0 0 1-.65-.25L59 20a.36.36 0 0 1 .13-.17l-2-.38c-1-.18-2-.37-2.77-.56a.38.38 0 0 1 0 .15v.06h-.18a.83.83 0 0 1-.84-.48c-.83-.27-1.61-.46-2.3-.63a12.92 12.92 0 0 1-2.71-.86l-.42-.21a1 1 0 0 1-.22 0 .6.6 0 0 1-.23 0 23.56 23.56 0 0 0-1.73 3.29l.17.1a1.37 1.37 0 0 0 .63.26.49.49 0 0 0 .42-.28v-.07h.07a2 2 0 0 0 .46.06c.43 0 1 .06 1 .51v.1h-1.1c-.61 0-1.23 0-1.85-.09l-.24.77a2.33 2.33 0 0 1 .53.28l.2.14h-.16l.27.06v.07a.27.27 0 0 1-.07.21.31.31 0 0 1-.23.1.26.26 0 0 1-.23-.12.28.28 0 0 1 0-.29h-.09a1.74 1.74 0 0 1-.39 0l-.32 1a2.61 2.61 0 0 1 .71 0 2 2 0 0 0 .71 0h.07v.06a.18.18 0 0 1 0 .19c-.11.21-.64.22-.75.22a1.55 1.55 0 0 1-.88-.23L44 25.91c.84.21 1.7.45 2.58.7l1.86.51a8 8 0 0 0 1.93.33 2.4 2.4 0 0 0 .74-.1l.33.08v.1c-.09.38-.47.57-1.11.57a4.79 4.79 0 0 1-.5 0 18.91 18.91 0 0 1-3.25-.82 26.39 26.39 0 0 0-2.78-.75l-.64 2.1a.64.64 0 0 1 .33.21.35.35 0 0 1 .06.32v.07h-.14a2.05 2.05 0 0 1-.4-.05l-.23.76h.07a2.17 2.17 0 0 1 .42.06 3.5 3.5 0 0 0 .46.07v-.12l.15.07a6.54 6.54 0 0 0 2.58.58.69.69 0 0 1-.21-.08l-.3-.17h.34a7.41 7.41 0 0 1 1.72.17c.37.07.74.13 1.15.17h.06v.05a1.26 1.26 0 0 0 .2.27 1.34 1.34 0 0 1 .23.32l.06.13h-.87a7.25 7.25 0 0 0 2.6.45h.06c.13.19.55.28 1 .37.23 0 .47.1.7.16l.19.06-.16.12a1.16 1.16 0 0 1-.7.2 5.42 5.42 0 0 1-1.43-.29 5.62 5.62 0 0 0-1.45-.3 1.28 1.28 0 0 0-.53.1l-.15.07v-.21c0-.17 0-.23-.31-.26h-.25l.2-.15a.37.37 0 0 1 0-.23v-.08a21.85 21.85 0 0 1-4.5-.78l-.65-.16v-.08h-.07a1.74 1.74 0 0 1-.54-.13l-.24-.07-.05.07-2.16 7.28a12.67 12.67 0 0 1 5.25 3.08zm12.92 4.2h.12a1.5 1.5 0 0 0 .41.07.59.59 0 0 0 .33-.09l.21-.14h-.25a1.22 1.22 0 0 1-.28-.08.55.55 0 0 0-.2-.06.33.33 0 0 0-.27.2zM55 38.63l.06.12.1-.09c.08-.07.17 0 .29 0a.8.8 0 0 0 .3.08.43.43 0 0 0 .2-.05l.11-.06-.06-.08a.83.83 0 0 0-.6-.21c-.11 0-.3 0-.37.13a.17.17 0 0 0-.03.16zm2-18l.07.21a.46.46 0 0 0 .48.33 1.91 1.91 0 0 0 .54-.11l.2-.06h.21l-.17-.14a.53.53 0 0 0-.35-.13 1.24 1.24 0 0 0-.25 0 1.28 1.28 0 0 1-.27 0 .67.67 0 0 1-.27-.06zm-10.57 8.62h-.19c-.26 0-.42 0-.54.09-.05-.1-.13-.2-.24-.2a.26.26 0 0 0-.19.1l-.1.11h.14c.13 0 .17.14.23.29a.56.56 0 0 0 .43.43H46a.66.66 0 0 0 .15-.41.44.44 0 0 1 .09-.27zm1.33-6.92H48a1.48 1.48 0 0 1 .32.05 1.67 1.67 0 0 0 .38.06.57.57 0 0 0 .39-.13l.17-.14h-.22l-.3-.06a2.4 2.4 0 0 0-.46-.07.46.46 0 0 0-.39.16zm-1.48 1.58h.17a1.4 1.4 0 0 1 .43.12.91.91 0 0 0 .33.09.41.41 0 0 0 .25-.09l.19-.14h-.24a1.23 1.23 0 0 1-.3-.11 1.13 1.13 0 0 0-.45-.14.34.34 0 0 0-.29.16zm-.42 1.15h-.38a.81.81 0 0 1-.22-.06.91.91 0 0 0-.29-.07.22.22 0 0 0-.23.23v.11h.55a.51.51 0 0 0 .25-.05zm.69.74a.33.33 0 0 0 .33-.22v-.1h-.1a.86.86 0 0 0-.74 0l-.12.08.12.08a.92.92 0 0 0 .51.16zm2.81 1.07l-.23-.07a5.4 5.4 0 0 1-.58-.23 2.65 2.65 0 0 0-1-.31 1.14 1.14 0 0 0-.27 0l-.53.13.54.06a2.82 2.82 0 0 1 .81.29 2.17 2.17 0 0 0 .83.27.58.58 0 0 0 .26-.06zm1.46-5.56c.14 0 .24 0 .24-.1s-.08-.1-.12-.11a1.1 1.1 0 0 0-.85-.1H50v.09s.08.22.82.22zm1.15.85l.06.17a.74.74 0 0 0 .76.44 1.3 1.3 0 0 0 .54-.11l.13-.06-.1-.1a.87.87 0 0 0-.63-.19 1.37 1.37 0 0 1-.56-.1h-.06a8.82 8.82 0 0 0 .94.06 4.13 4.13 0 0 0 1.58-.27l.26-.12-.27-.07a8.48 8.48 0 0 0-1.62-.19 8.87 8.87 0 0 1-1.83-.21h-.13v.13c0 .07 0 .07-.07.08a.24.24 0 0 0-.25.25v.07h.07a6.54 6.54 0 0 0 1.21.22zm.83 5.61l-.09-.12-.08.14a.42.42 0 0 1-.12-.07.44.44 0 0 0-.25-.12.22.22 0 0 0-.19.12c0 .21.24.3.45.3a.34.34 0 0 0 .31-.13.18.18 0 0 0-.03-.12zm2-1.23h.1v-.1a.62.62 0 0 0-.2-.42c-.13-.14-.37-.28-.54-.23a.32.32 0 0 0-.24-.13l-.1.06a.31.31 0 0 1-.15.07.55.55 0 0 1-.23-.1l-.1-.06v.11a.25.25 0 0 0 0 .2h-.17a2 2 0 0 0-.35 0 .42.42 0 0 0-.34.13l-.11.13h.17l.78.16a8.1 8.1 0 0 0 1.51.17zM51 43.1l-.21-.1a5.58 5.58 0 0 0-2-1 .25.25 0 0 0 .16-.16v-.12h-.12a1.1 1.1 0 0 1-.58-.14h-.08v.07a.25.25 0 0 0 0 .27.24.24 0 0 0 .07.07 1.37 1.37 0 0 0-.43.1l-.54.23h.59a3 3 0 0 1 1.61.51 2.8 2.8 0 0 0 1.21.44h.15zm1.39-.15l-.11-.06v-.1l-.51-.12v.09a.38.38 0 0 0 0 .23l-.26.2H52a.37.37 0 0 0 .29-.1zm1.22-1.89a.24.24 0 0 0-.23.12v.09h.09a.3.3 0 0 1 .1.09.45.45 0 0 0 .28.17h.05a.25.25 0 0 0 .06-.28.38.38 0 0 0-.38-.19zm-.61-.45a.48.48 0 0 0 .48.42.38.38 0 0 0 .29-.13l.08-.1-.12-.05-.14-.09a.77.77 0 0 0-.4-.18.24.24 0 0 0-.17.07zm-1.39-.36h.18a3.25 3.25 0 0 0 .42 0 .79.79 0 0 0 .3 0l.38-.15h-.41l-.25-.1a1.23 1.23 0 0 0-.33 0 .26.26 0 0 0-.27.18zm-.1 1c-.08-.28-.42-.37-.75-.45l-.34-.1h-.13v.14c0 .35.39.43.74.49a2.79 2.79 0 0 1 .36.08l.18.06zm-1-1.13H51a.56.56 0 0 0 .3-.07l.2-.12-.22-.06-.16-.06a.66.66 0 0 0-.25-.07.31.31 0 0 0-.28.21zm-2.74.13h.73a3.06 3.06 0 0 1 .69.16 2.86 2.86 0 0 0 .78.17.51.51 0 0 0 .44-.2l.06-.08-.09-.06a2.46 2.46 0 0 0-1.91-.2zm-.09-2.58a.62.62 0 0 0 .43.2h.08v-.07a.28.28 0 0 0 0-.27.35.35 0 0 0-.28-.15.25.25 0 0 0-.24.18zM47.06 39a.49.49 0 0 0 .4.2.26.26 0 0 0 .27-.19v-.12h-.28a.69.69 0 0 0-.22-.06.18.18 0 0 0-.19.14zm-1.74-3.22v-.08h-.08a.63.63 0 0 0-.25-.06.43.43 0 0 0-.37.25.16.16 0 0 0-.17.12v.09h.09a1.14 1.14 0 0 0 .36.07.47.47 0 0 0 .42-.35zm13.53 6.5h.07v-.06h-.14a.13.13 0 0 0 .07.1zm32.62-21.85l-.71-.15.73.21zM48.22 30.94h.54a.79.79 0 0 0-.54 0zm.39 13.33l-.33.07v.06a.78.78 0 0 1 .25 0 2 2 0 0 1 .95.35l.12.07a.2.2 0 0 1 .16-.16l-.4-.15a1.8 1.8 0 0 0-.75-.24zM63 6.6l.34.15a4.79 4.79 0 0 0 1.91.56c-.69-.2-1.39-.4-2-.64zm23 22.77a.15.15 0 0 1-.11.11h.12a3.5 3.5 0 0 0 0-.45.48.48 0 0 1-.13.17zM60.38 17.29a.56.56 0 0 0-.32 0H60h.13a1.61 1.61 0 0 1 .34.06c-.02 0-.03-.04-.09-.06zm-5 18.49h-.19zm29.5-7.21h-.35a1.54 1.54 0 0 0 .69.11h.24a1.4 1.4 0 0 0-.56-.11zM50.45 15.73c-.17-.06-.36-.1-.54-.14l-.26-.06.05.05c.3.05.54.1.75.15zm10.19 27.19h.12v-.07a.28.28 0 0 1-.12.07zM37.27 69.54zm-5.15 4.72a24.94 24.94 0 0 0 9.52 0 .19.19 0 0 1 0-.11v-.05h.05a1.58 1.58 0 0 1 .57 0h.2a.13.13 0 0 1 .12-.1.13.13 0 0 1 .1 0 24.79 24.79 0 0 0 3.5-1.14 15.1 15.1 0 0 1-2.68-.47h-.08v-.09c0-.07 0-.18.11-.21a2.57 2.57 0 0 0-.38-.07 1.76 1.76 0 0 1-.35-.08.28.28 0 0 1-.3.21h-.19a.78.78 0 0 0-.19 0l-.08-.07V72c.05-.15.53-.16.59-.16h.07a.45.45 0 0 1-.18-.24 13.78 13.78 0 0 1-2.83-.51c-.49-.12-1-.25-1.48-.34l-.36-.07.35-.12a1.76 1.76 0 0 1 1 .06 3 3 0 0 0 .54.11 5.09 5.09 0 0 0-1.42-.36 4.52 4.52 0 0 1-1.16-.28l-.31-.09h.23H37v-.09a.15.15 0 0 0 0-.1.39.39 0 0 1 0-.2h-.3a.69.69 0 0 1-.19.2.79.79 0 0 1-.41.14.29.29 0 0 1-.27-.15 1.06 1.06 0 0 1-.57.06l-.1.15v-.17h-.09a1.59 1.59 0 0 0-.46-.05.21.21 0 0 1-.2 0h-.11l-.15.07v-.16h-.14.16c-.25 0-.55-.12-.58-.4v-.24l.19.16a1.24 1.24 0 0 0 .6.12c.35 0 .73 0 .88.29a1 1 0 0 1 .67 0H36l.35.06a.42.42 0 0 0-.17-.08c-.14 0-.37-.13-.29-.39v-.09h.09a6.28 6.28 0 0 0 1.45.25c.21 0 .41 0 .58.06h.2l-.15.14a.81.81 0 0 1-.56.15h-.07a.19.19 0 0 1 .06.18.27.27 0 0 1-.15.18h.43v-.07c0-.15.14-.23.35-.23h.34a3 3 0 0 0 .48 0h.16l-.07.14a.38.38 0 0 1-.37.25 1.22 1.22 0 0 1-.37-.08.74.74 0 0 0-.29-.1c.28 0 .57.12.89.2 0-.09.16-.1.33-.11s.47 0 .55-.18l.07-.14.1.12a.53.53 0 0 0 .36.16.68.68 0 0 1 .47.22 1.69 1.69 0 0 1 .75-.2h.13v.12a1.06 1.06 0 0 1-.09.23.19.19 0 0 0 0 .13h.13a2 2 0 0 0 1 .09l.16-.07v.18a.2.2 0 0 0 .07.22L43 71l.3.13v-.03a11.11 11.11 0 0 1 1.35.33 8.06 8.06 0 0 0 2.69.45 2.14 2.14 0 0 0 .46.25c.68-.34 1.35-.7 2-1.1a24.83 24.83 0 0 0 10.73-13.61 2 2 0 0 1-.35 0 7.33 7.33 0 0 1-1.42-.21l-.52-.11h-.12v-.11a.18.18 0 0 0-.07-.24.16.16 0 0 1-.17.12s-.06.13-.24.13-.34 0-.41-.18a.2.2 0 0 1 0-.22v-.06h.07a.46.46 0 0 0 .31 0h.12l-.13-.06a3.18 3.18 0 0 1-.46-.23l-.33-.21h.39a6.53 6.53 0 0 1 1.69.47 9.17 9.17 0 0 0 1.64.48c.14-.46.27-.92.38-1.38h-.07v-.1a2.62 2.62 0 0 1-.39-.11h-.2.12v-.1a1.05 1.05 0 0 1 .67.26c.07-.28.12-.56.18-.85a6.3 6.3 0 0 1-1 .1 3.7 3.7 0 0 1-1.43-.29l-.2-.08.19-.1a1 1 0 0 1 .49-.1 4.7 4.7 0 0 1 .81.1h.1a9 9 0 0 0-1.82-.51c-.49-.1-1-.21-1.53-.36h-.07v-.08a.3.3 0 0 1 0-.1 8.2 8.2 0 0 0-2.06-.21 5.06 5.06 0 0 1-2.92-.61l-.24-.18h.3a6.65 6.65 0 0 1 1.05.11c-1.14-.34-2.35-.66-3.55-1q-.06.44-.14.86a12.74 12.74 0 0 1-2.59 5.52A12.84 12.84 0 0 1 42.48 62c-.23.14-.46.27-.7.4h.24a.57.57 0 0 1 .46 0h.08v.09l-.07.31v.1h-.1l-.39-.08h-.11v-.11l-.26-.14a12.83 12.83 0 0 1-16.8-4.67l-.09-.15h-.07v-.08l-.19-.34-.35-.33a5.28 5.28 0 0 0-1.92-.91h-.06V56c0-.15-.23-.23-.42-.32s-.49-.22-.54-.48a.22.22 0 0 1 .2-.23 6.11 6.11 0 0 1 1.45.64 10.67 10.67 0 0 0 1.13.55 12.8 12.8 0 0 1 .08-10.34H12.16a24.92 24.92 0 0 0 19.9 28.46zm9.25-.53h-.16l-.3-.07a1 1 0 0 0-.63 0h-.07v.07c.05.23.34.35.6.35a.54.54 0 0 0 .45-.19zm-1.16-2.33v.18c0 .33.42.47.8.47a.87.87 0 0 0 .52-.13l.13-.11-.16-.06a2 2 0 0 0-.57-.11 1.28 1.28 0 0 1-.58-.15zm-1.49.79l.46-.06a.73.73 0 0 1 .26.15 1.32 1.32 0 0 0 .77.33.87.87 0 0 0 .37-.09h.07l.09.05a.35.35 0 0 0 .31 0 .11.11 0 0 1 .11 0h.1v-.1a.32.32 0 0 0 0-.28.32.32 0 0 0-.24-.13h-.06v.05l-.1.12-.08.1h-.17a1.65 1.65 0 0 1-.34-.17 1.84 1.84 0 0 0-.82-.31.55.55 0 0 0-.3.08zM56.87 59a.38.38 0 0 0 .16.13.31.31 0 0 0-.09.13.59.59 0 0 0 .37.2.19.19 0 0 0 .19-.13.31.31 0 0 0-.07-.15.2.2 0 0 0 0-.22c-.07-.14-.3-.18-.41-.18s-.23.08-.24.13zm-2.54 4.48a1.92 1.92 0 0 0 .76.26.37.37 0 0 0 .35-.19l.1-.18h-.2a.7.7 0 0 1-.5-.14.69.69 0 0 0-.35-.13.46.46 0 0 0-.29.12l-.13.11.17.06zm1.22.45h-.18a1.63 1.63 0 0 0-.74 0l-.15.06.12.11a1.06 1.06 0 0 0 .53.14c.22 0 .31-.09.35-.16zm0-4.69a.78.78 0 0 0-.49 0l-.17.11.18.06a.18.18 0 0 0 0 .15.16.16 0 0 0 .13.05 1.41 1.41 0 0 1 .53-.07h.58l.11-.48h-.1l-.25-.06H56v.11c0 .13-.07.17-.22.17zM54.2 59l-.14.12.27.07a2.22 2.22 0 0 0 .52.09.43.43 0 0 0 .4-.19l.08-.13h-.15l-.33-.06a.62.62 0 0 0-.65.1zm-.52-1a.52.52 0 0 0 .38.13.7.7 0 0 0 .42-.12l.16-.14h-.41a1.14 1.14 0 0 0-.3-.06.26.26 0 0 0-.26.18zm-2.19-4h-.06v.06a.25.25 0 0 0 0 .22c.07.12.25.14.42.16a.89.89 0 0 1 .27.06l.12.07v-.14a.3.3 0 0 0-.06-.27c-.18-.21-.51-.16-.69-.16zm-.58-1.33c0 .17.35.19.48.19s.28 0 .29-.13-.12-.15-.3-.18a.32.32 0 0 0-.24-.12.25.25 0 0 0-.24.18zm-.13 12.6l.13.06a2.5 2.5 0 0 0 .74.16c.37 0 .59.07.64.27l.15.65v-.67c0-.07 0-.07.08-.07h.22a.26.26 0 0 0 .22-.09l.07-.09-.03-.06a4.37 4.37 0 0 0-1.63-.4.63.63 0 0 0-.46.13zm-1.35 2.93h.13a.61.61 0 0 1 .23 0h.12a.3.3 0 0 0 .22-.13v-.11a.48.48 0 0 0-.37-.14.29.29 0 0 0-.31.22zm-2.28-6.56a2.83 2.83 0 0 0-.78-.19c-.19 0-.22.09-.23.15v.09h.09c.38.07.71.15.93.21l.28.06h.09v-.08c.02-.09.01-.1-.38-.25zM47 63.16a.61.61 0 0 0-.43-.2h-.07v.06a.27.27 0 0 0 0 .28.34.34 0 0 0 .29.15.26.26 0 0 0 .27-.19v-.06zm-1.21-3.67a.26.26 0 0 0 .23.11.34.34 0 0 0 .36-.28v-.08l-.54-.12v.07a.3.3 0 0 0-.05.3zm-.93 7.76l.12.17a2.73 2.73 0 0 0 1.32.42l.32.06v-.07.08l.27.15-.08-.17h.09a.93.93 0 0 0 .37.11.35.35 0 0 0 .28-.13l.14-.16h-.21a1 1 0 0 1-.26-.06c-.21-.07-.43-.11-.53 0a5.93 5.93 0 0 0-1.61-.45zm-4.38-.56h-.1v.1l-.07.31v.1h.09a1.77 1.77 0 0 1 .77.34l.1.07v-.11c.05-.12.1-.12.13-.12a.79.79 0 0 1 .28.1 1.22 1.22 0 0 0 .46.15.23.23 0 0 0 0-.3h.28a1.77 1.77 0 0 0 .42 0l.25-.07L43 67a2.54 2.54 0 0 0-1.37-.23h-.28a3 3 0 0 1-.86-.08zm-1.08 0h.59a.38.38 0 0 0 .4-.24.49.49 0 0 0-.4-.17.52.52 0 0 0-.54.36zm-.93-.08l.15-.08h.2a.55.55 0 0 0 .25.08.33.33 0 0 0 .2-.07l.07-.06-.05-.08a.92.92 0 0 0-.56-.25.23.23 0 0 0-.26.23zm-.94 1.18h.11a1.83 1.83 0 0 1 .73.17 2.55 2.55 0 0 0 1 .22h.14v-.13s0-.05.06-.1a.17.17 0 0 0 .08-.15c0-.08-.1-.1-.13-.11h-.05c-.12.1-.52 0-.89-.1a2.61 2.61 0 0 0-.63-.13c-.23 0-.28.13-.29.21zm-24-19a.27.27 0 0 0-.31-.14.42.42 0 0 1-.14 0h-.1v.1a.32.32 0 0 0 .06.27.25.25 0 0 0 .2.09.36.36 0 0 0 .32-.21zm7.27-.21v.08h.07l.39.09h.08v-.08c.12-.32 0-.43-.14-.47h-.12v.13h.02a.22.22 0 0 0-.25.19zm.81 18.19h.08l.64-.13-.65-.06h-.3a2.42 2.42 0 0 0-.43-.06.4.4 0 0 0-.31.1.36.36 0 0 0-.08.28.25.25 0 0 0 .2.1.47.47 0 0 0 .23-.09.39.39 0 0 1 .28-.09l-.08.32h.1a.36.36 0 0 1 .23.11l.39.55-.24-.7a1 1 0 0 1-.01-.39zm1.88-5c0-.17-.46-.19-.59-.19a.72.72 0 0 0-.26 0l-.12.05.08.1a1.08 1.08 0 0 0 .62.25.25.25 0 0 0 .27-.22zm2.86 6.9c-.07-.05-.11-.09-.11-.13v-.58l-.15.56a.44.44 0 0 0 0 .27.33.33 0 0 0-.14.13l-.06.11L26 69a.56.56 0 0 0 .23 0h.23l.11.06v-.12a.35.35 0 0 0-.17-.37zm.31-1.82v-.06a.49.49 0 0 0-.4-.2.25.25 0 0 0-.27.19v.08h.06a.71.71 0 0 0 .33.12.34.34 0 0 0 .25-.12zm5.91-1.69h.06a.2.2 0 0 0 0-.22c-.07-.14-.3-.18-.41-.18s-.23.08-.24.13a.75.75 0 0 0 .64.17zm.49 2.13a.53.53 0 0 0 .33-.09l.29-.22h-.36a.91.91 0 0 1-.42-.07.72.72 0 0 0-.47 0l-.18.06.15.11a1.18 1.18 0 0 0 .72.11zm.65 1.41a.62.62 0 0 0-.43-.2h-.06a.27.27 0 0 0 0 .29.33.33 0 0 0 .3.15.27.27 0 0 0 .29-.21zm1.8-.29h-.11a1.3 1.3 0 0 0-.66.07l-.45.14.4.07h.13a1.54 1.54 0 0 0 .31 0 .33.33 0 0 0 .34-.23zm.86-1c.56.34.74-.13 0 0zm-.37-.46h-.1a.15.15 0 0 0-.13.05.24.24 0 0 0 0 .2v.06h.06l.17.07a.65.65 0 0 0 .26.08c.12 0 .22-.08.27-.23v-.1h-.1a.46.46 0 0 0-.18 0 .15.15 0 0 0-.12-.14h-.11V67zm-1-1.32v.07h.32a.53.53 0 0 0 .32-.09l.21-.15h-.26l-.07-.06a.33.33 0 0 0-.07-.12l-.21-.22v.3h-.13a.17.17 0 0 0-.13.06.24.24 0 0 0 .02.21zm-.36.43a.18.18 0 0 0-.19.14.49.49 0 0 0 .39.2.26.26 0 0 0 .27-.19v-.12h-.27a.71.71 0 0 0-.2-.03zm-4.42 2v-.26L30 68h-.27a1.21 1.21 0 0 0-.41 0 .49.49 0 0 0-.35-.37h-.07v.06h-.26a.26.26 0 0 0-.29.22c.05.23.31.3.56.35h.38a3.15 3.15 0 0 0 .48.05.46.46 0 0 0 .36-.11.31.31 0 0 0 .09-.2zm1.14 4c-.09-.16-.37-.2-.52-.2s-.22 0-.26.09l-.09.13h.16a1.19 1.19 0 0 1 .49.17l.16.08v-.08a.21.21 0 0 0 .06-.18zm.41-7.48l-.25-.07-.24-.08a1.53 1.53 0 0 0-.53-.14.47.47 0 0 0-.38.17l-.1.12h.2-.16v.05l-.2.06h-.05a1.33 1.33 0 0 0-.34.16l-.21.15h.26a2.32 2.32 0 0 1 .32.06 1 1 0 0 0 .24 0 .32.32 0 0 0 .26-.13l.1-.13h-.17c.16 0 .23 0 .24-.07h.07-.07v-.06l.32.06a.28.28 0 0 0 0 .29.33.33 0 0 0 .3.15.26.26 0 0 0 .12-.17v-.1h-.1a.41.41 0 0 1-.3-.13h.1a.74.74 0 0 0 .33-.07zm.31-.4a.17.17 0 0 0-.12.11v.08h.07a2.27 2.27 0 0 0 1 .31.43.43 0 0 0 .33-.12.35.35 0 0 0 .09-.19h.09a.27.27 0 0 1-.09.14l-.2.14h.45a1.17 1.17 0 0 0 .3.06.26.26 0 0 0 .27-.18l-.06-.06h.12c.14 0 .22 0 .25-.11l.05-.13a.33.33 0 0 0 .09-.27.2.2 0 0 0-.13-.13h-.07v.06c-.11.14-.15.11-.23.09l.12-.18-.41.2a1.71 1.71 0 0 0-.42-.12h-.08v.08a.46.46 0 0 1-.22.26.8.8 0 0 1-.32.08.22.22 0 0 0 .08-.16v-.06h-.06a1.64 1.64 0 0 0-.72-.17.79.79 0 0 0-.53.16l-.19.18h.32a1.56 1.56 0 0 1 .22-.06zM48.78 44l-.78-.24c.09.16.19.33.27.49l.3-.17a.71.71 0 0 1 .21-.08zm12.93 4.8a10.31 10.31 0 0 0-1.12-.43h-.09v-.09a.25.25 0 0 1 .26-.19h.08a.16.16 0 0 1 0-.07.23.23 0 0 1 0-.19l.05-.08.08.05c.11.07.13.07.17.07h.12-.13l.09-.11a.25.25 0 0 1 .19-.1.35.35 0 0 1 .19.08v-.31l-.29-.08-.16.1a.65.65 0 0 1-.35.09 3.2 3.2 0 0 1-.81-.16 3.91 3.91 0 0 0-.64-.15h-.39l.36-.15a1.13 1.13 0 0 1 .44-.09h.19c-1.23-.35-2.49-.71-3.78-1L56 46a1.12 1.12 0 0 1-.85-.08 2.55 2.55 0 0 0-.69-.17.63.63 0 0 1-.09-.2s0-.07-.1-.14a9.15 9.15 0 0 1-1.63-.41 7.65 7.65 0 0 0-1.72-.39.8.8 0 0 1-.53.18 1.57 1.57 0 0 1-.37-.05c.13.31.56.33 1 .35a3.31 3.31 0 0 1 .7.08l.38.11-.38.08v.08a.51.51 0 0 1-.06.13h.21c.21 0 .49 0 .54.3a.44.44 0 0 1-.35.2.89.89 0 0 1-.5-.23 1.15 1.15 0 0 0-.27-.16 9.18 9.18 0 0 0-1.15-.26 10.2 10.2 0 0 1-1.5-.36c0 .12.11.23.15.36a12.51 12.51 0 0 1 .52 1.89h.21a3.41 3.41 0 0 0 .44.06h.38l.07-.08a.23.23 0 0 1 .18-.1.35.35 0 0 1 .21.1c.07.05.14.1.21.09l.32-.06-.24.23-.07.08h.15c.18 0 .4.05.42.25v.05a.73.73 0 0 1-.5.15 2.47 2.47 0 0 1-1.65-.72l-.09-.14c0 .18.07.36.1.55v.1a12.68 12.68 0 0 1 .06 2.78 8.79 8.79 0 0 1 1.34.34c1.36.44 3 .82 4.7 1.23l2.15.52h.1v.1a.24.24 0 0 1-.17.17l1.21.23 2.6.52a25.13 25.13 0 0 0 .26-4.95zm-9.86-.43l-.13-.25v.27h-.12a.6.6 0 0 0-.21-.05.17.17 0 0 0-.18.15v.06h.05a1 1 0 0 0 .45.15.22.22 0 0 0 .2-.09.23.23 0 0 0-.06-.23zm3.45-1.9a.27.27 0 0 0 .27-.29v-.08l-.47-.1v.07a.28.28 0 0 0 0 .28.27.27 0 0 0 .2.12zm1.47 1A2.36 2.36 0 0 0 58 48a.89.89 0 0 0 .51-.16l.12-.08-.12-.08A7.28 7.28 0 0 0 57.2 47a.15.15 0 0 0 .07-.08v-.12h-.2l.13-.1-.14-.07a1.41 1.41 0 0 0-.43-.12c-.17 0-.27 0-.34-.19l-.06-.12-.1.09a.49.49 0 0 1-.27.07c-.17 0-.41 0-.49.3v.1h.11a3.51 3.51 0 0 1 1.29.68zm1.53 5h.15v-.07a.31.31 0 0 0-.07-.26.52.52 0 0 0-.41-.13 2.76 2.76 0 0 0-.46.05h-.3l.13.18h.05a2 2 0 0 1 .46.12 1.21 1.21 0 0 0 .45.07zm1.19.37l-.12-.08a.89.89 0 0 0-.42-.15.42.42 0 0 1-.25-.08l-.14-.13v.19a.15.15 0 0 1 0 .1.34.34 0 0 0-.1.19v.09h.09a1.68 1.68 0 0 0 .43.06.86.86 0 0 0 .47-.13zm.5-2.7l.33-.1-.32-.13-.22-.07a1.37 1.37 0 0 0-.47-.12.5.5 0 0 0-.37.16l-.15.17H59a2.41 2.41 0 0 1 .37 0 2.62 2.62 0 0 0 .4 0 .73.73 0 0 0 .23.05zm1.35.73v-.11h-.12l-.22-.12a2.25 2.25 0 0 0-.52-.09.43.43 0 0 0-.4.2l-.11.18h.2a1.14 1.14 0 0 1 .43.08 1.29 1.29 0 0 0 .38.09.33.33 0 0 0 .37-.27zm32-18a6 6 0 0 1-.59-.21c-.08 0-.18 0-.2-.13a.14.14 0 0 1 .08-.15 4.41 4.41 0 0 0-.94-.12 3.1 3.1 0 0 1-.86-.13h-.1v-.08a35.19 35.19 0 0 0-6.06-1.16h-.15l.07-.13v-.05a6 6 0 0 0-.91-.16 3.26 3.26 0 0 1-1.3-.34h-.06V30a.37.37 0 0 1 .4-.33 1.52 1.52 0 0 1 .42.08h.14c1 .18 2.38.52 3.84.88l2 .48 1.49.32a24.13 24.13 0 0 1 2.7.66 24.94 24.94 0 0 0-.07-4.6c-.35-.11-.72-.22-1.11-.3l-.39-.09.38-.11a1.17 1.17 0 0 1 .32 0 2.68 2.68 0 0 1 .75.14q-.12-1-.33-2a.3.3 0 0 1-.22-.1.31.31 0 0 1 0-.27v-.08h.15q-.25-1.1-.6-2.19l-.51-.13a9.12 9.12 0 0 1-1.43-.36l-.4-.18h.51a8.56 8.56 0 0 1 1.72.23q-.2-.58-.44-1.14a10.06 10.06 0 0 1-1.34-.52l.06-.14c-1.22-.26-2.44-.5-3.59-.68h-.17l.11-.13a.34.34 0 0 1 .12-.1.53.53 0 0 1-.36-.15l-.09-.1.13-.06a1.17 1.17 0 0 1 .5-.1 3.39 3.39 0 0 1 1 .24 3.18 3.18 0 0 0 1 .22 1 1 0 0 0 .26 0 .13.13 0 0 1 .23.08l1.72.47a24.7 24.7 0 0 0-5-7.21 10.14 10.14 0 0 1-2.96-.73l-.64-.23h.68a17.26 17.26 0 0 1 2.43.37l-.13-.12-1.69-.4-.45-.1a.6.6 0 0 0-.2.05h-.12a.56.56 0 0 1-.25-.21c-.06-.07-.09-.12-.15-.13a3.78 3.78 0 0 0-.94-.11 7 7 0 0 0-1.32.15 4.64 4.64 0 0 0-.6-.14 2.24 2.24 0 0 1-1-.32l-.09-.08.1-.08a.41.41 0 0 1 .15-.07c-1.89-.45-3.59-.77-5.24-1.08-1.81-.34-3.51-.65-5.41-1.13h-.15l.09-.12a.34.34 0 0 1 .27-.14.91.91 0 0 1 .26.06l.19.05a1.11 1.11 0 0 0-.89-.09 2.23 2.23 0 0 1-.52.07 1.54 1.54 0 0 1-.52-.09h-.08L67 8a.16.16 0 0 1 .17-.12h.14l-1.41-.41-.35-.1a.45.45 0 0 1 .09.24.35.35 0 0 0 0 .13l.18.05.58.17h-.66a.36.36 0 0 1-.15.04c-.59-.17-1.19-.28-1.77-.4a14.33 14.33 0 0 1-3.25-.92h-.07a.3.3 0 0 1-.12.14h-.06v-.05h-.06l-.26.06a1.67 1.67 0 0 1 .3.15 8.66 8.66 0 0 1 1.7.63 17.35 17.35 0 0 0 2.69 1.09v.19a10.58 10.58 0 0 1-3.1-1C61 7.65 60.5 7.41 60 7.23l-.56-.18-.44.14h.11a1.17 1.17 0 0 1 .78.23.23.23 0 0 1 .05.2v.14l-.12-.08a.86.86 0 0 0-.43-.14.94.94 0 0 1-.48-.16l-.12-.09c-.41.18-.83.37-1.24.57v.16h-.08a.37.37 0 0 1-.13 0h-.06a.27.27 0 0 1 0 .19v.09h-.09l-.2-.07-.14.07a13.45 13.45 0 0 1 3 1.23l.23.14.33-.09a1.79 1.79 0 0 1 1 .15 2.31 2.31 0 0 0 .79.19h.28a.14.14 0 0 1 .1.16h.11a.13.13 0 0 1 .12.06.23.23 0 0 1 0 .23v.06h-.21a4.47 4.47 0 0 1-1.23-.3 8.81 8.81 0 0 0-1.09-.32L60 9.7h.07l-.44-.05a20.79 20.79 0 0 1-3.31-.91l-.3-.1-.56.36c-.25.16-.49.33-.74.49a25.27 25.27 0 0 0-3.56 2.85l1.54.64.14.06-.11.1a.47.47 0 0 1-.32.12 1.24 1.24 0 0 1-.43-.11.87.87 0 0 0-.64-.07l-.11-.08h-.07c-.12 0-.24-.06-.25-.17a.12.12 0 0 1 0-.05h-.1c-.15.15-.29.32-.44.47l.53.32-.66-.18q-.74.79-1.4 1.63l.4.14a.45.45 0 0 1 .29.24 2.56 2.56 0 0 1 1.18.12c.22.05.47.11.72.16v-.1a1.3 1.3 0 0 1 .23-.58.35.35 0 0 1 .27-.14.45.45 0 0 1 .29.13c.09 0 .17 0 .19.13s0 .12-.09.15h.18a3.07 3.07 0 0 1 .74.24l.15.08-.15.09a1.14 1.14 0 0 1-.91 0l-.24-.06a7.76 7.76 0 0 0 1.34.31h.19l-.14.14a1.09 1.09 0 0 1-.8.29 2.34 2.34 0 0 1-.39 0 4.44 4.44 0 0 0 1.27.31A4.75 4.75 0 0 1 55 17l.44.23h-.49a4.52 4.52 0 0 0-.73 0h-.4a1.33 1.33 0 0 1-.55-.1 3.3 3.3 0 0 1-1.68-.47 6 6 0 0 0-2-.62.92.92 0 0 0-.46.11c-.28-.12-.57-.22-.87-.32-.16.23-.32.47-.47.7l.64.15-.17.13a.7.7 0 0 1-.21.09h.41a26.44 26.44 0 0 1 4.35.86 16.47 16.47 0 0 0 4.65.75.25.25 0 0 1 .17.13.17.17 0 0 1 0 .15c.25.06.53.11.84.16a5.89 5.89 0 0 1 2.06.6l.11.07-.09.09a.33.33 0 0 1-.12.07l.71.17c.25-.18.51-.37.78-.54a12.75 12.75 0 0 1 1.94-1c-1-.27-2-.54-3.09-.76a.36.36 0 0 1-.12-.07h-.07a4.49 4.49 0 0 1-2.07-.47h-.06v.05l-.1-.08h-.07l-.37-.14h.08a9.67 9.67 0 0 0-1.45-.33 10.3 10.3 0 0 1-1.32-.29h-.1v-.1c.1-.22.32-.23.51-.24s.26 0 .31-.08l.07-.09.08.08a2.84 2.84 0 0 0 1.65.59.63.63 0 0 0 .47-.14l.05-.06h.07c.21.12.19.5.16.69a1.48 1.48 0 0 0 .3 0h.27a.38.38 0 0 1 .35.16l.05-.06a.29.29 0 0 1 .24-.17v-.05.06a20.11 20.11 0 0 1 3.37.86c.48.15 1 .31 1.47.44a12.73 12.73 0 0 1 13 3.14v-.06l.09-.13.07.14s.09.06.15.08a.4.4 0 0 1 .27.19.29.29 0 0 1 0 .24v.06H78a12.88 12.88 0 0 1 1.33 1.77c.09.15.17.32.26.47h.15a1.33 1.33 0 0 1 .59.08l.24.09-.24.1a1.68 1.68 0 0 1-.5.09h-.08a12.64 12.64 0 0 1 .87 2.12 21.63 21.63 0 0 0 3.17.46H84l-.12.15a.63.63 0 0 1-.54.18 5.63 5.63 0 0 1-.83-.09 5.47 5.47 0 0 0-.8-.09c-.22 0-.35 0-.4.13v.07h-.08l-.37-.1v.2a10.49 10.49 0 0 1 1.58.44l.21.07c0-.09.18-.1.31-.1a9.69 9.69 0 0 1 3.07.73v-.12h.11a5.43 5.43 0 0 0 1 .22 3.55 3.55 0 0 1 1.14.29l.14.07-.13.09a.49.49 0 0 1-.31.09 2.94 2.94 0 0 1-.77-.17c-.39-.12-.81-.22-.93-.09a.36.36 0 0 0-.06.25h.14c.37 0 .88.11.9.55v.06h-.06a.41.41 0 0 1-.42-.1.62.62 0 0 0-.37-.15h-.08a.41.41 0 0 0 0 .09.29.29 0 0 1-.16.33h-.07a1.35 1.35 0 0 1-1-.26.41.41 0 0 1-.11-.33v-.14l.13.05h.07a.35.35 0 0 0 .17-.07.52.52 0 0 1 .05-.53l-.08-.05-.24.16a.91.91 0 0 1-.52.15 2.9 2.9 0 0 1-1.06-.29l-.17-.07-.24-.09.24-.09a.88.88 0 0 1 .29-.05 2.12 2.12 0 0 1-.44 0 7.35 7.35 0 0 1-2-.44l-.19-.09a12.7 12.7 0 0 1 0 4.62l12 2.09c.2-.62.28-1.21.34-1.82zM59.88 8.3a.35.35 0 0 0 .12-.21.34.34 0 0 1 .07-.17l.08-.15H60a.72.72 0 0 1-.19-.05.82.82 0 0 0-.25-.06c-.13 0-.21.09-.22.24V8h.1c.21 0 .24.08.28.24h-.39a1.08 1.08 0 0 1-.4-.2 1 1 0 0 0-.49-.22.32.32 0 0 0-.26.13l-.07.05.07.06a1.77 1.77 0 0 0 1 .38.58.58 0 0 0 .21 0l.36-.14.06.21zm1.28 1.06l-.06-.09a1.1 1.1 0 0 0-.74-.36.43.43 0 0 0-.22.06l-.24.14h.28a1.52 1.52 0 0 1 .39.15 1 1 0 0 0 .39.14.21.21 0 0 0 .11 0zm1.35-.83a1.15 1.15 0 0 0-.53 0l.02-.09-.3.07a.49.49 0 0 1-.28 0 .55.55 0 0 0-.33 0c0-.13-.2-.18-.3-.22s-.16-.06-.18-.1l-.17-.3v.35a.5.5 0 0 0 .16.36 1 1 0 0 0 .27.19l-.06.18.19-.21a1.12 1.12 0 0 0 .41.08.56.56 0 0 0 .44-.17l.1-.11c.05.06.24.1.57-.02zm-11.88 6.42h-.16a.89.89 0 0 1-.22-.06 1 1 0 0 0-.29-.07.22.22 0 0 0-.2.1V15l.12.09a.77.77 0 0 0 .43.21.34.34 0 0 0 .3-.21zm.72-.59h-.31a.58.58 0 0 0-.19 0 .17.17 0 0 0-.18.15v.08h.07v.13a.3.3 0 0 0 .11.3l.13.08v-.16a.31.31 0 0 1 .13-.23.61.61 0 0 0 .13-.15zM50 16.64h-.19a1.11 1.11 0 0 0-.26 0 .25.25 0 0 0-.26.19v.1h.19a1.08 1.08 0 0 0 .26 0 .25.25 0 0 0 .26-.19zm5.82.33l.22.13a4.54 4.54 0 0 0 1.85.43 1 1 0 0 0 .26 0l.36-.1-.37-.09-.41-.11a4.81 4.81 0 0 0-1.66-.28zM54 15.9h.11v-.12c0-.11 0-.12.09-.16a.34.34 0 0 0 .15-.15h.07c.2 0 .28-.19.33-.34v-.11l-.44-.1v.1a.55.55 0 0 1 0 .13h-.21a1.72 1.72 0 0 0-.35-.07.12.12 0 0 0-.13.08c0 .08 0 .15.08.17-.07.09-.17.22-.11.35s.22.19.41.22zm.83.65v-.1h-.11a.84.84 0 0 1-.22-.06.91.91 0 0 0-.29-.07.2.2 0 0 0-.19.14c-1-.33-.79.06 0 0a.23.23 0 0 0 0 .09v.1h.11a.81.81 0 0 1 .22.06.93.93 0 0 0 .29.07.22.22 0 0 0 .23-.24zm.47-.9c-.09-.12-.3-.13-.64 0h-.12l.06.11a.25.25 0 0 0 .23.13h.08a.44.44 0 0 1 .27 0l.1.05v-.11a.24.24 0 0 0 .06-.19zm.54-1.42v-.16c0-.36-.38-.38-.65-.41h-.33v.15l-.54-.12-.06.25v.12h.12a.65.65 0 0 1 .16 0 .53.53 0 0 0 .32 0 .44.44 0 0 0 0 .08v.05H55a.85.85 0 0 0 .29-.06.57.57 0 0 1 .42 0zm3.26.72l.28.08h.09a.14.14 0 0 0-.07.09.14.14 0 0 0 .1.16h.08a.44.44 0 0 0 .32.18h.1a.37.37 0 0 0 0-.38.65.65 0 0 0-.54-.27.46.46 0 0 0-.21 0zm-2.03-2.85l.19.06.31.11a2.54 2.54 0 0 0 .85.23.74.74 0 0 0 .22 0l.5-.16h-.53a2.26 2.26 0 0 1-.54-.16c-.35-.13-.68-.24-.84-.13zm.63 2.36l-.1.19h.21a.51.51 0 0 1 .25 0 .62.62 0 0 0 .19 0 .34.34 0 0 0 .3-.2l.07-.11h-.13l-.37-.12c-.36-.12-.51-.16-.58-.07a.13.13 0 0 0 0 .11.3.3 0 0 0 .14.12zm-1.62-.85l.07.25a.6.6 0 0 0 .43.51h.06a.63.63 0 0 1 .14-.1c.14-.08.37-.23.23-.5a.8.8 0 0 0-.31 0 .57.57 0 0 1-.4 0zm2.64 2.57l-.66-.1c-.28 0-.55-.11-.8-.16a4.7 4.7 0 0 0-.86-.14h-.2l.13.16a1.25 1.25 0 0 0 1 .4 5.09 5.09 0 0 0 .7-.06zm2.53-.07l-.61-.17-1.07-.32a8.16 8.16 0 0 0-2.42-.51 3.83 3.83 0 0 0-.61 0l-.44.07.74.21a13.24 13.24 0 0 0 3.58.7h.2zm1.22.58v-.07a.4.4 0 0 0-.52-.12.47.47 0 0 0 0 .31h.12a.42.42 0 0 0 .31-.17zM65.69 11h-.22l-.65-.15a3.27 3.27 0 0 0-1.37-.15l-.57.12.58.07a4.42 4.42 0 0 1 .77.2 3 3 0 0 0 .86.2.68.68 0 0 0 .41-.12zm1.36-1.7l-.19-.06-.22-.07a1.91 1.91 0 0 0-1-.13h-.3l.26.14a2.38 2.38 0 0 0 1 .25.53.53 0 0 0 .29-.06zm4 7.82l-.12-.12a.67.67 0 0 0-.59 0l-.15.06-.29.07.28.11a.83.83 0 0 0 .31.07.81.81 0 0 0 .45-.16zM82.55 22l.24.08.18.08a.72.72 0 0 0 .3.09.34.34 0 0 0 .26-.13l.07-.08-.08-.04a.74.74 0 0 0-.74-.08zM81 15.78c-.61-.41-.58.14 0 0zm.52 2.53h-.14a5.25 5.25 0 0 1-.75-.16 4.3 4.3 0 0 0-.7-.15c-.1 0-.13.06-.14.09s.06.16.26.28a2.36 2.36 0 0 0 1 .31.41.41 0 0 0 .42-.23zm3.76 5.86l-.5-.09c-.38-.07-.79-.18-1.19-.28a9.61 9.61 0 0 0-1.94-.37v.2a6.27 6.27 0 0 1 .75.21 8.07 8.07 0 0 0 2.08.46 1.52 1.52 0 0 0 .32 0zm.72-9.72l-.1-.07a2.23 2.23 0 0 0-.92-.21c-.07 0-.22 0-.26.11v.11h.11a1.47 1.47 0 0 1 .36.12 1.18 1.18 0 0 0 .44.13.42.42 0 0 0 .3-.13zm4 16.44c-.38-.06-.74-.12-1.08-.2-.17-.06-.25 0-.27 0a.13.13 0 0 0 0 .13.32.32 0 0 0 .35.18c.48.09.9.19 1.31.29a11.93 11.93 0 0 0 1.8.35l.6.06-.55-.25a8.29 8.29 0 0 0-2.1-.56zm.48-2.59l.14.11a1 1 0 0 0 .52.19 1.35 1.35 0 0 1 .48.14l.12.07v-.14a.25.25 0 0 0-.06-.2 1.34 1.34 0 0 0-.85-.24.67.67 0 0 0-.21 0zm-.22 1.23l-1.48-.35v.14c0 .24.27.36.71.36H90h-.07l.23.07a.56.56 0 0 0 .31 0 .18.18 0 0 1 .1 0 2.4 2.4 0 0 0 .41.06h.07a.11.11 0 0 0 .09-.11c0-.2-.61-.22-.61-.22zm-2.57-8.16l.38.09a4.07 4.07 0 0 0 .89.15 1 1 0 0 0 .32 0l.33-.11-.34-.08a7.06 7.06 0 0 0-1.21-.18.34.34 0 0 0-.23.05zm0 3.91l.21.05a5.34 5.34 0 0 0 1.05.18c.3 0 .36-.12.36-.21v-.13h-.13a1 1 0 0 1-.46-.07 1 1 0 0 0-.87 0zm1.36.36a2.51 2.51 0 0 0-.93 0l-.38.1.48.12a2.36 2.36 0 0 0 .55.1.51.51 0 0 0 .32-.09l.18-.14zm.08 2.91a2.94 2.94 0 0 0 .53 0l.56-.1-.57-.09a23.31 23.31 0 0 1-3.24-.75h-.12v.12a.15.15 0 0 1-.05.1.35.35 0 0 0-.1.19V28h.09l.79.17a10.36 10.36 0 0 0 2.13.39zm-6.9 1a.32.32 0 0 0 .21-.07l.1-.08-.11-.07a1.43 1.43 0 0 0-.68-.23.38.38 0 0 0-.32.13l-.12.15h.19a1.4 1.4 0 0 1 .33.08 1.45 1.45 0 0 0 .42.11zm6.61 3.05h-.21a.38.38 0 0 0-.39.32v.1l.51.12zM46.72 72.52l.22.06z" transform="translate(-4.95 -5.31)"/><path class="cls-2" d="M41.14 48.37a5.09 5.09 0 1 0 .62 3.84 5.06 5.06 0 0 0-.62-3.84zm31.94-16.42a5.08 5.08 0 1 1-.66-3.62 5.07 5.07 0 0 1 .66 3.62z" transform="translate(-4.95 -5.31)" id="Holes"/></g></g></svg>