<svg id="Layer_1" data-name="Layer 1" xmlns="http://www.w3.org/2000/svg" viewBox="0 0 379.32 331.96"><defs><style>.cls-1{fill:#f9f9fa}</style></defs><g id="Records"><path class="cls-1" d="M276.06 33.43l-.74-.22a113.67 113.67 0 0 1 50 10.62l-.06.07a1.58 1.58 0 0 1-1.2.4 3.29 3.29 0 0 1-2.46-1l-.14-.25h-.28c-2.9.18-5.83-.81-9-1.86a54.64 54.64 0 0 0-5.66-1.66c-1.28-.28-3-.79-5-1.38-4.73-1.39-10.76-3.13-13.92-2.74a2.69 2.69 0 0 0-1.13.43 1.12 1.12 0 0 1-.83.25 33.17 33.17 0 0 1-6.4-1.69c-1.08-.32-2.14-.67-3.18-.97zm-20.47 4.7c3.66 0 8.39 2.14 11.86 3.7.74.33 1.42.64 2 .9a.86.86 0 0 1 .2-.59 1 1 0 0 1 1-.24c17 5.58 35.91 9.57 54.18 13.43 6.83 1.45 13.29 2.81 19.65 4.25 2.79.63 5.5 1.38 8.19 2.16a115.06 115.06 0 0 0-12.29-9.44 15.34 15.34 0 0 1-2.75-1.19 87.07 87.07 0 0 1-14.91-3.76 72.56 72.56 0 0 0-12.28-3.15h-.12a58.74 58.74 0 0 0-12.41-3.76 82.48 82.48 0 0 1-9.22-2.44 1.06 1.06 0 0 1 .07.25 1.13 1.13 0 0 1-.3.86l-.18.21-.27-.06-4.24-1a120.31 120.31 0 0 1-16.26-4.59l-1.06.09a1.92 1.92 0 0 1 0 .6l-.07.41h-.41a17.82 17.82 0 0 1-3.23-.54 112.08 112.08 0 0 0-16.27 3.37 26.83 26.83 0 0 1 5.15 1.81l.89-.5a6.25 6.25 0 0 1 3.08-.77zm44.74 6.57a2.17 2.17 0 0 0 1.74 1 1.14 1.14 0 0 0 .94-.44l.27-.36-.34-.29a2.36 2.36 0 0 1-.34-.37 2.16 2.16 0 0 0-1.94-1h-.28l-.14.26a1.23 1.23 0 0 0 .08 1.2zm-6.77-3.15l.34.5a3.42 3.42 0 0 0 2.44 1.08 1.26 1.26 0 0 0 1.35-.91l.14-.58h-.58a6.31 6.31 0 0 1-1.54-.24 2.66 2.66 0 0 0-1.58-.06zm35.19 4l-1-.48a8.73 8.73 0 0 1 .73.55 1.33 1.33 0 0 1 .27-.09zM172.28 202.19a15.86 15.86 0 0 1 4.72.81l4.32 1.42-4.51-.5a6.17 6.17 0 0 0-1.05.15 12 12 0 0 1-2.3.29c-.11 0-.18 0-.29-.05l.08.07-.09.06c1.06 1.16 2.06 2.4 3 3.67a1.45 1.45 0 0 1 1.09-.4h.64a4.66 4.66 0 0 0 .54 0c.36 0 .43-.1.46-.14l.35-.5.38.49a.93.93 0 0 1 .2 1c-.19.39-.66.58-1.45.58a6.55 6.55 0 0 1-1.46-.19c1.18 1.59 2.29 3.25 3.34 5v.07a127.55 127.55 0 0 0 14.7 3h.14l.1.1c1.24 1.14 3.12 1.35 4.93 1.55 2 .22 4.11.45 5.45 1.94a6.72 6.72 0 0 1 6.49.53l.67.47-.12.06c.47 0 .95-.09 1.35-.09h.25l.14.22a1.23 1.23 0 0 1 .2 1.06.93.93 0 0 1-.63.52c6.54 1 12.72 1.94 18.53 4.12l.12-.31.23.1a83.17 83.17 0 0 0 12.06 3.84c-.14-1.1-.29-2.2-.44-3.29-.83-.33-1.64-.67-2.45-1a27.37 27.37 0 0 0-5.47-2l-1.13-.22 1-.63a4 4 0 0 1 2.25-.62 12.75 12.75 0 0 1 3.57.72 16.16 16.16 0 0 0 1.73.46q-.77-4.39-1.86-8.73c-.14 0-.25.06-.39.06-1.92 0-4-1.17-5.63-2.12l-1.15-.64-.14-.11a.64.64 0 0 1-.14-.7c.16-.35.57-.35.76-.35h.63c.56 0 .76-.1.83-.18a.58.58 0 0 0 0-.42l-.39-2.16a3.77 3.77 0 0 1-2.79.76l.14.17a1.86 1.86 0 0 1 .72 2.07l-.11.39-.4-.07a2.07 2.07 0 0 1-1.29-.8 1.78 1.78 0 0 0-.32-.28l-.09.21h-.3c-1.51 0-4.26-1.49-4.26-2.31v-.47l.55-.06h.06a1.78 1.78 0 0 1-1.22-.85 1.16 1.16 0 0 1-.08-.47c-.15.06-.3.13-.45.18a2.45 2.45 0 0 0-1.13.59l-.18.21-4.23-1c-.77-.1-1.6-.3-1.56-.92 0-.18.12-.58.88-.58a3.59 3.59 0 0 1 1.3.29 8.38 8.38 0 0 1 3.13.35 2.37 2.37 0 0 1 2.62-.12h.2a36.62 36.62 0 0 1 8.63 1.66l-.15-.82.38.89.71.23-.42.43.92 2.16a1.12 1.12 0 0 0 1.15.77 5.71 5.71 0 0 0 1.93-.52c-.11-.37-.24-.73-.34-1.1a59.61 59.61 0 0 1-11.29-9.55 60.31 60.31 0 0 1-10.45-15.91 1.79 1.79 0 0 1-.64.14 5.84 5.84 0 0 1-2.31-.75 5.82 5.82 0 0 0-2.06-.7h-.48v-.49a1.47 1.47 0 0 1 .54-1.09.59.59 0 0 0 .24-.62l.01-1.02.79.66c.76.63 1 .66 1.33.66h1.27c-.08-.2-.17-.39-.24-.59l-.59-.15a48.3 48.3 0 0 1-8.29-2.55l-.69-.32.59-.48a2.9 2.9 0 0 1 1.81-.64 7.23 7.23 0 0 1 2.93.91l.62.28.22-.29a2.93 2.93 0 0 1 2-.7 60.42 60.42 0 0 1-1.68-7c-3.35-.86-6.71-1.73-10.14-2.58l-.9-.22.72-.6a3.82 3.82 0 0 1 2.55-.78 19.08 19.08 0 0 1 4.24.72l.3.07a1.29 1.29 0 0 1 .25-.85l.19-.3.34.11c.63.21 1.25.37 1.88.57a62.11 62.11 0 0 1 11.6-44.23c-1.51-.36-3.22-.77-4.86-1.3l-.93-.3.82-.54a4.32 4.32 0 0 1 2.47-.73 11.7 11.7 0 0 1 3.58.79l.35.11a60.56 60.56 0 0 1 4.34-4.91c.16-.22.3-.45.47-.66-1.34-.49-2.72-1-4.17-1.49-2.94-1-6-2.08-8.67-3.24l-2.64-1.14 2.84.24a96.54 96.54 0 0 1 11.39 1.73l-2.26-.54.19-.5c.21-.57 1.17-.78 1.72-.78a1.38 1.38 0 0 1 1.23.52 1.17 1.17 0 0 1 .07 1.11l-.13.35c1 .21 2 .44 3.06.67a59.45 59.45 0 0 1 6.33-6.14l-1.88-.5a7.53 7.53 0 0 1-2 .34 4.46 4.46 0 0 1-3-1.22l-.24-.21.11-.32a1.71 1.71 0 0 1 .61-.83c-2.82-.61-6-1.23-9.12-1.83-4.53-.88-9.2-1.79-12.86-2.68a1.84 1.84 0 0 1-.18.71l-.1.27h-.85c-1.94 0-3.43-.88-3.9-2.28-3.88-1.29-7.49-2.19-10.69-3-4.78-1.2-8.91-2.24-12.57-4.12l-1.95-1a4.56 4.56 0 0 1-1 .15 2.71 2.71 0 0 1-1.05-.2 113.8 113.8 0 0 0-8 15.72c.25.14.5.27.8.46a6.27 6.27 0 0 0 2.94 1.25 2.28 2.28 0 0 0 1.94-1.35l.19-.32.34.12a9.13 9.13 0 0 0 2.15.28c2 .13 4.46.29 4.48 2.45v.5h-.49c-1.54-.08-3.11-.12-4.7-.17-2.84-.08-5.73-.16-8.61-.44l-1.09 3.7a10.71 10.71 0 0 1 2.48 1.32l.91.66-.75.13 1.27.3v.34a1.31 1.31 0 0 1-.3 1 1.41 1.41 0 0 1-1.06.46 1.18 1.18 0 0 1-1.08-.59 1.38 1.38 0 0 1 .15-1.41h-.43a7.85 7.85 0 0 1-1.82-.24l-1.48 5a11.8 11.8 0 0 1 3.28.16 9.07 9.07 0 0 0 3.25.24l.32-.1.19.29a.88.88 0 0 1 .05.89c-.53 1-3 1.05-3.48 1.05-.7 0-2.88-.09-4.07-1.09l-3.74 12.67c3.92 1 7.9 2.14 12 3.32 2.84.82 5.72 1.66 8.63 2.45a36 36 0 0 0 9 1.58 10.87 10.87 0 0 0 3.44-.5h.12l1.54.37v.49c-.43 1.82-2.16 2.74-5.15 2.74a21.63 21.63 0 0 1-2.31-.14c-4.37-.49-9.59-2.15-15.1-3.91a119.87 119.87 0 0 0-12.93-3.6l-3 10a3 3 0 0 1 1.54 1 1.72 1.72 0 0 1 .28 1.52l-.09.32h-.64a9.28 9.28 0 0 1-1.86-.25l-1.08 3.64a1.87 1.87 0 0 1 .31-.05 9.81 9.81 0 0 1 1.93.31 15.84 15.84 0 0 0 2.11.36v-.55l.68.32a29.67 29.67 0 0 0 12 2.76 3.15 3.15 0 0 1-1-.36l-1.37-.8 1.58-.08a33.47 33.47 0 0 1 8 .81c1.7.32 3.46.64 5.36.81h.26l.11.24a6 6 0 0 0 .93 1.29 6.39 6.39 0 0 1 1.08 1.54l.28.6-.64.06c-1 .1-2.06.15-3.17.15h-.47l.22.07c3.81 1.16 8.17 2.51 12.09 2.13h.27l.14.23c.61.92 2.55 1.32 4.62 1.76 1.08.22 2.19.46 3.24.78l.89.27-.75.56a5.3 5.3 0 0 1-3.26.95 24.57 24.57 0 0 1-6.63-1.39 25.46 25.46 0 0 0-6.75-1.42 5.8 5.8 0 0 0-2.47.48l-.69.32.07-1c.07-.82.09-1.12-1.43-1.27l-1.18-.12.94-.73.18-.15a1.84 1.84 0 0 1 0-1.08l.09-.36c-6.67-.15-13.92-2-20.93-3.71l-3-.76v-.39a1.49 1.49 0 0 1 0-.18c-.12 0-.2.11-.34.11a7.89 7.89 0 0 1-2.49-.64 7.57 7.57 0 0 0-1.09-.35l-.25.32-10.35 35a58.55 58.55 0 0 1 24.32 14.72 6.08 6.08 0 0 1 1.18-.11zm60 20.08l.58.17a6.79 6.79 0 0 0 1.89.32 2.69 2.69 0 0 0 1.55-.43l1-.67-1.15-.19a5.56 5.56 0 0 1-1.29-.4 2.48 2.48 0 0 0-.95-.27 1.56 1.56 0 0 0-1.27.94zm-17.65-29.76l.27.56.45-.42c.38-.35.81-.17 1.35.06a3.64 3.64 0 0 0 1.38.36 2 2 0 0 0 .95-.25l.5-.27-.37-.45a3.78 3.78 0 0 0-2.77-1c-.5 0-1.41.08-1.73.62a.82.82 0 0 0-.01.79zm9.07-86.27l.32 1a2.16 2.16 0 0 0 2.25 1.59 8.67 8.67 0 0 0 2.53-.54 7.56 7.56 0 0 1 .93-.27l1-.16-.78-.67a2.43 2.43 0 0 0-1.63-.62 5.6 5.6 0 0 0-1.18.17 5.79 5.79 0 0 1-1.26.18 3 3 0 0 1-1.25-.27zm-49 41.42l-.86-.07c-1.23-.1-2-.12-2.49.43-.24-.48-.59-1-1.13-1a1.18 1.18 0 0 0-.88.49l-.44.53.64.23c.62.21.81.67 1.07 1.4a2.63 2.63 0 0 0 2 2.07l.27.06.18-.21a3.19 3.19 0 0 0 .69-1.94 2.13 2.13 0 0 1 .42-1.31zm6.17-33.07l1.17-.07a6.71 6.71 0 0 1 1.48.25 7.56 7.56 0 0 0 1.79.29 2.6 2.6 0 0 0 1.79-.64l.8-.69-1-.14c-.44-.06-.91-.16-1.38-.26a10.87 10.87 0 0 0-2.16-.33 2.13 2.13 0 0 0-1.81.76zm-6.87 7.56l.79.06a6.35 6.35 0 0 1 2 .57 4.13 4.13 0 0 0 1.53.42 1.87 1.87 0 0 0 1.16-.41l.89-.69-1.1-.15a5.6 5.6 0 0 1-1.41-.54 5.17 5.17 0 0 0-2.07-.67 1.58 1.58 0 0 0-1.37.75zm-2 5.48h-1.7a3.67 3.67 0 0 1-1-.28 4.12 4.12 0 0 0-1.3-.35 1 1 0 0 0-1.07 1.1v.5h.49c.3 0 .63 0 1 .07a9.75 9.75 0 0 0 1.05.08 2.32 2.32 0 0 0 1.18-.26zm3.22 3.53a1.56 1.56 0 0 0 1.55-1.06l.18-.48-.48-.14c-1.58-.47-2.67-.43-3.43.11l-.55.39.55.39a4.2 4.2 0 0 0 2.25.79zm13 5.13l-1.09-.35a24.68 24.68 0 0 1-2.71-1.12 12.05 12.05 0 0 0-4.85-1.49 5.14 5.14 0 0 0-1.25.15l-2.46.62 2.52.31a12.86 12.86 0 0 1 3.77 1.38 9.9 9.9 0 0 0 3.85 1.29 2.62 2.62 0 0 0 1.2-.27zm6.79-26.61c.66 0 1.09 0 1.12-.49s-.35-.5-.57-.53a5 5 0 0 0-4-.48l-.41.14.12.42c.21.26.4.95 3.85.95zm5.35 4.05l.3.81a3.44 3.44 0 0 0 3.52 2.1 5.89 5.89 0 0 0 2.5-.55l.58-.28-.45-.47a4 4 0 0 0-2.94-.91 6.22 6.22 0 0 1-2.6-.47l-.3-.15a39.85 39.85 0 0 0 4.39.28 18.69 18.69 0 0 0 7.35-1.22l1.19-.56-1.27-.32a38.35 38.35 0 0 0-7.38-.82 40.11 40.11 0 0 1-8.5-1l-.6-.17v.64c0 .32 0 .32-.34.36a1.11 1.11 0 0 0-1.15 1.2v.35l.33.11a29.62 29.62 0 0 0 5.47 1.08zm3.85 26.82l-.43-.58-.36.68a2 2 0 0 1-.54-.34 2 2 0 0 0-1.15-.55 1 1 0 0 0-.88.57l-.08.14v.16c.1 1 1.12 1.43 2.07 1.43a1.56 1.56 0 0 0 1.43-.62.87.87 0 0 0 .04-.88zm9.45-5.9h.46v-.47a3 3 0 0 0-.91-2c-.62-.66-1.71-1.36-2.5-1.09v-.1a1.46 1.46 0 0 0-1.13-.62h-.15l-.13.07-.47.29c-.34.22-.51.32-.68.32a2.52 2.52 0 0 1-1.09-.46l-.47-.28-.19.51a1.21 1.21 0 0 0 0 .94l-.79-.14a8.93 8.93 0 0 0-1.64-.21 1.91 1.91 0 0 0-1.58.64l-.5.61.77.15c1.44.28 2.59.54 3.61.77a36.63 36.63 0 0 0 7.49 1.08zm-17.95 79.21l-.85-.67a25.62 25.62 0 0 0-9.48-4.79 1.17 1.17 0 0 0 .77-.76l.14-.56h-.55a5 5 0 0 1-2.72-.65l-.35-.16-.21.32a1.21 1.21 0 0 0-.16 1.28 1.14 1.14 0 0 0 .31.34 6.22 6.22 0 0 0-2 .46l-2.52 1.12 2.74-.22c2.63-.22 5.11 1.13 7.49 2.43 2 1.08 3.83 2.09 5.64 2.09a4.36 4.36 0 0 0 .69-.06zm6.45-.74l-.5-.3a.47.47 0 0 1 .05-.22l.19-.5-2.37-.57-.12.43a1.87 1.87 0 0 0 0 1.08l-.18.15-1.23 1 1.54-.12h.92a1.71 1.71 0 0 0 1.35-.47zm5.65-9a1.1 1.1 0 0 0-1.05.55l-.2.43.42.21a1.4 1.4 0 0 1 .46.41 2.08 2.08 0 0 0 1.29.8h.25l.16-.2a1.22 1.22 0 0 0 .29-1.35 1.76 1.76 0 0 0-1.51-.85zm-2.76-2.18v.2a2.25 2.25 0 0 0 2.24 2 1.74 1.74 0 0 0 1.37-.64l.39-.48-.56-.25a4.71 4.71 0 0 1-.64-.42 3.54 3.54 0 0 0-1.84-.88 1.09 1.09 0 0 0-.81.34zm-6.46-1.71l.84.12a14.7 14.7 0 0 0 2 .19 3.59 3.59 0 0 0 1.38-.23l1.77-.71-1.9-.19a6.26 6.26 0 0 1-1.12-.27 5.58 5.58 0 0 0-1.51-.32 1.21 1.21 0 0 0-1.26.87zm-.48 4.58c-.39-1.34-2-1.75-3.5-2.15a14.49 14.49 0 0 1-1.57-.47l-.61-.23v.67c0 1.68 1.83 2 3.44 2.36a12.67 12.67 0 0 1 1.66.4l.84.29zm-4.73-5.39l1.14.1c.38 0 .75.08 1.1.08a2.55 2.55 0 0 0 1.38-.32l.91-.58-1-.28a5.62 5.62 0 0 1-.74-.28 3 3 0 0 0-1.16-.34 1.46 1.46 0 0 0-1.31 1zm-12.74.63l3.39.14a13.89 13.89 0 0 1 3.23.79 13 13 0 0 0 3.64.83 2.33 2.33 0 0 0 2.05-.94l.28-.4-.4-.27c-2.23-1.48-5.27-1.79-8.88-.94zm-.43-12.34l.16.2a2.86 2.86 0 0 0 2 1h.36l.12-.34a1.39 1.39 0 0 0-.16-1.27 1.62 1.62 0 0 0-1.29-.7 1.15 1.15 0 0 0-1.13.87zm-2.66 6.73l.1.17a2.27 2.27 0 0 0 1.84.95 1.2 1.2 0 0 0 1.24-.92l.07-.58h-.58a2.93 2.93 0 0 1-.72-.2 3.13 3.13 0 0 0-1-.26.84.84 0 0 0-.86.65zm-8.09-15.38l.1-.39-.35-.16a2.87 2.87 0 0 0-1.18-.3 2 2 0 0 0-1.73 1.2h-.23a.74.74 0 0 0-.79.59l-.1.42.39.14a5.15 5.15 0 0 0 1.65.32 2.19 2.19 0 0 0 2.35-1.81zm62.87 31.1v.16a1.38 1.38 0 0 1 .34-.1h.14l.07-.28c-.22 0-.43 0-.67-.1a.64.64 0 0 0 .23.32zM384 105.49l-3.28-.74c1.06.33 2.19.67 3.38 1zm-201 50.23c.31 0 .64.07.95.11a11 11 0 0 0 1.36.12h.25a3.59 3.59 0 0 0-2.56-.23zm1.79 63.74l-1.54.33c0 .1.08.19.12.29a3.55 3.55 0 0 1 1.15-.2 9.19 9.19 0 0 1 4.4 1.69l.54.33a1 1 0 0 1 .73-.78c-.64-.22-1.27-.47-1.87-.71-1.38-.57-2.75-1.11-3.49-.95zm66.8-180.11l1.58.72c3 1.38 6 2.73 8.87 2.68-3.23-1-6.46-1.93-9.51-3zm106.96 108.86l.13.2-.09.23a.69.69 0 0 1-.52.51l.54.08a17.19 17.19 0 0 0 .19-2.17 2.29 2.29 0 0 1-.6.82 2.21 2.21 0 0 1 .35.33zm-119-57.75a2.54 2.54 0 0 0-1.49.17l-.26.08.63.09a7.28 7.28 0 0 1 1.57.31c-.13-.37-.2-.55-.45-.64zm-23.17 88.39l-.05-.13-.59-.06h-.3zm137.09-34.46h-1.64a7 7 0 0 0 3.2.53l1.1-.12a6.36 6.36 0 0 0-2.66-.41zM193.38 83a25.61 25.61 0 0 0-2.52-.69l-1.2-.31a1.45 1.45 0 0 0 .25.25 35 35 0 0 1 3.47.75zm47.34 130h.58c0-.11-.06-.22-.09-.33a1.29 1.29 0 0 1-.49.33zM132.16 340.3zm-23.94 22.59l.1.18a112.69 112.69 0 0 0 44.24-.2 1 1 0 0 1 0-.51l.1-.25h.25a7.15 7.15 0 0 1 2.63.17l.93-.23a.58.58 0 0 1 1-.27 112.88 112.88 0 0 0 16.28-5.43 68.36 68.36 0 0 1-12.44-2.23L161 354l.06-.41c0-.34.15-.85.53-1a11.65 11.65 0 0 0-1.75-.35 8 8 0 0 1-1.62-.36v.21a1.3 1.3 0 0 1-1.4 1 5.92 5.92 0 0 1-.89-.1 3.53 3.53 0 0 0-.88-.08h-.19l-.39-.33.07-.41c.25-.72 2.48-.74 2.73-.74h.31a2.14 2.14 0 0 1-.83-1.17c-4-.1-8.67-1.29-13.15-2.44-2.29-.59-4.66-1.2-6.9-1.65l-1.68-.33 1.61-.57a7.94 7.94 0 0 1 4.46.29 13.78 13.78 0 0 0 2.51.52 23.11 23.11 0 0 0-6.61-1.74 20.53 20.53 0 0 1-5.39-1.35l-1.3-.67 1.08-.16-.35-.11.14-.45a.72.72 0 0 0 0-.48 1.91 1.91 0 0 1 0-.95 11.94 11.94 0 0 0-1.4-.09 3.27 3.27 0 0 1-.9.94v.07h-.08a3.61 3.61 0 0 1-1.9.69 1.34 1.34 0 0 1-1.27-.74 4.79 4.79 0 0 1-2.65.31l-.45.71-.14-.81-.4-.09a7.17 7.17 0 0 0-2.15-.24 1 1 0 0 1-.95.2 4.16 4.16 0 0 0-.49.2l-.69.32v-.78l-.63-.16.75-.23a.73.73 0 0 1 .12-.16c-1.15-.17-2.55-.57-2.69-1.89l-.12-1.16.87.75a5.65 5.65 0 0 0 2.81.58c1.61.1 3.4.21 4.11 1.4a4.33 4.33 0 0 1 3.12-.22l.2-.12v.16h.25c.53.1 1.08.21 1.61.27v-.19a1.92 1.92 0 0 0-.78-.39c-.65-.23-1.74-.62-1.36-1.87l.14-.45.44.14a28.41 28.41 0 0 0 6.76 1.18c1 .08 1.88.17 2.71.31l.93.16-.7.65a3.68 3.68 0 0 1-2.61.74h-.32a.94.94 0 0 1 .26.85 1.3 1.3 0 0 1-.7.84h.36a13.76 13.76 0 0 1 1.62.11v-.32c.11-.72.66-1.09 1.62-1.09a11.79 11.79 0 0 1 1.59.16 13.74 13.74 0 0 0 2.22.18h.75l-.31.69a1.78 1.78 0 0 1-1.71 1.2 5.54 5.54 0 0 1-1.7-.39 3.35 3.35 0 0 0-1.58-.25c1.3.23 2.66.57 4.14 1 .2-.44.74-.47 1.54-.51s2.19-.12 2.54-.85l.33-.67.44.59a2.41 2.41 0 0 0 1.68.75 3.13 3.13 0 0 1 2.2 1.07 7.69 7.69 0 0 1 3.49-.94h.59l-.15.59a5.14 5.14 0 0 1-.4 1.11.94.94 0 0 0-.12.62l.58.15c1.82.48 3.73.89 4.73.44l.76-.35-.13.85a1 1 0 0 0 .32 1.06l.61-.07-.24.32a13.37 13.37 0 0 0 1.42.64l.05-.32a50.39 50.39 0 0 1 6.28 1.58c3.93 1.16 8.44 2.48 12.49 2.16h.17l.14.11a9.85 9.85 0 0 0 2.11 1.18c3.14-1.61 6.25-3.33 9.3-5.26a118.29 118.29 0 0 0 49.59-65.16 9.1 9.1 0 0 1-1.61.14 33.17 33.17 0 0 1-6.62-1c-.84-.18-1.67-.36-2.44-.5l-.57-.1.23-.54a.88.88 0 0 0-.33-1.15.73.73 0 0 1-.78.58H228c-.06.23-.29.6-1.13.6-.52 0-1.57-.18-1.9-.85a1 1 0 0 1 .14-1l.22-.3.34.16a2.06 2.06 0 0 0 1.44.2 5 5 0 0 1 .56 0l-.61-.29a14.6 14.6 0 0 1-2.13-1.09l-1.52-1 1.79.13a29.68 29.68 0 0 1 7.87 2.23 41.7 41.7 0 0 0 7.63 2.31c.65-2.19 1.25-4.4 1.78-6.62a1.09 1.09 0 0 1-.34.08v-.48h-.19a.46.46 0 0 0 0 .1 1.18 1.18 0 0 0-.15-.11 11.88 11.88 0 0 1-1.81-.51.35.35 0 0 0-.05-.18 3.58 3.58 0 0 0-.37 0v-.23l-.57-.17a2.15 2.15 0 0 1 .57-.06v-.48a4.82 4.82 0 0 1 3.1 1.23c.3-1.34.57-2.69.84-4a28.49 28.49 0 0 1-4.58.46 16.76 16.76 0 0 1-6.63-1.36l-.92-.38.88-.47a4.76 4.76 0 0 1 2.29-.49 21.26 21.26 0 0 1 3.74.49l.48.09a41.13 41.13 0 0 0-8.45-2.42c-2.29-.49-4.66-1-7.11-1.74l-.34-.1V263a1.47 1.47 0 0 1 .09-.5 37 37 0 0 0-9.55-1c-5-.1-10.1-.21-13.57-2.91l-1.1-.85h1.37a30 30 0 0 1 4.89.51c-5.28-1.63-10.9-3.15-16.5-4.6q-.26 2.08-.66 4.12a61.71 61.71 0 0 1-12.05 26.4 60.58 60.58 0 0 1-19.47 20.2c-1.07.68-2.16 1.31-3.26 1.91l.83.13a.76.76 0 0 0 .26-.1 2.6 2.6 0 0 1 2.13-.11l.39.14-.09.41c-.11.5-.22 1-.33 1.48l-.1.46-.45-.11-1.8-.43-.51-.12.19-.51a.42.42 0 0 0 0-.22l-1.22-.67a57.94 57.94 0 0 1-45 4.06 59.88 59.88 0 0 1-33.06-26.4c-.14-.24-.25-.49-.39-.72h-.31l.09-.4c-.31-.54-.59-1.09-.88-1.64-.59-.38-1.19-.76-1.76-1.15-2.73-1.85-5.32-3.59-8.93-4.35l-.28-.06-.07-.28c-.19-.71-1.05-1.11-2-1.54s-2.25-1.05-2.5-2.28v-.14a1 1 0 0 1 .94-1.09h.15a28 28 0 0 1 6.73 3.07 49 49 0 0 0 5.24 2.65 62.79 62.79 0 0 1 .39-49.46H15.48a121.68 121.68 0 0 0 15.69 81.52 115.94 115.94 0 0 0 64.65 51.48A113.78 113.78 0 0 0 108 363zm43-2.53l-.74-.1a11.67 11.67 0 0 1-1.39-.33 4.46 4.46 0 0 0-2.93-.19l-.33.17.09.36c.25 1.09 1.59 1.65 2.78 1.65a2.46 2.46 0 0 0 2.08-.91zm-5.36-11.17l.08.86c.14 1.56 2 2.26 3.73 2.26a4 4 0 0 0 2.41-.64l.63-.53-.76-.28a9.23 9.23 0 0 0-2.67-.54 5.82 5.82 0 0 1-2.68-.72zm-6.94 3.8l2.12-.3a3.35 3.35 0 0 1 1.21.72 6 6 0 0 0 3.55 1.59 3.94 3.94 0 0 0 1.73-.42l.34-.16-.1.16.42.24a1.59 1.59 0 0 0 1.43.11.51.51 0 0 1 .5 0l.46.2.15-.49a1.56 1.56 0 0 0-.07-1.33 1.48 1.48 0 0 0-1.13-.64h-.29l-.15.26a3.63 3.63 0 0 1-.47.57c-.13.14-.25.31-.37.47l-.8-.19a7.57 7.57 0 0 1-1.56-.79 8.41 8.41 0 0 0-3.79-1.47 2.51 2.51 0 0 0-1.39.39zm84.31-62.87l.1.17a1.76 1.76 0 0 0 .77.63 1.49 1.49 0 0 0-.43.61l-.09.23.13.21a2.71 2.71 0 0 0 1.73 1 .9.9 0 0 0 .88-.64v-.21a1.49 1.49 0 0 0-.3-.72l.11-.15a1 1 0 0 0 .13-1c-.32-.67-1.37-.85-1.89-.85-.86 0-1.08.39-1.13.62zm-11.8 21.41a8.74 8.74 0 0 0 3.52 1.24 1.7 1.7 0 0 0 1.62-.88l.43-.89-.93.15a3.19 3.19 0 0 1-2.34-.68 3.17 3.17 0 0 0-1.63-.64 2.08 2.08 0 0 0-1.37.58l-.63.54.77.27a4.5 4.5 0 0 1 .53.31zm5.65 2.15l-.85-.13a7.37 7.37 0 0 0-3.42 0l-.7.28.56.51a4.81 4.81 0 0 0 2.48.66c1 0 1.46-.41 1.64-.76zm-.1-22.44a3.55 3.55 0 0 0-2.27.21l-.77.52.84.31a.87.87 0 0 0 .15.71.73.73 0 0 0 .58.24h.2a6.37 6.37 0 0 1 2.48-.32h2.7l.53-2.29-.45-.11-1.44-.35-.53-.16-.07.51c-.08.61-.34.82-1 .82a7.5 7.5 0 0 1-.93-.09zm-6.12-1.44l-.64.59 1.27.33a10 10 0 0 0 2.43.44 2 2 0 0 0 1.85-.92l.36-.61-.69-.1c-.62-.09-1.11-.2-1.52-.3-1.33-.31-2.12-.32-3.09.57zm-2.47-4.8l.15.19a2.35 2.35 0 0 0 1.75.6 3.2 3.2 0 0 0 2-.59l.75-.69-1-.13a7 7 0 0 1-.93-.23 5.18 5.18 0 0 0-1.38-.28 1.2 1.2 0 0 0-1.23.88zm-10.15-19.11h-.28l-.1.28a1.21 1.21 0 0 0 .08 1c.34.57 1.17.67 2 .76a4 4 0 0 1 1.24.27l.54.35.14-.65a1.48 1.48 0 0 0-.26-1.3c-.79-.86-2.53-.8-3.36-.68zm-2.68-6.35v.14c.21.8 1.64.89 2.25.89s1.3-.08 1.35-.6-.54-.71-1.38-.86a1.46 1.46 0 0 0-1.1-.57 1.17 1.17 0 0 0-1.11.86zm-.62 60.25l.6.27a11.34 11.34 0 0 0 3.44.76c1.7.19 2.75.35 3 1.29l.72 3.1.18-3.18c0-.32.08-.35.35-.35a4.12 4.12 0 0 1 .47 0 5.15 5.15 0 0 0 .57 0 1.2 1.2 0 0 0 1-.44l.33-.45-.49-.25a19.83 19.83 0 0 0-7.58-1.93 2.85 2.85 0 0 0-2.11.61zm-6.29 14h.59a2.77 2.77 0 0 1 1.08.14 1.77 1.77 0 0 0 .54.11 1.4 1.4 0 0 0 1-.64l.21-.26-.17-.29a2.21 2.21 0 0 0-1.72-.69 1.34 1.34 0 0 0-1.45 1.06zm-10.59-31.38a12.86 12.86 0 0 0-3.62-.9c-.86 0-1 .44-1.05.7v.43l.41.08c1.76.35 3.29.74 4.31 1a8.53 8.53 0 0 0 1.28.29h.4l.08-.38c.05-.39-.02-.42-1.8-1.18zm-.7 7.34a2.81 2.81 0 0 0-2-1h-.31l-.14.28a1.34 1.34 0 0 0 0 1.34 1.56 1.56 0 0 0 1.33.72 1.21 1.21 0 0 0 1.24-.92l.06-.24zm-5.61-17.55a1.21 1.21 0 0 0 1.08.54 1.57 1.57 0 0 0 1.66-1.36V291l-2.52-.59-.15.32a1.47 1.47 0 0 0-.07 1.51zm-4.3 37.12l.55.81c.62.9 3.14 1.44 6.13 2 .67.13 1.29.24 1.47.31v-.1.1l.2-.35-.19.36 1.26.71-.38-.8.44.19a4.23 4.23 0 0 0 1.73.54 1.62 1.62 0 0 0 1.28-.63l.64-.78h-1a4.6 4.6 0 0 1-1.22-.3c-1-.33-2-.51-2.46.08l-.05.06a27 27 0 0 0-7.48-2.14zm-20.34-2.7l-.46-.13-.11.48-.34 1.48v.46l.42.12a8.11 8.11 0 0 1 3.59 1.6l.46.33.23-.53c.24-.58.49-.58.61-.58a3.6 3.6 0 0 1 1.28.46 5.56 5.56 0 0 0 2.16.7h.22l.14-.17a1.11 1.11 0 0 0 0-1.45 10.11 10.11 0 0 1 1.29-.09 8 8 0 0 0 2-.22l1.16-.34-1.09-.54a11.52 11.52 0 0 0-6.36-1.12h-1.32a13.41 13.41 0 0 1-3.88-.42zm-5-.07h.59a9.87 9.87 0 0 1 1.1.07 9.16 9.16 0 0 0 1 .08 1.77 1.77 0 0 0 1.86-1.16l.09-.24-.15-.2a2.24 2.24 0 0 0-1.87-.81 2.41 2.41 0 0 0-2.52 1.72zm-4.34-.38l.71-.38c.25-.14.56 0 .93.22a2.49 2.49 0 0 0 1.18.39 1.49 1.49 0 0 0 .93-.34l.34-.28-.25-.37a4.22 4.22 0 0 0-2.6-1.17 1.09 1.09 0 0 0-1.19 1.1zm-4.36 5.65h.51a8.32 8.32 0 0 1 3.38.83 11.59 11.59 0 0 0 4.49 1.07h.64l-.19-.63c-.05-.17 0-.25.28-.5a.8.8 0 0 0 .36-.74c-.07-.37-.45-.5-.59-.55l-.25-.08-.2.17c-.55.48-2.44 0-4.14-.49a11.85 11.85 0 0 0-2.92-.64c-1.07 0-1.3.64-1.35 1zM22.07 240.79l-.13-.21a1.23 1.23 0 0 0-1.44-.65 1.89 1.89 0 0 1-.67 0l-.46-.09-.07.48a1.57 1.57 0 0 0 .27 1.3 1.14 1.14 0 0 0 .91.42A1.66 1.66 0 0 0 22 241zm33.8-1v.36l.34.08 1.79.43.39.1.14-.39c.55-1.53-.17-2.07-.65-2.25l-.54-.16-.06.6a1.28 1.28 0 0 1-.28 0 1 1 0 0 0-1.13 1.25zm3.76 87s0-.08.38-.15l3-.63-3-.3a14.24 14.24 0 0 1-1.41-.24 10.93 10.93 0 0 0-2-.28 1.81 1.81 0 0 0-1.42.5 1.74 1.74 0 0 0-.39 1.33v.16l.1.11a1.15 1.15 0 0 0 .92.5 2.14 2.14 0 0 0 1.07-.43 1.8 1.8 0 0 1 1.32-.41l-.35 1.55.47.1a1.66 1.66 0 0 1 1.07.53l1.81 2.63-1.2-3.33a4.77 4.77 0 0 1-.37-1.65zm8.73-24.12v-.08c-.19-.83-2.13-.89-2.72-.89a3.24 3.24 0 0 0-1.22.17l-.56.25.39.48a5 5 0 0 0 2.86 1.21 1.15 1.15 0 0 0 1.27-1.06zm13.31 33c-.31-.25-.51-.41-.52-.64l-.15-2.8-.71 2.69a2.16 2.16 0 0 0 0 1.27 1.3 1.3 0 0 1-.23.16 1.55 1.55 0 0 0-.64.61l-.28.54.58.14a2.51 2.51 0 0 0 1.08 0c.25-.05.37-.23 1.07.12l.52.26.13-.58a1.68 1.68 0 0 0-.86-1.79zm1.42-8.67l-.16-.3a2.28 2.28 0 0 0-1.84-.94 1.19 1.19 0 0 0-1.24.92v.4l.3.18a3.23 3.23 0 0 0 1.53.59 1.55 1.55 0 0 0 1.18-.59zm27.47-8.09l.28.05.17-.23a1 1 0 0 0 .14-1.05c-.33-.67-1.37-.85-1.89-.85-.86 0-1.08.39-1.13.62v.2l.11.17a3.43 3.43 0 0 0 2.31 1.05zm2.3 10.18a2.43 2.43 0 0 0 1.53-.45l1.33-1-1.67.21a4.12 4.12 0 0 1-2-.34 3.28 3.28 0 0 0-2.18-.22l-.82.29.69.53a5.4 5.4 0 0 0 3.11.94zm3 6.75l-.13-.16a2.84 2.84 0 0 0-2-1h-.27l-.15.22a1.34 1.34 0 0 0-.2 1.4 1.51 1.51 0 0 0 1.37.72 1.25 1.25 0 0 0 1.37-1zm8.35-1.37l-.52-.1a5.89 5.89 0 0 0-3.07.35l-2.07.67 1.85.33.6.12a7 7 0 0 0 1.45.21 1.52 1.52 0 0 0 1.59-1.08zm4-4.79c2.62 1.65 3.42-.61 0 0zm-2.12-1.74a2 2 0 0 0-.48-.08.71.71 0 0 0-.59.26 1.18 1.18 0 0 0-.14 1v.29l.28.08a5.28 5.28 0 0 1 .78.32 2.94 2.94 0 0 0 1.2.38c.58 0 1-.38 1.27-1.12l.17-.49-.48-.13a2.06 2.06 0 0 0-.82-.05.7.7 0 0 0-.55-.66l-.53-.11v.39zm-4.47-6.3v.34l.33.06a6.43 6.43 0 0 0 1.17.13 2.42 2.42 0 0 0 1.51-.44l1-.74-1.2-.11c-.2 0-.21-.05-.3-.31a1.61 1.61 0 0 0-.31-.56l-1-1.05.19 1.44v.12h-.18a2.37 2.37 0 0 0-.44-.05.78.78 0 0 0-.63.26 1.16 1.16 0 0 0-.14.87zm-1.67 2a.86.86 0 0 0-.87.65l-.05.19.1.17a2.27 2.27 0 0 0 1.83 1 1.19 1.19 0 0 0 1.25-.93l.08-.58h-.58a2.81 2.81 0 0 1-.73-.2 3.24 3.24 0 0 0-1.04-.29zm-20.55 9.5l-.06-1.2-.74.92c-.07.09-.18.17-.49.17a4.6 4.6 0 0 1-.81-.11 5.45 5.45 0 0 0-1.93-.08 2.33 2.33 0 0 0-1.62-1.78l-.33-.09-.17.3s-.07.12-.41.12H92a1.21 1.21 0 0 0-1.36 1v.19c.24 1.11 1.45 1.46 2.61 1.68v.08h.55a12.1 12.1 0 0 1 1.34.19 14.22 14.22 0 0 0 2.21.26 2.12 2.12 0 0 0 1.66-.55 1.49 1.49 0 0 0 .39-1.09zm5.3 19.26c-.42-.74-1.72-.94-2.41-.94s-1 .14-1.19.42l-.4.64.74.08a5.42 5.42 0 0 1 2.28.81l.75.4.21-.39a1 1 0 0 0 .02-1.01zm1.9-35.77l-1.15-.34c-.35-.1-.73-.25-1.1-.4a7 7 0 0 0-2.46-.67 2.17 2.17 0 0 0-1.76.83l-.47.57.93.24h.1l-.35.11-.37-.1-.11.25h-.1l-.93.28-.24.07a6.12 6.12 0 0 0-1.57.78L96 319l1.19.14a10.53 10.53 0 0 1 1.48.31 4.64 4.64 0 0 0 1.12.21 1.5 1.5 0 0 0 1.23-.64l.48-.63-.78-.12a.32.32 0 0 1-.22-.09.37.37 0 0 1 0-.18c.74.14 1.05-.12 1.12-.36a.41.41 0 0 0 0-.13l.32-.11-.34-.09a1 1 0 0 0-.21-.27c.5.12 1 .21 1.47.28l-.11.16a1.36 1.36 0 0 0-.2 1.41 1.52 1.52 0 0 0 1.37.71 1.24 1.24 0 0 0 1.37-1l.06-.48h-.46a1.9 1.9 0 0 1-1.42-.64l-.05-.06c.17 0 .36.06.52.06a3.35 3.35 0 0 0 1.52-.31zm1.45-1.91a.78.78 0 0 0-.57.51l-.14.37.34.2a10.33 10.33 0 0 0 4.46 1.49 2 2 0 0 0 1.55-.58 1.69 1.69 0 0 0 .4-.91l.44.11a1.28 1.28 0 0 1-.4.66l-.93.69 1.14.15a6.79 6.79 0 0 1 .92.23 5.29 5.29 0 0 0 1.38.28 1.2 1.2 0 0 0 1.23-.88l.07-.23-.14-.19a2.25 2.25 0 0 0-.26-.29 4.13 4.13 0 0 0 .57 0c.64 0 1-.17 1.17-.52l.24-.63h-.22a1.59 1.59 0 0 0 .41-1.31 1 1 0 0 0-.62-.61l-.32-.12-.2.28c-.49.65-.71.51-1.06.42l.49-.84-1 .71-.2-.07a7.76 7.76 0 0 0-2-.57l-.39-.05-.11.39a2.19 2.19 0 0 1-1 1.25h-.19v.13a3.62 3.62 0 0 1-1.48.38 1.09 1.09 0 0 0 .37-.76v-.3l-.26-.14a7.43 7.43 0 0 0-3.37-.8 3.59 3.59 0 0 0-2.45.77l-.89.85 1.5-.06a7.07 7.07 0 0 1 1.47 0zm77.58-96.53c-1.25-.41-2.51-.77-3.77-1.17.41.79.88 1.56 1.26 2.36l1.4-.8a3.24 3.24 0 0 1 1.11-.38zm60.06 23a47.08 47.08 0 0 0-5.2-2.08l-.43-.14.14-.44a1.19 1.19 0 0 1 1.23-.89 2.42 2.42 0 0 1 .38 0 .78.78 0 0 1-.19-.34 1.12 1.12 0 0 1 .22-.9l.25-.39.38.25c.5.34.61.34.78.34h.54a.7.7 0 0 1 .07-.24h-.11l-.6-.23.41-.51a1.15 1.15 0 0 1 .9-.48 1.6 1.6 0 0 1 .9.38c0-.49-.09-1-.13-1.46l-1.37-.39-.73.47a3 3 0 0 1-1.64.42 14.48 14.48 0 0 1-3.76-.78 17.72 17.72 0 0 0-3-.72l-1.79-.2 1.67-.71a5.11 5.11 0 0 1 2-.42 6 6 0 0 1 .89.12c-5.71-1.68-11.55-3.37-17.55-4.71l-.85.5c-1 .58-2.43.17-4-.38a11.57 11.57 0 0 0-3.21-.83h-.22l-.13-.19a3.08 3.08 0 0 1-.43-1c-.05-.2-.08-.32-.49-.69a41.54 41.54 0 0 1-7.14-1.81 34.7 34.7 0 0 0-8-1.86 3.67 3.67 0 0 1-2.47.87 7.08 7.08 0 0 1-1.74-.26c.63 1.5 2.59 1.59 4.65 1.69a15 15 0 0 1 3.25.39l1.76.52-1.78.39-.12.37a2.46 2.46 0 0 1-.26.6 6.18 6.18 0 0 0 1 .06c1 0 2.26 0 2.5 1.44v.2l-.13.16a2 2 0 0 1-1.62 1 4.1 4.1 0 0 1-2.31-1.12 5.32 5.32 0 0 0-1.24-.79 41.65 41.65 0 0 0-5.35-1.25 46.3 46.3 0 0 1-7-1.71c.23.57.49 1.12.7 1.7a61.2 61.2 0 0 1 2.43 9.06l1 .21a15.41 15.41 0 0 0 2.06.27c.58.05 1.16.1 1.79.21l.3-.38a1.06 1.06 0 0 1 .83-.46 1.59 1.59 0 0 1 1 .47c.33.26.65.5 1 .42l1.5-.27-1.1 1.08a2 2 0 0 0-.34.4c.2 0 .45.08.7.12.83.11 1.88.26 2 1.19v.24l-.17.15a3.33 3.33 0 0 1-2.31.73c-2.82 0-6.71-1.94-7.66-3.43l-.43-.67c.17.87.32 1.74.45 2.61 0 .05.11.07.15.12l.16.25-.15.26-.06.07a62.4 62.4 0 0 1 .29 13.3 39.92 39.92 0 0 1 6.23 1.61c6.34 2.08 13.87 3.94 21.84 5.9 3.32.82 6.68 1.64 10 2.5l.45.12-.12.46a1.12 1.12 0 0 1-.81.83l5.63 1.12c4.37.87 8.16 1.63 12.1 2.48a123.57 123.57 0 0 0 1.6-24.94zm-45.8-2.06l-.63-1.19-.22 1.27a3.57 3.57 0 0 1-.56-.18 2.73 2.73 0 0 0-1-.26.79.79 0 0 0-.82.72l-.05.3.25.17a4.33 4.33 0 0 0 2.11.7 1 1 0 0 0 .95-.44 1.11 1.11 0 0 0-.03-1.11zm16-9.11a1.27 1.27 0 0 0 1.24-1.38v-.38l-2.16-.52-.15.34a1.39 1.39 0 0 0 0 1.35 1.24 1.24 0 0 0 1.11.57zm6.83 4.63c2 1.41 3.8 2.75 5.69 2.75a4.08 4.08 0 0 0 2.35-.76l.55-.38-.54-.39a33.5 33.5 0 0 0-6-3.2.73.73 0 0 0 .31-.38l.23-.57-.59-.07-.34-.06.59-.46-.66-.33a6.43 6.43 0 0 0-2-.57c-.8-.12-1.24-.19-1.58-.9l-.26-.55-.45.41a2.23 2.23 0 0 1-1.24.33c-.81.07-1.91.17-2.28 1.41l-.15.49.5.1c2.15.38 4.06 1.77 5.91 3.11zm7.13 23.86h.35l.34-.05.05-.34a1.51 1.51 0 0 0-.3-1.24 2.35 2.35 0 0 0-1.91-.64 12.46 12.46 0 0 0-2.16.25l-.36.06-1-.11.58.85.17.21h.24a9.28 9.28 0 0 1 2.15.5 5.47 5.47 0 0 0 1.89.5zm5.53 1.76l-.56-.4a4 4 0 0 0-2-.71 1.92 1.92 0 0 1-1.14-.4l-.66-.6-.1.91a.71.71 0 0 1-.23.46 1.64 1.64 0 0 0-.45.91l-.07.42.4.11a7.6 7.6 0 0 0 2 .3 3.92 3.92 0 0 0 2.2-.61zm2.33-12.91l1.52-.46-1.53-.44c-.33-.09-.66-.22-1-.35a6.24 6.24 0 0 0-2.2-.57 2.3 2.3 0 0 0-1.73.75l-.71.8h1.08a10.9 10.9 0 0 1 1.72.2 11.85 11.85 0 0 0 1.86.21 3.3 3.3 0 0 0 1.03-.15zm6.27 3.5l.2-.52-.54-.11c-.38-.08-.78-.18-1.17-.28a10.17 10.17 0 0 0-2.4-.44 2 2 0 0 0-1.85.94l-.49.84.94-.14a5.17 5.17 0 0 1 2 .4 5.84 5.84 0 0 0 1.76.41 1.55 1.55 0 0 0 1.57-1.11zm148.68-86.24a27.24 27.24 0 0 1-2.74-1c-.37-.06-.84-.18-.91-.61a.69.69 0 0 1 .39-.71 20 20 0 0 0-4.36-.58 14 14 0 0 1-4-.61l-.48-.15.14-.36c-8.39-2.21-19.3-5-28.16-5.55h-.69l.3-.63a.72.72 0 0 1 .17-.24 27.17 27.17 0 0 0-4.22-.76 14.79 14.79 0 0 1-6-1.63l-.27-.16.05-.32a1.74 1.74 0 0 1 1.86-1.58 6.88 6.88 0 0 1 2 .4 5.7 5.7 0 0 0 .64.18c4.63.86 11 2.47 17.83 4.19 3.06.77 6.18 1.55 9.19 2.29 2.31.55 4.66 1.05 6.92 1.52a109.5 109.5 0 0 1 12.56 3.15h.11a122.68 122.68 0 0 0-.34-22c-1.64-.53-3.34-1-5.15-1.45l-1.79-.41 1.77-.5a5.27 5.27 0 0 1 1.47-.19 12.12 12.12 0 0 1 3.49.66q-.58-4.74-1.53-9.46a1.37 1.37 0 0 1-1-.49 1.5 1.5 0 0 1-.21-1.28l.09-.39h.39c.13 0 .22.07.34.09q-1.16-5.28-2.81-10.48l-2.36-.61a41.5 41.5 0 0 1-7-2.21l-1.85-.86h2.35a38.72 38.72 0 0 1 8 1.09q-.94-2.75-2-5.47a46 46 0 0 1-6.23-2.48l.27-.67c-5.69-1.26-11.32-2.41-16.7-3.25l-.78-.12.5-.64a1.58 1.58 0 0 1 .58-.49 2.41 2.41 0 0 1-1.66-.73l-.44-.48.58-.27a5.31 5.31 0 0 1 2.31-.49A15.38 15.38 0 0 1 368 99a14.42 14.42 0 0 0 4.48 1.07 4.53 4.53 0 0 0 1.21-.15.58.58 0 0 1 1.06.41.64.64 0 0 1 0 .13c2.75.8 5.39 1.55 8 2.27a120.78 120.78 0 0 0-6.62-12.78 118.91 118.91 0 0 0-16.63-21.69 46 46 0 0 1-13.66-3.09l-3-1.12 3.15.21A78.09 78.09 0 0 1 357.3 66l-.63-.59-7.85-1.89-2.06-.52a2.72 2.72 0 0 0-.91.25 1.64 1.64 0 0 1-.56.16h-.17a2.62 2.62 0 0 1-1.17-1c-.27-.34-.44-.56-.69-.62a17.09 17.09 0 0 0-4.36-.53 31.64 31.64 0 0 0-6.12.71h-.23a21 21 0 0 0-2.81-.67c-1.69-.32-3.43-.65-4.45-1.51l-.44-.37.44-.36a1.9 1.9 0 0 1 .71-.35c-8.78-2.17-16.68-3.68-24.36-5.15-8.4-1.61-16.33-3.13-25.12-5.4l-.68-.18.43-.57a1.55 1.55 0 0 1 1.27-.65 4.15 4.15 0 0 1 1.22.27 5.39 5.39 0 0 0 .9.24 5 5 0 0 0-4.13-.41 10.07 10.07 0 0 1-2.4.35 7 7 0 0 1-2.42-.45l-.39-.14.1-.42a.75.75 0 0 1 .78-.58h.64c-2.06-.65-4.26-1.28-6.54-1.94l-1.62-.48a2.19 2.19 0 0 1 .44 1.17 1.72 1.72 0 0 0 .13.6l.83.25 2.69.84-2.45.07.17.17-.63-.16a1.66 1.66 0 0 1-1.11-.34c-2.74-.79-5.53-1.35-8.22-1.9-4.88-1-9.92-2-15.08-4.4a.25.25 0 0 0-.1 0l-.2.07-.08.15a1.44 1.44 0 0 1-.55.65l-.3.16-.23-.24c-.08-.08-.2-.15-.27-.23-.36.13-.73.25-1.09.39a7.69 7.69 0 0 1 1.39.71v-.18c1.68.28 4.53 1.64 7.84 3.22a79.28 79.28 0 0 0 12.69 5.2l-.17.92c-5.24-.62-9.89-2.76-14.39-4.83-2.41-1.1-4.91-2.25-7.43-3.13-.86-.3-1.73-.56-2.6-.84-.55.22-1.1.43-1.64.67a3.7 3.7 0 0 1 .49 0c.94 0 2.91.24 3.61 1.12a1.13 1.13 0 0 1 .24 1l-.15.69-.56-.4a3.92 3.92 0 0 0-2-.66 4.28 4.28 0 0 1-2.22-.75l-.58-.43c-1.92.84-3.84 1.76-5.74 2.72l-.18.78h-.37a1.7 1.7 0 0 1-.62-.15l-.29.16a1.34 1.34 0 0 1-.07.93l-.18.43-.42-.18c-.3-.13-.63-.21-.93-.33l-.65.34c5.16 1.69 10 3.45 13.77 5.88l1.07.68 1.54-.42a8.11 8.11 0 0 1 4.86.7 10.48 10.48 0 0 0 3.68.89 5.59 5.59 0 0 0 1-.09h.14l.12.05a.68.68 0 0 1 .47.75.36.36 0 0 1 0 .07h.06a2 2 0 0 1 .49-.08.61.61 0 0 1 .55.29 1.15 1.15 0 0 1-.13 1.09l-.13.28h-.3a20.27 20.27 0 0 1-5.78-1.55 40.05 40.05 0 0 0-5.05-1.53l-1.19-.26.31.2-2-.25c-3.78-.46-9.42-2.36-15.39-4.37l-1.39-.46c-.89.53-1.8 1-2.68 1.6-1.18.75-2.28 1.58-3.43 2.36v.2l-.16-.12A118.06 118.06 0 0 0 196.59 67c2.25.92 4.6 1.92 7.13 3l.65.29-.53.49a2.14 2.14 0 0 1-1.49.59 5.65 5.65 0 0 1-2-.53 3.92 3.92 0 0 0-3-.34l-.36-.75-.32-.09c-.54-.15-1.09-.31-1.16-.81a.6.6 0 0 1 0-.26l-.48-.13c-.7.73-1.35 1.51-2 2.25l2.45 1.53-3.05-.86q-3.43 3.78-6.48 7.81l1.86.66a2.09 2.09 0 0 1 1.33 1.15c1.35-.41 3.24 0 5.48.57 1 .26 2.16.55 3.36.76 0-.15 0-.31.06-.48l-.19-.1.21-.07a6.3 6.3 0 0 1 1.06-2.75 1.61 1.61 0 0 1 1.26-.67 2.06 2.06 0 0 1 1.36.62c.42.09.8.23.88.62a.73.73 0 0 1-.43.73l.82.21a14 14 0 0 1 3.44 1.16l.7.39-.68.42a5.18 5.18 0 0 1-4.22.14c-.39-.11-.76-.22-1.13-.3a35.21 35.21 0 0 0 6.21 1.49l.89.15-.65.65a5 5 0 0 1-3.71 1.4 10.56 10.56 0 0 1-1.8-.18 20.14 20.14 0 0 0 5.89 1.49 21.58 21.58 0 0 1 6.68 1.75l2 1.11-2.3-.22a20.41 20.41 0 0 0-3.39 0c-.65 0-1.27.09-1.86.09a6 6 0 0 1-2.54-.46c-1.61.49-4.46-.74-7.81-2.24-3.14-1.4-6.69-3-9.32-3a4.16 4.16 0 0 0-2.15.5l-.2.12-.21-.09c-1.31-.58-2.66-1.07-4-1.52-.76 1.11-1.48 2.24-2.21 3.37l3 .71-.8.61a3.21 3.21 0 0 1-1 .44l1.92.17c7.1.62 13.77 2.38 20.23 4.09 7.61 2 14.78 3.91 21.61 3.61h.16a1.15 1.15 0 0 1 .78.62.84.84 0 0 1-.09.72c1.15.3 2.48.52 3.9.76 3.16.53 6.73 1.13 9.57 2.87l.51.32-.43.43a1.51 1.51 0 0 1-.54.32c1.13.3 2.21.56 3.31.82 1.18-.88 2.35-1.78 3.62-2.58a58.59 58.59 0 0 1 9-4.61c-4.54-1.3-9.24-2.6-14.36-3.63a1.64 1.64 0 0 1-.57-.33l-.34.07c-1.8.37-5-.41-9.62-2.27l-.29-.11-.12.25-.44-.39a2.83 2.83 0 0 0-.31-.22l-1.71-.69h.38a43.85 43.85 0 0 0-6.76-1.57 46.68 46.68 0 0 1-6.13-1.37l-.47-.16.2-.47c.45-1.07 1.5-1.11 2.35-1.14s1.2-.07 1.44-.4l.32-.44.37.39c1.4 1.45 5.12 2.81 7.67 2.81a2.87 2.87 0 0 0 2.19-.66l.25-.29.32.19c1 .58.88 2.4.73 3.32h.22a6.67 6.67 0 0 0 1.38-.1 10.19 10.19 0 0 1 1.27-.12 1.74 1.74 0 0 1 1.62.74 1.23 1.23 0 0 0 .24-.31 1.35 1.35 0 0 1 1.12-.8l.11-.26.06.27h.06a91.3 91.3 0 0 1 15.67 4.1c2.23.74 4.51 1.46 6.84 2.12a58 58 0 0 1 60.22 15c.06-.1.11-.21.16-.28l.44-.6.33.67c.07.14.42.27.69.37a1.88 1.88 0 0 1 1.23.9 1.43 1.43 0 0 1-.09 1.13l-.13.28h-.4a61.47 61.47 0 0 1 6.18 8.48c.44.74.8 1.51 1.21 2.26v-.08h.7a6 6 0 0 1 2.73.36l1.11.42-1.1.46a7.59 7.59 0 0 1-2.3.45 1.89 1.89 0 0 1-.35-.05 61.43 61.43 0 0 1 4.06 10.15 97.86 97.86 0 0 0 14.72 2.21h.87l-.54.71a2.88 2.88 0 0 1-2.49.88 25.46 25.46 0 0 1-3.84-.45 24.74 24.74 0 0 0-3.7-.44c-1 0-1.62.2-1.85.62l-.18.34-.36-.12c-.63-.2-1.16-.32-1.74-.47.08.31.14.63.21.94a47.68 47.68 0 0 1 7.33 2.12l1 .35c.21-.43.83-.5 1.46-.5 3 0 11.9 2 14.28 3.51a1.09 1.09 0 0 1 0-.2l.09-.55.51.18a24.63 24.63 0 0 0 4.84 1.05 16.13 16.13 0 0 1 5.3 1.39l.65.34-.59.45a2.25 2.25 0 0 1-1.42.41 13.33 13.33 0 0 1-3.56-.8c-1.83-.58-3.75-1.07-4.32-.43a1.75 1.75 0 0 0-.3 1.21l.64.08c1.72.21 4.07.5 4.17 2.63v.31l-.27.14a1.85 1.85 0 0 1-1.94-.46 2.82 2.82 0 0 0-1.73-.72h-.12a.56.56 0 0 0-.25 0 2 2 0 0 0 0 .41 1.41 1.41 0 0 1-.72 1.56h-.34c-2.29 0-3.82-.43-4.57-1.26a2 2 0 0 1-.5-1.56v-.65l.59.25a.81.81 0 0 0 .33.07 1.6 1.6 0 0 0 .8-.33l.14-.07a2.54 2.54 0 0 1 .24-2.52 3.12 3.12 0 0 0-.39-.25l-1.11.78a4.12 4.12 0 0 1-2.43.72 13.2 13.2 0 0 1-4.94-1.4l-.78-.33-1.11-.45 1.12-.43a4 4 0 0 1 1.35-.25c-.07 0-.15-.07-.22-.12a9.58 9.58 0 0 1-2.06.21c-2.9 0-6.23-1.07-9.46-2.11l-1.24-.39a62.48 62.48 0 0 1 .07 22.1l55.92 10c.67-2.68 1.07-5.59 1.36-8.51zM237.22 47.49a1.71 1.71 0 0 0 .5-1 1.65 1.65 0 0 1 .33-.8l.39-.72h-.84a3.29 3.29 0 0 1-.88-.25 3.71 3.71 0 0 0-1.18-.3c-.62 0-1 .43-1 1.14l.1.49h.48c1 0 1.1.4 1.3 1.13l-1.79-.21a5 5 0 0 1-1.85-1 4.48 4.48 0 0 0-2.3-1.07 1.49 1.49 0 0 0-1.22.64l-.28.35.34.29a8.11 8.11 0 0 0 4.41 1.82 2.62 2.62 0 0 0 1-.18l1.68-.69.26 1zm6 5.09l-.29-.42a5.07 5.07 0 0 0-3.45-1.72 2 2 0 0 0-1 .27l-1.11.69 1.28.18a6.92 6.92 0 0 1 1.83.73 4.72 4.72 0 0 0 1.82.66 1 1 0 0 0 .51-.14zm6.28-3.95a5.19 5.19 0 0 0-2.45-.19l.24-.27-1.39.34a2.2 2.2 0 0 1-1.29-.18 2.5 2.5 0 0 0-1.56-.18c-.22-.61-.93-.88-1.41-1.07s-.74-.28-.83-.46l-.81-1.46v1.67a2.42 2.42 0 0 0 .75 1.74 4.67 4.67 0 0 0 1.24.91l-.26.85.73-.63a5.07 5.07 0 0 0 1.89.4 2.56 2.56 0 0 0 2-.82l.45-.52c.2.24 1.2.45 2.66-.13zm-55.29 30.63h-.77a4 4 0 0 1-1-.27 4.45 4.45 0 0 0-1.34-.32 1 1 0 0 0-.94.5l-.22.37.58.44a3.56 3.56 0 0 0 2 1 1.58 1.58 0 0 0 1.42-1zm3.35-2.84l-.89.11a2.34 2.34 0 0 1-.56-.17 2.64 2.64 0 0 0-.89-.23.8.8 0 0 0-.82.73v.38l.34.14c.09 0 .11.16.09.62a1.44 1.44 0 0 0 .51 1.46l.63.38.06-.75a1.5 1.5 0 0 1 .58-1.12 2.92 2.92 0 0 0 .58-.74zm-6.08 10.93l-.47-.11-.43-.11a5 5 0 0 0-1.22-.23 1.17 1.17 0 0 0-1.22.9l-.13.48.48.11.44.11a4.9 4.9 0 0 0 1.21.22 1.17 1.17 0 0 0 1.22-.9zm27 1.58l1 .63c2.17 1.32 6.45 2 8.59 2a4.41 4.41 0 0 0 1.22-.13L231 91l-1.71-.41c-.5-.12-1.16-.32-1.91-.54-2.41-.71-5.93-1.69-7.72-1.34zm-8.47-5.14l.53.07v-.56c0-.5.11-.59.41-.76a1.62 1.62 0 0 0 .69-.7 1.72 1.72 0 0 0 .31.08c.93 0 1.28-.9 1.56-1.6l.19-.51-2.06-.5-.09.48a2.67 2.67 0 0 1-.18.6h-.28c-.14 0-.41-.09-.72-.17a7.78 7.78 0 0 0-1.63-.33.58.58 0 0 0-.61.37c-.14.39.22.7.35.81l.14.12h.11c-.33.44-.78 1-.53 1.67s.8.8 1.85.94zm3.88 3.11v-.5h-.49a3.82 3.82 0 0 1-1-.28 4.15 4.15 0 0 0-1.33-.34.94.94 0 0 0-.9.67c-4.69-1.56-3.68.27 0 0a1.13 1.13 0 0 0-.17.42l.05.5h.49a3.66 3.66 0 0 1 1 .28 4.2 4.2 0 0 0 1.33.34 1 1 0 0 0 1.06-1.09zm2.16-4.32c-.41-.57-1.41-.61-3-.13l-.55.17.29.52a1.16 1.16 0 0 0 1.09.61h.35a2 2 0 0 1 1.27.19l.49.25.16-.53a1.19 1.19 0 0 0-.05-1.08zm2.5-6.78l-.1-.78c-.21-1.71-1.76-1.84-3-1.95a9.91 9.91 0 0 1-1.15-.14l-.38-.08-.14.37a3 3 0 0 0-.11.33l-2.5-.59-.28 1.2-.08.57h.58a2.93 2.93 0 0 1 .74.2 2.38 2.38 0 0 0 1.47.17 2.15 2.15 0 0 0 .12.39l.1.25h.25a2.76 2.76 0 0 0 .49 0 3.87 3.87 0 0 0 1.33-.28 2.59 2.59 0 0 1 1.94 0zm15.16 3.44l1.3.4.4.11a.67.67 0 0 0-.31.43.68.68 0 0 0 .46.75l.44.07.11-.17.11.13a2 2 0 0 0 1.48.88 1.18 1.18 0 0 0 .25 0h.23l.1-.21a1.83 1.83 0 0 0 0-1.82 3 3 0 0 0-2.5-1.3 2.07 2.07 0 0 0-1 .22zm-9.61-13.61l.88.27c.42.13.91.33 1.42.54a11.52 11.52 0 0 0 3.95 1.08 3.34 3.34 0 0 0 1-.15l2.34-.78-2.45-.14a10.29 10.29 0 0 1-2.51-.78c-1.64-.64-3.16-1.16-3.91-.6zm2.92 11.27a.45.45 0 0 1-.07.2l-.46.9 1-.22a2.31 2.31 0 0 1 1.18.14 2.83 2.83 0 0 0 .86.18 1.59 1.59 0 0 0 1.38-1l.31-.53-.59-.16c-.54-.15-1.14-.36-1.71-.56-1.67-.58-2.36-.78-2.7-.35a.63.63 0 0 0-.12.5v.13a1.42 1.42 0 0 0 .64.57 1.36 1.36 0 0 1 .33.2zm-7.52-4.09l.4 1.19a2.86 2.86 0 0 0 2 2.46l.28.07.18-.22a2.93 2.93 0 0 1 .67-.49c.65-.4 1.74-1.08 1-2.38l-.11-.21h-.23a3.64 3.64 0 0 0-1.42.13 2.6 2.6 0 0 1-1.87-.13zm12.27 12.27l-3.06-.5c-1.31-.22-2.58-.51-3.7-.76a21.29 21.29 0 0 0-4-.68h-1l.6.78c1 1.28 2.58 1.9 4.82 1.9a23 23 0 0 0 3.24-.29zm11.74-.33l-2.84-.82c-1.79-.52-3.43-1-5-1.54C231.5 81 228.13 80 224.49 80a17.32 17.32 0 0 0-2.84.23l-2 .33 3.43 1c5.48 1.64 11.15 3.33 16.64 3.33h.93zm5.65 2.8l-.19-.31a1.85 1.85 0 0 0-2.43-.58l-.15.1-.05.18a2.3 2.3 0 0 0 .13 1.48l.08.22.22.07a1.94 1.94 0 0 0 .57.09 1.92 1.92 0 0 0 1.44-.82zm15-27.32l-1-.21a64.08 64.08 0 0 1-3-.71c-2.47-.62-4.57-1.09-6.35-.7l-2.66.57 2.69.35a20.06 20.06 0 0 1 3.6 1 13.55 13.55 0 0 0 4 .94 3.1 3.1 0 0 0 1.91-.58zm6.34-8.13l-.9-.29-1-.34a8.64 8.64 0 0 0-4.67-.6l-1.37.19 1.22.69A10.81 10.81 0 0 0 268.4 53a2.4 2.4 0 0 0 1.37-.31zm18.8 37.4l-.78-.35a3 3 0 0 0-2.75.11 3.84 3.84 0 0 1-.68.28l-1.37.35 1.31.54a3.77 3.77 0 0 0 1.45.32 3.7 3.7 0 0 0 2.1-.78zm53.17 23.59l1.13.36a7 7 0 0 1 .84.36 3.29 3.29 0 0 0 1.39.44 1.58 1.58 0 0 0 1.22-.61l.33-.39-.41-.3a3.37 3.37 0 0 0-3.42-.36zm-7.17-29.84c-2.81-2-2.7.69 0 0zm2.4 12.08h-.67a23.81 23.81 0 0 1-3.47-.78 19.48 19.48 0 0 0-3.26-.73c-.47 0-.61.26-.65.42-.12.45.26.76 1.21 1.33a10.76 10.76 0 0 0 4.67 1.43 1.88 1.88 0 0 0 2-1.08zm17.47 28l-2.31-.43c-1.77-.34-3.69-.84-5.54-1.34a43.53 43.53 0 0 0-9-1.75l-.09.94a28.49 28.49 0 0 1 3.48 1c2.89.93 6.83 2.21 9.68 2.21a6.89 6.89 0 0 0 1.48-.14zm3.52-46.45l-.47-.32a10.11 10.11 0 0 0-4.26-1c-.31 0-1 0-1.19.53l-.15.52.52.08a6.71 6.71 0 0 1 1.68.6 5.37 5.37 0 0 0 2.06.62 1.91 1.91 0 0 0 1.41-.6zm18.68 78.6c-1.77-.29-3.43-.57-5-1-.8-.29-1.15 0-1.25.16a.62.62 0 0 0 0 .61 1.45 1.45 0 0 0 1.34.61c2.25.43 4.19.92 6.08 1.41A54.06 54.06 0 0 0 387 159l2.78.28-2.55-1.17a37.66 37.66 0 0 0-9.81-2.61zm2.25-12.38l.63.54a4.43 4.43 0 0 0 2.42.89 6.15 6.15 0 0 1 2.25.66l.58.33.09-.68a1.19 1.19 0 0 0-.3-.95c-.78-.92-2.92-1.17-3.95-1.17a3.05 3.05 0 0 0-1 .11zm-1 5.88l-6.87-1.65.09.68c.14 1.15 1.26 1.74 3.31 1.74.6 0 1.19 0 1.65-.08h.28l-.33.18 1.08.33a2.54 2.54 0 0 0 1.44.08.82.82 0 0 1 .48 0 10.84 10.84 0 0 0 1.91.28 1.1 1.1 0 0 0 .34 0 .52.52 0 0 0 .4-.51c0-1-2.82-1.06-2.85-1.06a4.67 4.67 0 0 0-.89.03zm-11.93-39l1.77.43a18.41 18.41 0 0 0 4.13.72 4.54 4.54 0 0 0 1.5-.22l1.53-.53-1.57-.37a31.94 31.94 0 0 0-5.63-.88 1.55 1.55 0 0 0-1.07.26zm-.2 18.69l1 .25a24.17 24.17 0 0 0 4.89.84c1.38 0 1.68-.56 1.68-1v-.63l-.59.18a4.29 4.29 0 0 1-2.12-.31c-1.36-.42-2.9-.69-4 .1zm6.33 1.73a11.35 11.35 0 0 0-4.32-.2l-1.75.48 2.23.55a10.67 10.67 0 0 0 2.54.46 2.32 2.32 0 0 0 1.5-.45l.83-.65zm.36 13.91a13.28 13.28 0 0 0 2.44-.21l2.62-.49-2.63-.44a105.74 105.74 0 0 1-15.06-3.61l-.54-.18-.01.62a.7.7 0 0 1-.24.47 1.69 1.69 0 0 0-.45.9l-.07.44.43.09c1.25.27 2.47.55 3.65.82a46.9 46.9 0 0 0 9.9 1.62zm-32 4.82a1.45 1.45 0 0 0 1-.32l.46-.4-.5-.35a6.5 6.5 0 0 0-3.18-1.11 1.76 1.76 0 0 0-1.47.63l-.56.73h.9a6.36 6.36 0 0 1 1.52.37 6.56 6.56 0 0 0 1.82.48zm30.71 14.59l-.47-.09a2.68 2.68 0 0 0-.49 0 1.79 1.79 0 0 0-1.81 1.52l-.14.48 2.35.56zM176.06 354.56l1 .27h.09z" transform="translate(-13.99 -33.2)"/><path class="cls-1" d="M150.12 239.07a23.6 23.6 0 0 0-13.62-10.6 23 23 0 0 0-18.9 2.64 24.36 24.36 0 0 0-11.08 18 24.71 24.71 0 0 0 3.34 15.46 23.59 23.59 0 0 0 12.9 10.43 23 23 0 0 0 19.62-2.42A24.23 24.23 0 0 0 153 257.42a24.82 24.82 0 0 0-2.88-18.35zm148.4-78.53a24.25 24.25 0 0 1-10.79 16.13 23.26 23.26 0 0 1-32.52-8 24.76 24.76 0 0 1-3.21-16.46 24.31 24.31 0 0 1 11-17 23.25 23.25 0 0 1 32.51 8 24.76 24.76 0 0 1 3.01 17.33z" transform="translate(-13.99 -33.2)" id="Holes"/></g></svg>