<svg xmlns="http://www.w3.org/2000/svg" viewBox="0 0 512 512"><path d="M29.656 397.656l-11.313-11.313 64.969-64.969c5.953-5.957 14.195-9.375 22.625-9.375H152v16h-46.063a16.098 16.098 0 0 0-11.313 4.688l-64.968 64.969zM406.063 200H360v-16h46.063c4.211 0 8.336-1.707 11.313-4.688l64.969-64.969 11.313 11.313-64.969 64.969c-5.955 5.957-14.197 9.375-22.626 9.375zM200 152h-16v-46.059c0-4.27-1.664-8.289-4.688-11.316l-64.969-64.969 11.313-11.313 64.969 64.969c6.047 6.051 9.375 14.086 9.375 22.629V152zm186.344 341.656l-64.969-64.969c-6.047-6.051-9.375-14.086-9.375-22.629V360h16v46.059c0 4.27 1.664 8.289 4.688 11.316l64.969 64.969-11.313 11.312z" fill="#dbd9dc"/><path d="M312 40h16v112h-16zM184 360h16v112h-16zM40 184h112v16H40zm320 128h112v16H360z" fill="#c9c6ca"/><path d="M280 416V96a8 8 0 0 1 16 0v320a8 8 0 0 1-16 0zm-64 0V96a8 8 0 0 1 16 0v320a8 8 0 0 1-16 0z" fill="#dbd9dc"/><path d="M248 504V8c0-4.422 3.582-8 8-8s8 3.578 8 8v496c0 4.422-3.582 8-8 8s-8-3.578-8-8z" fill="#c9c6ca"/><path d="M416 232H96a8 8 0 0 1 0-16h320a8 8 0 0 1 0 16zm0 64H96a8 8 0 0 1 0-16h320a8 8 0 0 1 0 16z" fill="#dbd9dc"/><path d="M504 264H8c-4.422 0-8-3.582-8-8s3.578-8 8-8h496c4.422 0 8 3.582 8 8s-3.578 8-8 8z" fill="#c9c6ca"/><path d="M344 376H168c-17.673 0-32-14.327-32-32V168c0-17.673 14.327-32 32-32h176c17.673 0 32 14.327 32 32v176c0 17.673-14.327 32-32 32z" fill="#4bd7c8"/><path d="M344 360H168c-8.837 0-16-7.163-16-16V168c0-8.837 7.163-16 16-16h176c8.837 0 16 7.163 16 16v176c0 8.837-7.163 16-16 16z" fill="#99e9df"/><path d="M336 236c0-16.092-11.721-29.589-27.732-34.186.434-1.897.732-3.828.732-5.814 0-15.438-13.68-28-30.5-28-8.898 0-16.922 3.516-22.5 9.117-5.578-5.602-13.602-9.117-22.5-9.117-16.82 0-30.5 12.563-30.5 28 0 1.926.211 3.82.617 5.664C187.625 206.27 176 219.922 176 236c0 7.839 2.816 15.194 7.878 21.335C178.943 263.842 176 271.637 176 280c0 12.815 6.814 24.771 18.028 32.25C194.179 329.776 209.796 344 229 344c10.925 0 20.576-4.696 27-11.891 6.424 7.194 16.075 11.891 27 11.891 18.423 0 33.407-13.126 34.742-29.666C328.969 307.784 336 296.353 336 284c0-8.941-3.742-17.48-10.195-24 6.453-6.52 10.195-15.059 10.195-24zm-27.242 31.074C315.797 270.789 320 277.117 320 284c0 4.925-2.229 9.617-5.979 13.232-4.051-7.116-10.948-12.773-19.622-15.498a7.973 7.973 0 0 0-10.031 5.234c-1.32 4.215 1.023 8.707 5.234 10.031 7.414 2.328 12.398 8.355 12.398 15 0 8.824-8.523 16-19 16s-19-7.176-19-16v-48c0-8.824 8.523-16 19-16 4.422 0 8-3.582 8-8s-3.578-8-8-8a37.11 37.11 0 0 0-19 5.197V228.5c0-4.418-3.578-8-8-8s-8 3.582-8 8v40.723c-2.357-1.398-4.86-2.627-7.602-3.488-4.242-1.332-8.719 1.023-10.031 5.234-1.32 4.215 1.023 8.707 5.234 10.031 7.414 2.328 12.398 8.355 12.398 15v16c0 8.824-8.523 16-19 16s-19-7.176-19-16c0-3.766 1.602-7.43 4.508-10.316 3.133-3.113 3.148-8.18.031-11.316-3.117-3.133-8.18-3.152-11.313-.035-1.66 1.652-3.057 3.468-4.289 5.366-4.365-4.324-6.936-9.88-6.936-15.699 0-10.848 8.539-20.383 20.766-23.191 4.305-.988 7-5.281 6.008-9.586-.992-4.309-5.297-6.98-9.586-6.008-4.902 1.125-9.432 2.975-13.47 5.4-2.4-3.163-3.718-6.813-3.718-10.615 0-10.922 10.344-19.828 23.133-19.996a8.006 8.006 0 0 0 6.351-13.316C220.32 201.258 219 198.984 219 196c0-6.617 6.508-12 14.5-12s14.5 5.383 14.5 12c0 4.418 3.578 8 8 8s8-3.582 8-8c0-6.617 6.508-12 14.5-12s14.5 5.383 14.5 12c0 1.744-.464 3.216-1.07 4.448-4.146.437-8.206 1.26-12.023 2.869-4.07 1.715-5.977 6.406-4.266 10.48 1.719 4.074 6.422 5.984 10.484 4.262 3.242-1.367 6.734-2.059 10.375-2.059 12.961 0 23.5 8.973 23.5 20 0 6.883-4.203 13.211-11.242 16.926a7.996 7.996 0 0 0 0 14.148z" fill="#ccf4ef"/><g fill="#4bd7c8"><circle cx="40" cy="192" r="16"/><circle cx="472" cy="320" r="16"/></g><g fill="#99e9df"><circle cx="24" cy="392" r="16"/><circle cx="488" cy="120" r="16"/></g><g fill="#4bd7c8"><circle cx="320" cy="40" r="16"/><circle cx="192" cy="472" r="16"/></g><g fill="#99e9df"><circle cx="120" cy="24" r="16"/><circle cx="392" cy="488" r="16"/></g></svg>