<svg xmlns="http://www.w3.org/2000/svg" viewBox="0 0 512.002 512.002"><path d="M344.177 376.243H167.823c-17.709 0-32.065-14.356-32.065-32.065V167.824c0-17.709 14.356-32.065 32.065-32.065h176.355c17.709 0 32.065 14.356 32.065 32.065v176.355c-.001 17.708-14.357 32.064-32.066 32.064z" fill="#4bd7c8"/><path d="M344.177 352.195H167.823a8.016 8.016 0 0 1-8.016-8.016V167.824a8.016 8.016 0 0 1 8.016-8.016h176.355a8.016 8.016 0 0 1 8.016 8.016v176.355a8.016 8.016 0 0 1-8.017 8.016z" fill="#99e9df"/><g fill="#4bd7c8"><circle cx="39.565" cy="191.871" r="16.03"/><circle cx="472.44" cy="320.131" r="16.03"/></g><g fill="#99e9df"><circle cx="23.532" cy="392.271" r="16.03"/><circle cx="488.47" cy="119.731" r="16.03"/></g><g fill="#4bd7c8"><circle cx="320.13" cy="39.566" r="16.03"/><circle cx="191.87" cy="472.441" r="16.03"/></g><g fill="#99e9df"><circle cx="119.73" cy="23.533" r="16.03"/><circle cx="392.27" cy="488.471" r="16.03"/></g><path d="M256 324.248c2.286 0 4.462.975 5.981 2.677 5.237 5.871 12.917 9.237 21.074 9.237 14.028 0 25.81-9.821 26.82-22.354a8.03 8.03 0 0 1 3.953-6.278c8.83-5.155 14.318-14.15 14.318-23.473 0-6.728-2.803-13.265-7.899-18.408a8.02 8.02 0 0 1 0-11.281c5.096-5.143 7.899-11.68 7.899-18.408 0-12.106-8.838-22.776-21.99-26.553-4.094-1.174-6.552-5.355-5.597-9.507.36-1.566.532-2.842.532-4.02 0-11.05-10.114-20.04-22.545-20.04-6.427 0-12.58 2.47-16.862 6.775-3.022 3.022-8.345 3.022-11.367 0-4.282-4.306-10.435-6.775-16.862-6.775-12.431 0-22.545 8.991-22.545 20.04 0 1.323.149 2.654.431 3.949a8.014 8.014 0 0 1-5.613 9.429c-13.081 3.769-21.872 14.498-21.872 26.702 0 5.836 2.098 11.464 6.067 16.283a8.018 8.018 0 0 1 .196 9.938c-4.094 5.409-6.263 11.59-6.263 17.868 0 10.004 5.417 19.59 14.498 25.645a8.023 8.023 0 0 1 3.57 6.603c.11 13.159 12.236 23.864 27.023 23.864 8.157 0 15.837-3.366 21.074-9.237a8.009 8.009 0 0 1 5.979-2.676z" fill="#ccf4ef"/><path d="M504.5 248.501H383.742v-17.064h32.581a7.5 7.5 0 0 0 0-15h-32.581v-17.065h22.62c8.427 0 16.35-3.281 22.308-9.24l49.326-49.326a23.423 23.423 0 0 0 10.473 2.453 23.381 23.381 0 0 0 16.64-6.892c4.445-4.445 6.893-10.354 6.893-16.64s-2.448-12.195-6.893-16.64c-4.444-4.445-10.354-6.893-16.64-6.893s-12.195 2.448-16.64 6.892a23.378 23.378 0 0 0-6.893 16.64c0 3.696.852 7.259 2.453 10.473l-49.326 49.326a16.441 16.441 0 0 1-11.702 4.847h-22.62v-16.548c0-21.816-17.749-39.564-39.564-39.564h-16.548V61.865c9.308-3.139 16.032-11.946 16.032-22.3 0-12.976-10.557-23.532-23.532-23.532s-23.532 10.557-23.532 23.532c0 10.354 6.724 19.16 16.032 22.3v66.394h-17.064V95.678a7.5 7.5 0 0 0-15 0v32.581H263.5V7.501a7.5 7.5 0 0 0-15 0v120.758h-17.064V95.678a7.5 7.5 0 0 0-15 0v32.581h-17.064V105.64c0-8.427-3.282-16.35-9.241-22.308l-49.343-49.343c4.359-8.801 2.898-19.775-4.421-27.095-9.176-9.175-24.105-9.174-33.28 0-9.175 9.175-9.175 24.104 0 33.28 4.588 4.587 10.614 6.881 16.64 6.881 3.588 0 7.17-.833 10.455-2.46l49.343 49.344a16.437 16.437 0 0 1 4.847 11.701v22.619h-16.548c-3.345 0-6.672.42-9.888 1.247a7.5 7.5 0 0 0 3.739 14.527 24.7 24.7 0 0 1 6.148-.774h176.354c13.545 0 24.564 11.02 24.564 24.564v176.355c0 2.083-.26 4.15-.772 6.143a7.5 7.5 0 1 0 14.527 3.734 39.69 39.69 0 0 0 1.245-9.878v-16.548h66.394c3.139 9.308 11.946 16.032 22.3 16.032 12.976 0 23.532-10.556 23.532-23.532s-10.557-23.532-23.532-23.532c-10.354 0-19.16 6.724-22.3 16.032h-66.394v-17.065h32.581a7.5 7.5 0 0 0 0-15h-32.581v-17.063H504.5a7.5 7.5 0 0 0 0-15zm-22.065-134.807c1.612-1.612 3.754-2.499 6.033-2.499s4.421.887 6.033 2.499 2.499 3.754 2.499 6.033-.887 4.421-2.499 6.033-3.754 2.499-6.033 2.499-4.421-.887-6.033-2.499-2.499-3.754-2.499-6.033.887-4.422 2.499-6.033zM320.129 31.033c4.705 0 8.532 3.828 8.532 8.532s-3.828 8.532-8.532 8.532-8.532-3.828-8.532-8.532 3.827-8.532 8.532-8.532zm-206.437-1.466c-3.327-3.327-3.327-8.74 0-12.066a8.504 8.504 0 0 1 6.034-2.495c2.185 0 4.37.832 6.033 2.495 3.327 3.327 3.327 8.74 0 12.067-3.326 3.325-8.739 3.326-12.067-.001zm358.744 282.031c4.705 0 8.532 3.828 8.532 8.532 0 4.705-3.828 8.532-8.532 8.532s-8.532-3.828-8.532-8.532c-.001-4.705 3.827-8.532 8.532-8.532zm-90.617 155.809l-49.343-49.344a16.437 16.437 0 0 1-4.847-11.701v-22.619h16.548c3.345 0 6.671-.42 9.886-1.247a7.5 7.5 0 0 0-3.739-14.527 24.686 24.686 0 0 1-6.147.773H167.823c-13.545 0-24.564-11.02-24.564-24.564V167.824c0-2.085.26-4.153.773-6.146a7.5 7.5 0 0 0-14.526-3.74 39.65 39.65 0 0 0-1.247 9.886v16.548H61.864c-3.139-9.308-11.946-16.032-22.3-16.032-12.976 0-23.532 10.556-23.532 23.532s10.557 23.532 23.532 23.532c10.354 0 19.16-6.724 22.3-16.032h66.394v17.065H95.677a7.5 7.5 0 0 0 0 15h32.581v17.064H7.5a7.5 7.5 0 0 0 0 15h120.758v17.064H95.677a7.5 7.5 0 0 0 0 15h32.581v17.065h-22.62c-8.427 0-16.35 3.281-22.308 9.24l-49.326 49.326a23.423 23.423 0 0 0-10.473-2.453 23.381 23.381 0 0 0-16.64 6.892C2.448 380.08 0 385.99 0 392.275s2.448 12.195 6.893 16.64c4.444 4.445 10.354 6.892 16.64 6.892s12.195-2.448 16.64-6.892a23.378 23.378 0 0 0 6.893-16.64c0-3.696-.852-7.259-2.453-10.473l49.326-49.326a16.441 16.441 0 0 1 11.702-4.847h22.62v16.548c0 21.816 17.749 39.564 39.564 39.564h16.548v66.394c-9.308 3.139-16.032 11.946-16.032 22.3 0 12.976 10.557 23.532 23.532 23.532s23.532-10.557 23.532-23.532c0-10.354-6.724-19.16-16.032-22.3v-66.394h17.064v32.581a7.5 7.5 0 0 0 15 0v-32.581H248.5v120.76a7.5 7.5 0 0 0 15 0V383.743h17.064v32.581a7.5 7.5 0 0 0 15 0v-32.581h17.064v22.619c0 8.427 3.282 16.35 9.241 22.308l49.343 49.343c-4.359 8.801-2.898 19.775 4.422 27.095 4.587 4.588 10.614 6.881 16.64 6.881s12.053-2.293 16.64-6.881c9.175-9.175 9.175-24.104 0-33.279-7.319-7.32-18.294-8.781-27.095-4.422zM39.564 200.404c-4.705 0-8.532-3.828-8.532-8.532 0-4.705 3.828-8.532 8.532-8.532s8.532 3.828 8.532 8.532c.001 4.705-3.827 8.532-8.532 8.532zm-9.999 197.904c-1.612 1.612-3.754 2.499-6.033 2.499s-4.421-.887-6.033-2.499S15 394.554 15 392.275s.887-4.421 2.499-6.033 3.754-2.499 6.033-2.499 4.421.887 6.033 2.499 2.499 3.754 2.499 6.033-.887 4.422-2.499 6.033zm162.306 82.661c-4.705 0-8.532-3.828-8.532-8.532s3.828-8.532 8.532-8.532 8.532 3.828 8.532 8.532-3.827 8.532-8.532 8.532zm206.437 13.533c-3.327 3.327-8.74 3.326-12.067 0-3.327-3.327-3.327-8.74 0-12.066 1.664-1.663 3.849-2.495 6.034-2.495s4.37.832 6.033 2.495c3.326 3.326 3.326 8.739 0 12.066z"/><path d="M194.392 312.096v.018c0 17.396 15.501 31.549 34.555 31.549 10.95 0 20.719-4.679 27.054-11.957 6.335 7.278 16.104 11.957 27.054 11.957 18.337 0 33.376-13.11 34.482-29.602 11.137-6.462 18.108-17.781 18.108-30.003 0-8.99-3.833-17.566-10.43-24.048 6.596-6.482 10.43-15.059 10.43-24.048 0-16.04-11.732-29.627-27.793-34.042.475-1.961.739-3.978.739-6.039 0-15.186-13.479-27.541-30.045-27.541-8.974 0-17.035 3.629-22.545 9.365-5.51-5.736-13.572-9.365-22.545-9.365-16.567 0-30.045 12.355-30.045 27.541 0 2.061.264 4.078.739 6.039-16.061 4.414-27.793 18.001-27.793 34.042 0 7.839 2.774 15.235 7.899 21.343-5.011 6.487-7.899 14.362-7.899 22.746-.002 12.752 6.812 24.659 18.035 32.045zm20.84-96.688c.067.002.134.011.2.011a7.469 7.469 0 0 0 4.842-1.776c2.875-2.434 3.452-6.564 1.522-9.671-.057-.092-.109-.186-.169-.275-.031-.045-.068-.088-.1-.133a7.601 7.601 0 0 0-.364-.477l-.011-.014c-1.251-1.479-2.744-3.927-2.744-7.193 0-6.915 6.75-12.541 15.045-12.541s15.045 5.626 15.045 12.541a7.5 7.5 0 0 0 15 0c0-6.915 6.75-12.541 15.045-12.541s15.045 5.626 15.045 12.541c0 1.848-.484 3.424-1.125 4.72a41.65 41.65 0 0 0-12.309 3.086 7.5 7.5 0 1 0 5.828 13.822c3.242-1.367 6.73-2.07 10.368-2.098.072.002.143.009.215.009.067 0 .133-.009.2-.011 13.183.086 23.877 9.271 23.877 20.552 0 7.091-4.314 13.601-11.541 17.416a7.5 7.5 0 0 0 0 13.266c7.227 3.814 11.541 10.325 11.541 17.416 0 5.287-2.457 10.33-6.607 14.101-3.943-7.301-10.912-13.113-19.717-15.879a7.5 7.5 0 1 0-4.496 14.31c7.646 2.403 12.784 8.642 12.784 15.525 0 9.125-8.772 16.549-19.555 16.549-10.782 0-19.554-7.424-19.554-16.549v-48.097c0-9.125 8.772-16.548 19.554-16.548a7.5 7.5 0 0 0 0-15c-7.254 0-13.99 2.056-19.554 5.557v-9.58a7.5 7.5 0 0 0-15 0v41.637a35.726 35.726 0 0 0-8.286-3.836 7.5 7.5 0 0 0-4.497 14.31c7.646 2.403 12.783 8.642 12.783 15.524v16.032c0 9.125-8.772 16.549-19.554 16.549-10.783 0-19.555-7.424-19.555-16.549 0-3.911 1.658-7.713 4.668-10.705a7.5 7.5 0 0 0-10.574-10.639 31.9 31.9 0 0 0-4.63 5.814c-4.736-4.48-7.501-10.374-7.501-16.535 0-11.112 8.721-20.874 21.208-23.739a7.5 7.5 0 0 0-3.354-14.62c-5.027 1.153-9.655 3.078-13.759 5.605-2.661-3.342-4.094-7.256-4.094-11.335.003-11.281 10.697-20.465 23.88-20.552z"/></svg>