<?xml version="1.0"?>
<svg xmlns="http://www.w3.org/2000/svg" xmlns:xlink="http://www.w3.org/1999/xlink" version="1.1" id="Capa_1" x="0px" y="0px" viewBox="0 0 512 512" style="enable-background:new 0 0 512 512;" xml:space="preserve" width="512px" height="512px" class=""><g transform="matrix(0.998401 0 0 0.998401 0.409292 0.409292)"><g>
	<g>
		<path d="M257.331,388.224h-2.661c-8.326,0-15.099,6.773-15.099,15.099v44.282c0,8.326,6.773,15.099,15.099,15.099h2.661    c8.326,0,15.099-6.773,15.099-15.099v-44.282C272.429,394.997,265.656,388.224,257.331,388.224z" data-original="#000000" class="active-path" data-old_color="#28FF00" fill="#0CCC02"/>
	</g>
</g><g>
	<g>
		<path d="M441.638,273.636l-57.247-43.029l30.411-41.994l-4.066-8.136c-0.128-0.257-6.169-12.315-15.864-30.733    c-12.389-3.216-30.156-7.139-52.615-10.316c-0.859,8.547-3.532,27.784-11.303,47.207c-6.305,15.758-14.686,28.48-24.913,37.811    c-13.528,12.345-29.905,18.603-48.678,18.603c-33.202,0-59.071-19.39-74.811-56.072c-7.845-18.282-11.161-36.416-12.44-45.579    c-24.155,4.465-43.243,10.023-56.16,14.404c-7.821,14.961-12.573,24.448-12.686,24.676l-4.066,8.136l30.41,41.994l-57.246,43.029    L20.021,411.301L94.412,512h17.905V291.614h287.366V512h17.906l74.39-100.699L441.638,273.636z" data-original="#000000" class="active-path" data-old_color="#28FF00" fill="#0CCC02"/>
	</g>
</g><g>
	<g>
		<path d="M350.124,68.846c-36.138-61.765-90.19-68.411-92.473-68.664L256.001,0l-1.65,0.183    c-2.284,0.253-56.335,6.898-92.474,68.664c-10.028,17.139-19.59,34.235-28.036,49.714c30.016-7.685,71.921-14.99,122.761-14.99    c50.15,0,90.613,5.373,119.412,11.063C368.109,100.214,359.311,84.547,350.124,68.846z" data-original="#000000" class="active-path" data-old_color="#28FF00" fill="#0CCC02"/>
	</g>
</g><g>
	<g>
		<path d="M256.602,133.565c-20.547,0-39.57,1.297-56.819,3.343c2.262,16.317,13.565,76.145,57.58,76.145    c44.941,0,53.696-63.034,55.084-77.047C295.598,134.509,276.925,133.565,256.602,133.565z" data-original="#000000" class="active-path" data-old_color="#28FF00" fill="#0CCC02"/>
	</g>
</g><g>
	<g>
		<path d="M142.312,321.608V512H369.69V321.608H142.312z M323.831,419.65h-21.405v13.609h21.405v29.995h-24.21    c-6.375,17.173-22.925,29.445-42.289,29.445h-2.661c-19.365,0-35.915-12.272-42.289-29.445h-24.21v-29.994h21.404v-13.609h-21.405    v-29.995H211.7c1.758-5.514,4.546-10.573,8.144-14.944l-5.461-3.829v-24.435h29.995v8.832l4.717,3.306    c1.829-0.227,3.687-0.357,5.577-0.357h2.661c1.89,0,3.748,0.13,5.577,0.357l4.717-3.306v-8.832h29.995v24.435l-5.461,3.829    c3.597,4.371,6.385,9.429,8.143,14.943h23.529V419.65z" data-original="#000000" class="active-path" data-old_color="#28FF00" fill="#0CCC02"/>
	</g>
</g></g> </svg>
