<?xml version="1.0" encoding="iso-8859-1"?>
<!-- Generator: Adobe Illustrator 16.0.0, SVG Export Plug-In . SVG Version: 6.00 Build 0)  -->
<!DOCTYPE svg PUBLIC "-//W3C//DTD SVG 1.1//EN" "http://www.w3.org/Graphics/SVG/1.1/DTD/svg11.dtd">
<svg version="1.1" id="Capa_1" xmlns="http://www.w3.org/2000/svg" xmlns:xlink="http://www.w3.org/1999/xlink" x="0px" y="0px"
	 width="28.691px" height="28.691px" viewBox="0 0 28.691 28.691" style="enable-background:new 0 0 28.691 28.691;"
	 xml:space="preserve">
<g>
	<path d="M26.424,5.007c2.318,2.764,2.969,6.804,1.43,10.056c-2.162,4.565-7.621,7.095-12.68,5.584
		c0.415,2.996-0.645,6.642-3.921,7.753c-1.563,0.531-3.271,0.292-4.754-0.352c-1.617-0.699-0.75-3.449-0.886-4.838
		c0.986,0.209,1.932,1.209,3,0.734c0.922-0.408,0.945-2.386,0.979-3.209c0.114-2.765-0.094-5.564-0.094-8.334
		c0-0.928,0-1.854,0-2.779c0-0.381,0-0.762,0-1.143c0-0.471,0.027-0.4,0.461-0.477c1.16-0.199,2.382-0.137,3.551-0.045
		c0.333,0.025,0.664,0.059,0.996,0.098c0.42,0.054,0.371-0.041,0.371,0.465c0,0.826,0,1.654,0,2.479c0,1.653,0,3.307,0,4.958
		c0,0.634,0.521,0.61,1.107,0.75c0.346,0.08,0.697,0.142,1.051,0.177c0.636,0.062,1.279,0.045,1.906-0.065
		c1.074-0.189,2.092-0.662,2.894-1.374c1.53-1.358,1.895-3.436,1.341-5.312c-1.337-4.535-7.312-6.369-11.717-5.308
		C6.726,5.969,2.94,11.096,6.511,15.231c-1.066,0.912-1.988,1.996-3.234,2.699c-0.303,0.173-0.618,0.317-0.946,0.436
		c-0.185-0.188-0.354-0.392-0.513-0.602c-0.328-0.433-0.604-0.896-0.832-1.381c-1.028-2.176-1.191-4.717-0.762-7.049
		c0.699-3.793,3.207-6.609,6.897-8.072C13.267-1.169,22.08-0.175,26.424,5.007z"/>
</g>
<g>
</g>
<g>
</g>
<g>
</g>
<g>
</g>
<g>
</g>
<g>
</g>
<g>
</g>
<g>
</g>
<g>
</g>
<g>
</g>
<g>
</g>
<g>
</g>
<g>
</g>
<g>
</g>
<g>
</g>
</svg>
